<svg width="60" height="60" viewBox="0 0 60 60" fill="none" xmlns="http://www.w3.org/2000/svg">
<g clip-path="url(#clip0)">
<path d="M30.0001 60C29.6016 60 29.2306 59.7975 29.0149 59.4626L23.5773 51.0193C18.1737 49.6391 13.2873 46.4885 9.77598 42.1104C6.10859 37.5376 4.08887 31.7845 4.08887 25.9111C4.08887 18.99 6.78418 12.4832 11.6782 7.58918C16.572 2.6952 23.0789 0 30.0001 0C36.9213 0 43.4281 2.6952 48.3221 7.58918C53.2161 12.4832 55.9114 18.99 55.9114 25.9111C55.9114 31.7845 53.8917 37.5376 50.2243 42.1103C46.713 46.4885 41.8265 49.6391 36.423 51.0193L30.9854 59.4626C30.7695 59.7975 30.3985 60 30.0001 60ZM30.0001 2.34375C17.0048 2.34375 6.4325 12.9161 6.4325 25.911C6.4325 36.9034 13.8943 46.337 24.5783 48.8517C24.8737 48.9213 25.1307 49.1029 25.295 49.358L30.0001 56.6638L34.705 49.358C34.8693 49.1027 35.1263 48.9212 35.4218 48.8517C46.1057 46.337 53.5675 36.9034 53.5675 25.911C53.5677 12.9161 42.9953 2.34375 30.0001 2.34375Z" fill="#70768A"/>
<path d="M30.0003 42.8233C39.3407 42.8233 46.9127 35.2515 46.9127 25.9112C46.9127 16.5708 39.3407 8.99902 30.0003 8.99902C20.6598 8.99902 13.0879 16.5708 13.0879 25.9112C13.0879 35.2515 20.6598 42.8233 30.0003 42.8233Z" fill="#E8CDC8"/>
<path d="M37.1114 18.5111H34.4577V18.3189C34.4577 15.8475 32.4528 13.8369 29.9887 13.8369C27.5245 13.8369 25.5197 15.8475 25.5197 18.3189V18.5111H22.8896C22.2424 18.5111 21.7178 19.0357 21.7178 19.6829V31.4637C21.7178 33.4866 23.3636 35.1323 25.3863 35.1323H34.6147C36.6376 35.1323 38.2833 33.4866 38.2833 31.4637V19.6829C38.2833 19.0357 37.7586 18.5111 37.1114 18.5111ZM27.8634 18.3189C27.8634 17.1398 28.8169 16.1807 29.9887 16.1807C31.1606 16.1807 32.1139 17.14 32.1139 18.3189V18.5111H27.8634V18.3189ZM35.9395 31.4637C35.9395 32.1942 35.3453 32.7886 34.6147 32.7886H25.3863C24.6558 32.7886 24.0615 32.1943 24.0615 31.4637V20.8548H25.5197V22.9065C25.5197 23.5538 26.0443 24.0784 26.6916 24.0784C27.3388 24.0784 27.8634 23.5538 27.8634 22.9065V20.8548H32.1139V22.9065C32.1139 23.5538 32.6386 24.0784 33.2858 24.0784C33.933 24.0784 34.4577 23.5538 34.4577 22.9065V20.8548H35.9395V31.4637Z" fill="#70768A"/>
</g>
<defs>
<clipPath id="clip0">
<rect width="60" height="60" fill="white"/>
</clipPath>
</defs>
</svg>
