<svg width="60" height="60" viewBox="0 0 60 60" fill="none" xmlns="http://www.w3.org/2000/svg">
<path d="M52.2338 27.1588C51.94 27.1588 51.6459 27.049 51.4183 26.8284C51.0472 26.4687 50.5564 26.2705 50.0363 26.2705H40.1504C39.5033 26.2705 38.9785 25.7457 38.9785 25.0986C38.9785 24.4515 39.5033 23.9268 40.1504 23.9268H50.0363C51.1687 23.9268 52.2389 24.3595 53.0496 25.1454C53.5143 25.596 53.5258 26.3378 53.0755 26.8025C52.8455 27.0396 52.5399 27.1588 52.2338 27.1588Z" fill="#70768A"/>
<path d="M7.76629 27.1588C7.46031 27.1588 7.15457 27.0396 6.92465 26.8025C6.47418 26.3378 6.48578 25.596 6.95054 25.1454C7.76125 24.3595 8.8314 23.9268 9.96367 23.9268H22.6373C23.2844 23.9268 23.8091 24.4515 23.8091 25.0986C23.8091 25.7457 23.2844 26.2705 22.6373 26.2705H9.96355C9.44347 26.2705 8.95281 26.4686 8.58168 26.8284C8.3541 27.0489 8.05996 27.1588 7.76629 27.1588Z" fill="#70768A"/>
<path d="M41.4263 0H13.0396V31.1633L27.4038 45.2641L28.2297 46.0282H31.7702L32.5962 45.2641L46.9604 31.1633V5.52832L41.4263 0Z" fill="#E8CDC8"/>
<path d="M53.0812 25.1778C53.0776 25.1741 53.074 25.1702 53.0704 25.1665C52.6734 24.7619 52.055 24.7064 51.5971 25.0034C51.5936 25.0058 51.5901 25.0081 51.5865 25.0105C51.5822 25.0133 51.5779 25.0161 51.5737 25.0189C51.5149 25.0591 51.4588 25.1053 51.4066 25.1573L31.7874 44.4159L31.3113 44.8565H28.6887L28.2126 44.4159L8.59342 25.1573C8.54127 25.1054 8.48549 25.0592 8.42666 25.0192C7.9667 24.7045 7.33365 24.7549 6.92971 25.1665C6.92607 25.1702 6.92244 25.174 6.91893 25.1778C6.09076 25.9959 5.63525 27.0849 5.63525 28.2499V55.677C5.63525 56.9313 6.17947 58.1211 7.12811 58.9415C7.13115 58.9441 7.13432 58.9467 7.13736 58.9494C7.92053 59.6271 8.92342 60.0002 9.96334 60.0002H50.0368C51.0766 60.0002 52.0795 59.6271 52.8628 58.9493C52.8658 58.9467 52.869 58.9441 52.872 58.9414C53.8208 58.121 54.3649 56.9312 54.3649 55.6769V28.2498C54.365 27.0849 53.9094 25.9958 53.0812 25.1778ZM8.11893 56.4072C8.0274 56.1775 7.97877 55.9302 7.97877 55.677V28.2498C7.97877 28.1219 7.99084 27.9959 8.01428 27.8733L24.3899 43.9479L8.11893 56.4072ZM10.3427 57.6565L26.0795 45.6063L26.5831 46.1006C26.5912 46.1087 26.5996 46.1168 26.6081 46.1245L27.4339 46.8887C27.6506 47.0891 27.9347 47.2004 28.2298 47.2004H31.7704C32.0655 47.2004 32.3497 47.0891 32.5663 46.8887L33.3922 46.1245C33.4006 46.1168 33.409 46.1087 33.4171 46.1006L33.9207 45.6063L49.6574 57.6565H10.3427ZM52.0212 55.6769C52.0212 55.93 51.9727 56.1774 51.8811 56.4071L35.6099 43.948L51.9857 27.8734C52.0093 27.9961 52.0212 28.122 52.0212 28.2499V55.6769Z" fill="#70768A"/>
<path d="M25.9048 15.874H34.0949C34.742 15.874 35.2668 15.3493 35.2668 14.7021C35.2668 14.055 34.742 13.5303 34.0949 13.5303H25.9048C25.2577 13.5303 24.7329 14.055 24.7329 14.7021C24.7329 15.3493 25.2576 15.874 25.9048 15.874Z" fill="#70768A"/>
<path d="M22.2378 22.7129H37.7622C38.4093 22.7129 38.9341 22.1881 38.9341 21.541C38.9341 20.8939 38.4093 20.3691 37.7622 20.3691H22.2378C21.5907 20.3691 21.0659 20.8939 21.0659 21.541C21.0659 22.1881 21.5906 22.7129 22.2378 22.7129Z" fill="#70768A"/>
<path d="M22.2378 28.085H37.7622C38.4093 28.085 38.9341 27.5602 38.9341 26.9131C38.9341 26.266 38.4093 25.7412 37.7622 25.7412H22.2378C21.5907 25.7412 21.0659 26.266 21.0659 26.9131C21.0659 27.5602 21.5906 28.085 22.2378 28.085Z" fill="#70768A"/>
</svg>
