<svg width="60" height="60" viewBox="0 0 60 60" fill="none" xmlns="http://www.w3.org/2000/svg">
<g clip-path="url(#clip0)">
<path d="M33.8659 57.6562H11.1798V15.5432H17.4238V21.5532C17.4238 22.2005 17.9486 22.7251 18.5957 22.7251C19.2428 22.7251 19.7676 22.2005 19.7676 21.5532V15.5432H35.7706V21.5532C35.7706 22.2005 36.2954 22.7251 36.9425 22.7251C37.5896 22.7251 38.1143 22.2005 38.1143 21.5532V15.5432H44.1632V27.8183C44.1632 28.4655 44.6879 28.9902 45.3351 28.9902C45.9822 28.9902 46.507 28.4655 46.507 27.8183V14.3713C46.507 13.7241 45.9822 13.1994 45.3351 13.1994H38.1143V10.295C38.1142 4.61824 33.4735 0 27.769 0C26.463 0 25.2127 0.242109 24.0611 0.683555C22.9095 0.242109 21.6592 0 20.3532 0C14.6487 0 10.008 4.61824 10.008 10.295V13.1994H2.78711C2.14 13.1994 1.61523 13.7241 1.61523 14.3713V54.4423C1.61523 57.5067 4.11203 60 7.18094 60H37.8679C36.1495 60 34.6517 59.0549 33.8659 57.6562ZM27.769 2.34375C32.181 2.34375 35.7705 5.9107 35.7705 10.295V13.1994H30.6984V10.295C30.6984 7.11855 29.2452 4.27348 26.9658 2.38359C27.2301 2.35723 27.498 2.34375 27.769 2.34375ZM24.0611 3.2502C26.6113 4.58098 28.3546 7.23949 28.3546 10.295V13.1994H19.7676V10.295C19.7676 7.23949 21.5109 4.58098 24.0611 3.2502ZM12.3517 10.295C12.3517 5.9107 15.9412 2.34375 20.3532 2.34375C20.6242 2.34375 20.8921 2.35723 21.1564 2.38348C18.877 4.27348 17.4238 7.11844 17.4238 10.2949V13.1993H12.3517V10.295ZM8.83609 57.6562H7.18094C5.40438 57.6562 3.95898 56.2145 3.95898 54.4423V15.5432H8.83598V57.6562H8.83609Z" fill="#70768A"/>
<path d="M53.7982 59.9995H36.6955C34.1621 59.9995 32.1084 57.9458 32.1084 55.4124V33.916H58.3852V55.4124C58.3852 57.9458 56.3315 59.9995 53.7982 59.9995Z" fill="#E8CDC8"/>
<path d="M50.2708 40.8915C49.6237 40.8915 49.0989 40.3668 49.0989 39.7197V33.2234C49.0989 31.11 47.3629 29.3906 45.2291 29.3906C43.0953 29.3906 41.3594 31.11 41.3594 33.2234V39.7197C41.3594 40.3668 40.8346 40.8915 40.1875 40.8915C39.5403 40.8915 39.0156 40.3668 39.0156 39.7197V33.2234C39.0156 29.8175 41.803 27.0469 45.2291 27.0469C48.6552 27.0469 51.4427 29.8177 51.4427 33.2234V39.7197C51.4427 40.3669 50.9179 40.8915 50.2708 40.8915Z" fill="#70768A"/>
</g>
<defs>
<clipPath id="clip0">
<rect width="60" height="60" fill="white"/>
</clipPath>
</defs>
</svg>
