<svg width="60" height="60" viewBox="0 0 60 60" fill="none" xmlns="http://www.w3.org/2000/svg">
<g clip-path="url(#clip0)">
<path d="M41.7178 22.9147L45.2154 19.42C44.0735 18.279 44.0735 16.429 45.2154 15.2881L39.587 9.66406C38.4451 10.805 36.5937 10.805 35.4518 9.66406L22.1904 22.9148H41.7178V22.9147Z" fill="#E8CDC8"/>
<path d="M52.9202 46.5172V55.8351C52.9202 56.8393 52.1022 57.6562 51.0966 57.6562H11.9842V24.0865H51.0966C52.1021 24.0865 52.9202 24.9035 52.9202 25.9077V35.2255H55.264V25.9077C55.264 23.884 53.8124 22.1929 51.8953 21.8195L53.8437 19.8726C54.5169 19.1999 54.8877 18.3053 54.8877 17.3538C54.8877 16.4023 54.5169 15.5077 53.8437 14.835L40.0387 1.04118C38.6494 -0.347061 36.389 -0.347061 34.9997 1.04118L14.2818 21.7427H6.55854C4.26066 21.7427 2.39111 23.6111 2.39111 25.9077V55.8352C2.39111 58.1318 4.26054 60.0002 6.55854 60.0002H51.0966C53.3945 60.0002 55.264 58.1318 55.264 55.8352V46.5174H52.9202V46.5172ZM36.6563 2.6992C37.132 2.22387 37.9063 2.22387 38.382 2.6992L52.187 16.493C52.4171 16.723 52.5439 17.0287 52.5439 17.3538C52.5439 17.6789 52.4171 17.9846 52.187 18.2146L48.6561 21.7426H17.5978L36.6563 2.6992ZM9.64043 57.6562H6.55854C5.55304 57.6562 4.73493 56.8393 4.73493 55.8351V25.9077C4.73493 24.9035 5.55304 24.0865 6.55854 24.0865H9.64043V57.6562Z" fill="#70768A"/>
<path d="M57.6081 47.6893H44.0366C40.2712 47.6893 37.2188 44.6369 37.2188 40.8715C37.2188 37.1062 40.2712 34.0537 44.0366 34.0537H57.6081V47.6893Z" fill="#E8CDC8"/>
<path d="M44.8189 44.7653C42.6706 44.7653 40.9229 43.0185 40.9229 40.8714C40.9229 38.7243 42.6706 36.9775 44.8189 36.9775C46.9672 36.9775 48.715 38.7244 48.715 40.8714C48.715 43.0185 46.9672 44.7653 44.8189 44.7653ZM44.8189 39.3212C43.9629 39.3212 43.2667 40.0166 43.2667 40.8713C43.2667 41.7261 43.9629 42.4214 44.8189 42.4214C45.6748 42.4214 46.3712 41.726 46.3712 40.8713C46.3712 40.0166 45.6748 39.3212 44.8189 39.3212Z" fill="#70768A"/>
</g>
<defs>
<clipPath id="clip0">
<rect width="60" height="60" fill="white"/>
</clipPath>
</defs>
</svg>
