<svg width="60" height="60" viewBox="0 0 60 60" fill="none" xmlns="http://www.w3.org/2000/svg">
<g clip-path="url(#clip0)">
<path d="M38.0221 40.1632H55.1104C57.7314 40.1632 59.9367 38.0994 59.9987 35.4793C60.0626 32.7801 57.8856 30.5638 55.2008 30.5638H43.0679L44.4591 28.4035C47.1548 27.6627 49.5866 26.0658 51.3473 23.87C53.2384 21.5117 54.2798 18.545 54.2798 15.5161C54.2798 8.14832 48.2863 2.1543 40.9194 2.1543C33.5525 2.1543 27.5591 8.14832 27.5591 15.5161C27.5591 18.545 28.6007 21.5117 30.4917 23.8701C32.2525 26.0657 34.6842 27.6627 37.3799 28.4035L39.9257 32.3569C39.9259 32.3573 39.926 32.3576 39.9264 32.358C40.1396 32.6983 40.5131 32.9061 40.9147 32.9076H40.9194H55.1399C56.4698 32.9076 57.6041 33.9398 57.6544 35.2687C57.7072 36.6659 56.5861 37.8195 55.2006 37.8195H38.0634C35.3326 37.8195 33.0162 40.0534 33.0333 42.7841C33.0416 44.1134 33.5723 45.3603 34.528 46.2899C35.4654 47.2018 36.739 47.6849 38.0468 47.6849C41.4602 47.6848 46.4773 47.6847 50.2385 47.6842C51.2721 47.6841 52.2809 48.0613 53.0234 48.7805C53.7941 49.5272 54.2196 50.5378 54.2196 51.6173V51.673C54.2196 52.6689 53.8561 53.6411 53.1634 54.3566C52.4491 55.0946 51.4874 55.5018 50.4629 55.5018L16.6064 55.4999L18.2494 52.9482C21.1821 52.1513 23.8286 50.4183 25.7425 48.0316C27.789 45.4796 28.916 42.269 28.916 38.9914C28.916 31.0183 22.4302 24.5317 14.458 24.5317C6.48586 24.5317 0 31.0183 0 38.9914C0 42.269 1.12699 45.4796 3.17355 48.0316C5.08746 50.4183 7.73402 52.1513 10.6666 52.9482L13.4644 57.293C13.4659 57.2953 13.4693 57.3007 13.4745 57.3086C13.6898 57.642 14.0603 57.844 14.4573 57.8436H14.4578L50.4628 57.8457H50.463C52.0726 57.8457 53.587 57.2264 54.7343 56.1006C55.9246 54.9326 56.5632 53.3136 56.5632 51.6459V51.6174C56.5632 49.9373 55.9136 48.36 54.7341 47.1761C53.5546 45.9924 51.9845 45.3406 50.3128 45.3406H50.3121C46.5332 45.3411 41.4563 45.3412 38.02 45.3413C37.3418 45.3413 36.6785 45.0999 36.1863 44.6334C35.6508 44.1257 35.3613 43.4311 35.3775 42.6937C35.4088 41.2773 36.6056 40.1632 38.0221 40.1632ZM38.3847 26.2412C33.3907 25.0656 29.9029 20.6552 29.9029 15.5161C29.9029 9.44078 34.8449 4.49805 40.9195 4.49805C46.9942 4.49805 51.9362 9.44078 51.9362 15.5161C51.9362 20.6553 48.4484 25.0656 43.4544 26.2412C43.1591 26.3107 42.9021 26.4923 42.7378 26.7475L40.9195 29.5711L39.1012 26.7475C38.937 26.4923 38.68 26.3109 38.3847 26.2412ZM11.6708 50.7852C6.17918 49.4923 2.34375 44.6425 2.34375 38.9914C2.34375 32.3106 7.7782 26.8755 14.4581 26.8755C21.1379 26.8755 26.5724 32.3106 26.5724 38.9914C26.5724 44.6426 22.737 49.4924 17.2453 50.7852C16.9499 50.8548 16.6929 51.0362 16.5286 51.2915L14.4581 54.507L12.3874 51.2914C12.2232 51.0362 11.9661 50.8547 11.6708 50.7852Z" fill="#70768A"/>
<path d="M14.4582 46.5121C18.6118 46.5121 21.979 43.1445 21.979 38.9904C21.979 34.8363 18.6118 31.4688 14.4582 31.4688C10.3047 31.4688 6.9375 34.8363 6.9375 38.9904C6.9375 43.1445 10.3047 46.5121 14.4582 46.5121Z" fill="#E8CDC8"/>
<path d="M40.9199 22.4157C44.7304 22.4157 47.8193 19.3264 47.8193 15.5155C47.8193 11.7046 44.7304 8.61523 40.9199 8.61523C37.1095 8.61523 34.0205 11.7046 34.0205 15.5155C34.0205 19.3264 37.1095 22.4157 40.9199 22.4157Z" fill="#E8CDC8"/>
</g>
<defs>
<clipPath id="clip0">
<rect width="60" height="60" fill="white"/>
</clipPath>
</defs>
</svg>
