<svg width="28" height="28" viewBox="0 0 28 28" fill="none" xmlns="http://www.w3.org/2000/svg">
<path d="M13.0347 0.386024C13.594 -0.146676 14.4809 -0.125675 15.0136 0.434325C15.547 0.994325 15.5246 1.88052 14.9653 2.41392L4.2259 12.5996H26.6C27.3728 12.5996 28 13.2268 28 13.9996C28 14.7724 27.3728 15.3996 26.6 15.3996H4.2707L14.9653 25.586C15.5253 26.1194 15.547 27.0056 15.0136 27.5656C14.7385 27.854 14.3696 27.9996 14 27.9996C13.6528 27.9996 13.3056 27.8715 13.0347 27.6132L0.8204 15.9792C0.291201 15.4507 0 14.7479 0 13.9996C0 13.2513 0.291201 12.5485 0.8449 11.9962L13.0347 0.386024Z" fill="#FBF9F7"/>
</svg>
