<svg width="28" height="28" viewBox="0 0 28 28" fill="none" xmlns="http://www.w3.org/2000/svg">
<path d="M14.9653 27.614C14.406 28.1467 13.5191 28.1257 12.9864 27.5657C12.453 27.0057 12.4754 26.1195 13.0347 25.5861L23.7741 15.4004L1.4 15.4004C0.6272 15.4004 0 14.7732 0 14.0004C0 13.2276 0.6272 12.6004 1.4 12.6004L23.7293 12.6004L13.0347 2.41398C12.4747 1.88058 12.453 0.994373 12.9864 0.434374C13.2615 0.145973 13.6304 0.00037384 14 0.00037384C14.3472 0.00037384 14.6944 0.128473 14.9653 0.386774L27.1796 12.0208C27.7088 12.5493 28 13.2521 28 14.0004C28 14.7487 27.7088 15.4515 27.1551 16.0038L14.9653 27.614Z" fill="#FBF9F7"/>
</svg>
