<svg width="60" height="60" viewBox="0 0 60 60" fill="none" xmlns="http://www.w3.org/2000/svg">
<path d="M55.0627 18.7111C55.2829 18.4912 55.4067 18.1929 55.4067 17.8818C55.4067 17.5706 55.2829 17.2723 55.0627 17.0524L48.8218 10.8226C48.3643 10.3661 47.6234 10.3661 47.1659 10.8226L43.9572 14.0256C41.0892 12.1063 37.8686 10.8088 34.4645 10.203C35.4702 9.11859 36.0857 7.6684 36.0857 6.07723C36.0857 2.72625 33.3556 0 29.9997 0C26.6438 0 23.9137 2.72625 23.9137 6.07723C23.9137 7.66828 24.5292 9.11859 25.535 10.203C22.1308 10.8088 18.9103 12.1063 16.0422 14.0256L12.8335 10.8226C12.376 10.3661 11.6352 10.3661 11.1777 10.8226L4.93672 17.0524C4.71652 17.2723 4.59277 17.5706 4.59277 17.8818C4.59277 18.1929 4.71652 18.4912 4.93672 18.7111L8.35543 22.1238C6.07766 25.9527 4.86242 30.3359 4.86242 34.9054C4.86242 41.6087 7.47734 47.9108 12.2257 52.6507C16.9734 57.39 23.2857 60 29.9997 60C36.7137 60 43.0261 57.39 47.7737 52.6507C52.522 47.9109 55.1369 41.6087 55.1369 34.9054C55.1369 30.3357 53.9217 25.9527 51.6439 22.1237L55.0627 18.7111ZM47.9939 13.3078L52.576 17.8818L50.3243 20.1295C49.559 19.0852 48.7077 18.0925 47.7737 17.1601C47.1618 16.5495 46.524 15.9741 45.8627 15.4351L47.9939 13.3078ZM29.9997 2.34375C32.0632 2.34375 33.742 4.01859 33.742 6.07723C33.742 7.7277 32.6628 9.13148 31.1716 9.6232V6.915C31.1716 6.26789 30.647 5.74312 29.9997 5.74312C29.3525 5.74312 28.8279 6.26789 28.8279 6.915V9.6232C27.3365 9.13148 26.2575 7.7277 26.2575 6.07723C26.2575 4.01859 27.9363 2.34375 29.9997 2.34375ZM7.42344 17.8818L12.0056 13.3078L14.1368 15.4351C13.4755 15.9741 12.8376 16.5493 12.2258 17.1601C11.2918 18.0925 10.4404 19.0853 9.6752 20.1295L7.42344 17.8818ZM29.9997 57.6562C17.4312 57.6562 7.20617 47.4503 7.20617 34.9054C7.20617 22.3604 17.4312 12.1546 29.9997 12.1546C42.5682 12.1546 52.7933 22.3605 52.7933 34.9055C52.7933 47.4504 42.5681 57.6562 29.9997 57.6562Z" fill="#70768A"/>
<path d="M30.0003 52.8018C39.9022 52.8018 47.9293 44.789 47.9293 34.9048C47.9293 25.0206 39.9022 17.0078 30.0003 17.0078C20.0984 17.0078 12.0713 25.0206 12.0713 34.9048C12.0713 44.789 20.0984 52.8018 30.0003 52.8018Z" fill="#E8CDC8"/>
<path d="M30 22.9466C29.3528 22.9466 28.8281 22.4218 28.8281 21.7747V21.375C28.8281 20.7278 29.3528 20.2031 30 20.2031C30.6472 20.2031 31.1719 20.7278 31.1719 21.375V21.7747C31.1719 22.422 30.6472 22.9466 30 22.9466Z" fill="#70768A"/>
<path d="M30 49.6048C29.3528 49.6048 28.8281 49.08 28.8281 48.4329V48.0332C28.8281 47.3861 29.3528 46.8613 30 46.8613C30.6472 46.8613 31.1719 47.3861 31.1719 48.0332V48.4329C31.1719 49.08 30.6472 49.6048 30 49.6048Z" fill="#70768A"/>
<path d="M43.5287 36.0762H43.1289C42.4817 36.0762 41.957 35.5514 41.957 34.9043C41.957 34.2572 42.4817 33.7324 43.1289 33.7324H43.5287C44.176 33.7324 44.7006 34.2572 44.7006 34.9043C44.7006 35.5515 44.176 36.0762 43.5287 36.0762Z" fill="#70768A"/>
<path d="M16.8705 36.0762H16.4707C15.8235 36.0762 15.2988 35.5514 15.2988 34.9043C15.2988 34.2572 15.8235 33.7324 16.4707 33.7324H16.8705C17.5178 33.7324 18.0424 34.2572 18.0424 34.9043C18.0424 35.5515 17.5178 36.0762 16.8705 36.0762Z" fill="#70768A"/>
<path d="M39.2841 26.7924C38.9843 26.7924 38.6843 26.6779 38.4555 26.4492C37.9979 25.9916 37.9979 25.2495 38.4555 24.7918L38.7382 24.5091C39.1958 24.0516 39.9378 24.0516 40.3955 24.5091C40.8532 24.9668 40.8532 25.7088 40.3955 26.1665L40.1129 26.4492C39.8839 26.6779 39.584 26.7924 39.2841 26.7924Z" fill="#70768A"/>
<path d="M20.4336 45.642C20.1337 45.642 19.8337 45.5275 19.6049 45.2988C19.1473 44.8412 19.1473 44.0991 19.6049 43.6414L19.8876 43.3587C20.3452 42.9013 21.0872 42.9013 21.545 43.3587C22.0026 43.8164 22.0026 44.5584 21.545 45.0161L21.2623 45.2988C21.0334 45.5276 20.7334 45.642 20.4336 45.642Z" fill="#70768A"/>
<path d="M39.5668 45.642C39.2669 45.642 38.9669 45.5275 38.7382 45.2988L38.4555 45.0161C37.9979 44.5585 37.9979 43.8165 38.4555 43.3587C38.9131 42.9013 39.6552 42.9013 40.1129 43.3587L40.3955 43.6414C40.8532 44.099 40.8532 44.841 40.3955 45.2988C40.1666 45.5276 39.8667 45.642 39.5668 45.642Z" fill="#70768A"/>
<path d="M20.7162 26.7924C20.4163 26.7924 20.1163 26.6779 19.8876 26.4492L19.6049 26.1665C19.1473 25.7089 19.1473 24.9669 19.6049 24.5091C20.0625 24.0516 20.8046 24.0516 21.2623 24.5091L21.545 24.7918C22.0026 25.2494 22.0026 25.9915 21.545 26.4492C21.3161 26.6779 21.0161 26.7924 20.7162 26.7924Z" fill="#70768A"/>
<path d="M37.0094 33.5574H34.0472C33.6561 32.2682 32.6373 31.2494 31.348 30.8584V27.1895C31.348 26.5422 30.8233 26.0176 30.1761 26.0176C29.5289 26.0176 29.0042 26.5422 29.0042 27.1895V30.8584C27.3439 31.3619 26.1318 32.9068 26.1318 34.7293C26.1318 36.9593 27.9461 38.7736 30.1761 38.7736C31.9987 38.7736 33.5436 37.5616 34.0472 35.9012H37.0094C37.6566 35.9012 38.1813 35.3764 38.1813 34.7293C38.1813 34.0822 37.6566 33.5574 37.0094 33.5574ZM30.1761 36.4298C29.2385 36.4298 28.4756 35.6669 28.4756 34.7293C28.4756 33.7917 29.2384 33.0289 30.1761 33.0289C31.1137 33.0289 31.8766 33.7917 31.8766 34.7293C31.8765 35.6669 31.1137 36.4298 30.1761 36.4298Z" fill="#70768A"/>
</svg>
