<svg width="24" height="25" viewBox="0 0 24 25" fill="none" xmlns="http://www.w3.org/2000/svg">
<g clip-path="url(#clip0)">
<path d="M18.0829 13.3905C21.3508 13.3905 24 10.7413 24 7.47342C24 4.20554 21.3508 1.5564 18.0829 1.5564C14.815 1.5564 12.1659 4.20554 12.1659 7.47342C12.1659 10.7413 14.815 13.3905 18.0829 13.3905Z" fill="#E8CDC8"/>
<path d="M15.608 14.5317C15.3666 14.2903 15.0456 14.1574 14.7042 14.1574C14.3628 14.1574 14.0419 14.2903 13.8005 14.5317L12.1455 16.1867L7.25686 11.2981L8.91187 9.6431C9.4102 9.14477 9.4102 8.33393 8.91187 7.8356L6.321 5.24473C5.02983 3.95356 2.92903 3.9536 1.63786 5.24473L1.01016 5.87243C0.358734 6.52381 0 7.38991 0 8.3111C0 9.23229 0.358734 10.0984 1.01011 10.7498L12.6938 22.4334C13.3452 23.0848 14.2113 23.4436 15.1325 23.4436C16.0537 23.4436 16.9197 23.0848 17.5711 22.4335L18.1988 21.8057C19.49 20.5146 19.49 18.4137 18.1988 17.1226L15.608 14.5317ZM17.536 21.1428L16.9082 21.7706C16.4339 22.2449 15.8033 22.5061 15.1325 22.5061C14.4617 22.5061 13.8311 22.2448 13.3568 21.7705L1.67302 10.0868C1.19873 9.61254 0.9375 8.98188 0.9375 8.3111C0.9375 7.64032 1.19873 7.00967 1.67306 6.53538L2.30081 5.90763C2.76361 5.44484 3.37153 5.21342 3.97945 5.21342C4.58737 5.21342 5.1953 5.44484 5.65809 5.90763L8.24897 8.49851C8.31333 8.56287 8.34872 8.64837 8.34872 8.73935C8.34872 8.83034 8.31328 8.91588 8.24897 8.9802L6.2625 10.9667C6.07945 11.1497 6.07945 11.4465 6.2625 11.6296L11.814 17.181C11.997 17.3642 12.2939 17.3641 12.4769 17.181L14.4633 15.1946C14.5277 15.1302 14.6132 15.0949 14.7042 15.0949C14.7952 15.0949 14.8807 15.1302 14.945 15.1946L17.5359 17.7855C18.4616 18.7111 18.4616 20.2172 17.536 21.1428Z" fill="#70768A"/>
<path d="M16.5001 4.42432C16.2412 4.42432 16.0314 4.63418 16.0314 4.89307C16.0314 5.15196 16.2412 5.36182 16.5001 5.36182C18.5372 5.36182 20.1945 7.01908 20.1945 9.05618C20.1945 9.31507 20.4043 9.52493 20.6632 9.52493C20.9221 9.52493 21.132 9.31507 21.132 9.05618C21.132 6.50219 19.0542 4.42432 16.5001 4.42432Z" fill="#70768A"/>
<path d="M16.5001 7.55591C17.3273 7.55591 18.0004 8.22889 18.0004 9.05614C18.0004 9.31503 18.2102 9.52489 18.4691 9.52489C18.728 9.52489 18.9379 9.31503 18.9379 9.05614C18.9379 7.71196 17.8443 6.61841 16.5001 6.61841C16.2412 6.61841 16.0314 6.82827 16.0314 7.08716C16.0314 7.34605 16.2412 7.55591 16.5001 7.55591Z" fill="#70768A"/>
<path d="M16.5 9.52515C16.2411 9.52515 16.0312 9.31529 16.0312 9.0564C16.0312 8.79751 16.2411 8.58765 16.5 8.58765C16.7589 8.58765 16.9688 8.79751 16.9688 9.0564C16.9688 9.31529 16.7589 9.52515 16.5 9.52515Z" fill="#70768A"/>
</g>
<defs>
<clipPath id="clip0">
<rect width="24" height="24" fill="white" transform="translate(0 0.5)"/>
</clipPath>
</defs>
</svg>
