<svg width="24" height="25" viewBox="0 0 24 25" fill="none" xmlns="http://www.w3.org/2000/svg">
<g clip-path="url(#clip0)">
<path d="M22.0251 7.98444C22.1132 7.8965 22.1627 7.77716 22.1627 7.6527C22.1627 7.52825 22.1132 7.40891 22.0251 7.32097L19.5288 4.82905C19.3458 4.64642 19.0494 4.64642 18.8664 4.82905L17.5829 6.11023C16.4357 5.34252 15.1475 4.82352 13.7858 4.58122C14.1881 4.14744 14.4343 3.56736 14.4343 2.93089C14.4343 1.5905 13.3423 0.5 11.9999 0.5C10.6576 0.5 9.56553 1.5905 9.56553 2.93089C9.56553 3.56731 9.81172 4.14744 10.214 4.58122C8.85238 4.82352 7.56416 5.34252 6.41694 6.11023L5.13345 4.82905C4.95045 4.64642 4.65411 4.64642 4.47111 4.82905L1.97474 7.32097C1.88666 7.40891 1.83716 7.52825 1.83716 7.6527C1.83716 7.77716 1.88666 7.8965 1.97474 7.98444L3.34222 9.34953C2.43111 10.8811 1.94502 12.6343 1.94502 14.4621C1.94502 17.1435 2.99099 19.6643 4.89031 21.5603C6.78941 23.456 9.31433 24.5 11.9999 24.5C14.6855 24.5 17.2105 23.456 19.1095 21.5603C21.0088 19.6644 22.0548 17.1435 22.0548 14.4621C22.0548 12.6343 21.5687 10.8811 20.6576 9.34948L22.0251 7.98444ZM19.1976 5.82312L21.0305 7.6527L20.1298 8.55181C19.8237 8.13406 19.4831 7.73698 19.1095 7.36405C18.8648 7.11978 18.6096 6.88963 18.3451 6.67405L19.1976 5.82312ZM11.9999 1.4375C12.8253 1.4375 13.4968 2.10744 13.4968 2.93089C13.4968 3.59108 13.0652 4.15259 12.4687 4.34928V3.266C12.4687 3.00716 12.2588 2.79725 11.9999 2.79725C11.741 2.79725 11.5312 3.00716 11.5312 3.266V4.34928C10.9347 4.15259 10.503 3.59108 10.503 2.93089C10.503 2.10744 11.1746 1.4375 11.9999 1.4375ZM2.96942 7.6527L4.80228 5.82312L5.65475 6.67405C5.39024 6.88963 5.1351 7.11973 4.89036 7.36405C4.51677 7.73698 4.17622 8.13411 3.87013 8.55181L2.96942 7.6527ZM11.9999 23.5625C6.97255 23.5625 2.88252 19.4801 2.88252 14.4621C2.88252 9.44417 6.97255 5.36183 11.9999 5.36183C17.0273 5.36183 21.1174 9.44422 21.1174 14.4622C21.1174 19.4802 17.0273 23.5625 11.9999 23.5625Z" fill="#70768A"/>
<path d="M12 21.6211C15.9607 21.6211 19.1716 18.416 19.1716 14.4623C19.1716 10.5086 15.9607 7.30347 12 7.30347C8.0392 7.30347 4.82837 10.5086 4.82837 14.4623C4.82837 18.416 8.0392 21.6211 12 21.6211Z" fill="#E8CDC8"/>
<path d="M11.9999 9.67942C11.741 9.67942 11.5311 9.46952 11.5311 9.21067V9.05078C11.5311 8.79189 11.741 8.58203 11.9999 8.58203C12.2588 8.58203 12.4686 8.79189 12.4686 9.05078V9.21067C12.4686 9.46956 12.2588 9.67942 11.9999 9.67942Z" fill="#70768A"/>
<path d="M11.9999 20.3425C11.741 20.3425 11.5311 20.1326 11.5311 19.8738V19.7139C11.5311 19.455 11.741 19.2451 11.9999 19.2451C12.2588 19.2451 12.4686 19.455 12.4686 19.7139V19.8738C12.4686 20.1326 12.2588 20.3425 11.9999 20.3425Z" fill="#70768A"/>
<path d="M17.4115 14.9312H17.2516C16.9927 14.9312 16.7828 14.7212 16.7828 14.4624C16.7828 14.2036 16.9927 13.9937 17.2516 13.9937H17.4115C17.6704 13.9937 17.8803 14.2036 17.8803 14.4624C17.8803 14.7213 17.6704 14.9312 17.4115 14.9312Z" fill="#70768A"/>
<path d="M6.74832 14.9312H6.58838C6.32949 14.9312 6.11963 14.7212 6.11963 14.4624C6.11963 14.2036 6.32949 13.9937 6.58838 13.9937H6.74832C7.00721 13.9937 7.21707 14.2036 7.21707 14.4624C7.21707 14.7213 7.00721 14.9312 6.74832 14.9312Z" fill="#70768A"/>
<path d="M15.7135 11.2176C15.5935 11.2176 15.4735 11.1718 15.382 11.0803C15.199 10.8972 15.199 10.6004 15.382 10.4173L15.4951 10.3042C15.6781 10.1212 15.975 10.1212 16.158 10.3042C16.3411 10.4873 16.3411 10.7841 16.158 10.9672L16.045 11.0803C15.9534 11.1718 15.8334 11.2176 15.7135 11.2176Z" fill="#70768A"/>
<path d="M8.17345 18.7576C8.0535 18.7576 7.9335 18.7118 7.842 18.6203C7.65895 18.4372 7.65895 18.1404 7.842 17.9573L7.95506 17.8443C8.13811 17.6613 8.43492 17.6613 8.61801 17.8443C8.80106 18.0273 8.80106 18.3241 8.61801 18.5072L8.50495 18.6203C8.4134 18.7118 8.2934 18.7576 8.17345 18.7576Z" fill="#70768A"/>
<path d="M15.8265 18.7576C15.7066 18.7576 15.5866 18.7118 15.4951 18.6203L15.382 18.5072C15.199 18.3242 15.199 18.0274 15.382 17.8443C15.5651 17.6613 15.8619 17.6613 16.045 17.8443L16.158 17.9573C16.3411 18.1404 16.3411 18.4372 16.158 18.6203C16.0665 18.7118 15.9465 18.7576 15.8265 18.7576Z" fill="#70768A"/>
<path d="M8.28651 11.2176C8.16656 11.2176 8.04656 11.1718 7.95506 11.0803L7.842 10.9672C7.65895 10.7841 7.65895 10.4873 7.842 10.3042C8.02504 10.1212 8.32186 10.1212 8.50495 10.3042L8.61801 10.4173C8.80106 10.6004 8.80106 10.8972 8.61801 11.0803C8.52647 11.1718 8.40647 11.2176 8.28651 11.2176Z" fill="#70768A"/>
<path d="M14.8035 13.9232H13.6186C13.4622 13.4075 13.0547 13 12.539 12.8435V11.376C12.539 11.1171 12.3291 10.9072 12.0702 10.9072C11.8113 10.9072 11.6015 11.1171 11.6015 11.376V12.8435C10.9373 13.045 10.4525 13.6629 10.4525 14.3919C10.4525 15.2839 11.1782 16.0096 12.0702 16.0096C12.7993 16.0096 13.4172 15.5248 13.6186 14.8607H14.8035C15.0624 14.8607 15.2723 14.6508 15.2723 14.3919C15.2723 14.1331 15.0624 13.9232 14.8035 13.9232ZM12.0702 15.0721C11.6952 15.0721 11.39 14.767 11.39 14.3919C11.39 14.0169 11.6951 13.7118 12.0702 13.7118C12.4453 13.7118 12.7504 14.0169 12.7504 14.3919C12.7504 14.767 12.4453 15.0721 12.0702 15.0721Z" fill="#70768A"/>
</g>
<defs>
<clipPath id="clip0">
<rect width="24" height="24" fill="white" transform="translate(0 0.5)"/>
</clipPath>
</defs>
</svg>
