<svg width="245" height="88" viewBox="0 0 245 88" fill="none" xmlns="http://www.w3.org/2000/svg">
<path fill-rule="evenodd" clip-rule="evenodd" d="M135.072 58.4363H129.773L130.464 54.8272C129.773 55.2879 129.005 55.8255 128.314 56.2862C127.623 56.7469 126.855 57.2077 126.087 57.6684C125.319 58.0524 124.475 58.4363 123.553 58.6667C122.632 58.897 121.633 59.0506 120.558 59.0506C119.483 59.0506 118.639 58.897 117.871 58.5131C117.103 58.2059 116.489 57.7452 115.951 57.1309C115.49 56.5166 115.183 55.8255 115.03 55.0576C114.876 54.2129 114.876 53.3682 115.106 52.4468C115.337 51.2949 115.721 50.2967 116.412 49.3752C117.026 48.4537 117.794 47.6091 118.716 46.918C119.637 46.2269 120.712 45.5358 121.864 44.9983C123.016 44.4607 124.244 43.9232 125.473 43.4625C126.702 43.0017 128.007 42.6178 129.312 42.3106C130.618 41.9267 131.923 41.6195 133.152 41.3124L133.459 39.623C133.689 38.3944 133.766 37.3962 133.689 36.5515C133.613 35.7068 133.382 35.0157 133.075 34.555C132.691 34.0174 132.23 33.7103 131.693 33.4799C131.079 33.2496 130.387 33.1728 129.62 33.1728C128.698 33.1728 128.007 33.3264 127.393 33.5567C126.778 33.7871 126.318 34.0942 125.857 34.4782C125.473 34.8621 125.166 35.3229 124.935 35.7836C124.705 36.2443 124.551 36.7818 124.475 37.2426C124.398 37.7033 124.244 38.1641 124.091 38.548C123.937 39.0087 123.707 39.3159 123.476 39.6998C123.246 40.007 122.862 40.3141 122.555 40.4677C122.171 40.6981 121.71 40.7749 121.173 40.7749C120.789 40.7749 120.405 40.6981 120.098 40.5445C119.791 40.3909 119.56 40.1605 119.33 39.8534C119.099 39.5462 119.023 39.2391 118.946 38.8551C118.869 38.4712 118.869 38.0873 119.023 37.6265C119.176 36.7818 119.637 35.9372 120.328 35.1693C121.019 34.4014 121.941 33.7871 123.016 33.1728C124.091 32.6353 125.319 32.1745 126.702 31.8674C128.084 31.5602 129.466 31.4066 130.925 31.4066C132.691 31.4066 134.15 31.5602 135.225 31.9442C136.377 32.2513 137.222 32.7888 137.836 33.4031C138.45 34.0174 138.834 34.7853 138.988 35.63C139.141 36.4747 139.141 37.473 138.911 38.548L135.072 58.4363ZM132.768 43.0017C131.923 43.2321 131.155 43.5393 130.234 43.8464C129.389 44.1536 128.468 44.5375 127.623 44.9215C126.778 45.3054 125.934 45.7661 125.166 46.1501C124.398 46.6108 123.63 47.0715 123.016 47.6091C122.401 48.1466 121.864 48.6841 121.403 49.2216C120.942 49.836 120.712 50.3735 120.558 51.0646C120.405 51.6789 120.405 52.2932 120.558 52.9075C120.712 53.5218 120.866 53.9825 121.25 54.4433C121.557 54.904 121.941 55.2112 122.401 55.5183C122.862 55.7487 123.4 55.9023 123.937 55.9023C124.551 55.9023 125.089 55.8255 125.703 55.6719C126.241 55.5183 126.855 55.288 127.393 55.0576C127.93 54.8272 128.544 54.5201 129.082 54.1361C129.62 53.7522 130.234 53.3682 130.848 52.9843L132.768 43.0017ZM150.813 57.2077C151.504 57.2077 152.195 57.1309 152.887 56.9005C153.578 56.6702 154.115 56.363 154.653 56.0558C155.19 55.6719 155.574 55.2879 155.958 54.8272C156.265 54.3665 156.496 53.829 156.649 53.3682C156.803 52.5236 156.726 51.8325 156.419 51.2182C156.112 50.6038 155.728 50.0663 155.113 49.6056C154.576 49.1449 153.885 48.6841 153.117 48.3002C152.349 47.9162 151.581 47.5323 150.736 47.0715C149.969 46.6876 149.124 46.2269 148.356 45.6894C147.588 45.2286 146.974 44.6143 146.36 44C145.822 43.3857 145.438 42.6178 145.208 41.7731C144.977 40.9284 144.977 39.9302 145.208 38.7784C145.438 37.7033 145.822 36.7051 146.436 35.7836C147.051 34.8621 147.818 34.0942 148.74 33.4031C149.661 32.712 150.736 32.2513 151.888 31.8674C153.04 31.4834 154.346 31.3298 155.651 31.3298C156.496 31.3298 157.34 31.4066 158.108 31.4834C158.876 31.637 159.567 31.8674 160.258 32.1745C160.949 32.5585 161.564 33.0192 162.178 33.6335C162.792 34.2478 163.407 35.0925 163.944 36.1675L161.64 37.9337C160.949 36.3211 160.028 35.0925 158.953 34.2478C157.878 33.4031 156.572 33.0192 155.19 33.0192C154.422 33.0192 153.731 33.096 153.117 33.3263C152.426 33.4799 151.888 33.7871 151.351 34.0942C150.813 34.4014 150.429 34.7853 150.122 35.2461C149.815 35.7068 149.585 36.0908 149.508 36.6283C149.354 37.3962 149.431 38.0873 149.738 38.7016C150.045 39.3159 150.583 39.8534 151.197 40.3141C151.812 40.7749 152.579 41.2356 153.424 41.6196C154.269 42.0035 155.113 42.4642 156.035 42.8482C156.956 43.2321 157.801 43.6928 158.646 44.2304C159.49 44.6911 160.181 45.2286 160.796 45.9197C161.41 46.534 161.871 47.3019 162.101 48.1466C162.408 48.9913 162.408 49.9127 162.178 51.0646C161.948 52.2164 161.564 53.2147 160.949 54.2129C160.335 55.2112 159.567 56.0558 158.569 56.7469C157.571 57.438 156.419 58.0524 155.037 58.4363C153.654 58.8202 152.119 59.0506 150.429 59.0506C149.661 59.0506 148.894 58.9738 148.049 58.897C147.281 58.7435 146.513 58.5131 145.745 58.2059C144.977 57.822 144.209 57.3612 143.518 56.6701C142.827 56.0558 142.136 55.2112 141.599 54.1361L144.133 52.2164C144.593 53.1379 145.054 53.9058 145.515 54.5201C145.976 55.1344 146.513 55.6719 146.974 56.0558C147.511 56.4398 148.049 56.747 148.663 56.9773C149.354 57.1309 150.045 57.2077 150.813 57.2077ZM174.771 57.2077C175.462 57.2077 176.154 57.1309 176.845 56.9005C177.536 56.6702 178.073 56.363 178.611 56.0558C179.148 55.6719 179.532 55.2879 179.916 54.8272C180.223 54.3665 180.454 53.829 180.607 53.3682C180.761 52.5236 180.684 51.8325 180.377 51.2182C180.07 50.6038 179.686 50.0663 179.072 49.6056C178.534 49.1449 177.843 48.6841 177.075 48.3002C176.307 47.9162 175.539 47.5323 174.695 47.0715C173.927 46.6876 173.082 46.2269 172.314 45.6894C171.546 45.2286 170.932 44.6143 170.318 44C169.78 43.3857 169.396 42.6178 169.166 41.7731C168.935 40.9284 168.935 39.9302 169.166 38.7784C169.396 37.7033 169.78 36.7051 170.394 35.7836C171.009 34.8621 171.777 34.0942 172.698 33.4031C173.62 32.712 174.695 32.2513 175.846 31.8674C176.998 31.4834 178.304 31.3298 179.609 31.3298C180.454 31.3298 181.298 31.4066 182.066 31.4834C182.834 31.637 183.525 31.8674 184.216 32.1745C184.907 32.5585 185.522 33.0192 186.136 33.6335C186.75 34.2478 187.365 35.0925 187.902 36.1675L185.599 37.9337C184.908 36.3211 183.986 35.0925 182.911 34.2478C181.836 33.4031 180.531 33.0192 179.148 33.0192C178.38 33.0192 177.689 33.096 177.075 33.3263C176.384 33.4799 175.846 33.7871 175.309 34.0942C174.771 34.4014 174.387 34.7853 174.08 35.2461C173.773 35.7068 173.543 36.0908 173.466 36.6283C173.312 37.3962 173.389 38.0873 173.696 38.7016C174.003 39.3159 174.541 39.8534 175.155 40.3141C175.77 40.7749 176.538 41.2356 177.382 41.6196C178.227 42.0035 179.072 42.4642 179.993 42.8482C180.914 43.2321 181.759 43.6928 182.604 44.2304C183.449 44.6911 184.14 45.2286 184.754 45.9197C185.368 46.534 185.829 47.3019 186.059 48.1466C186.366 48.9913 186.366 49.9127 186.136 51.0646C185.906 52.2164 185.522 53.2147 184.908 54.2129C184.293 55.2112 183.525 56.0558 182.527 56.7469C181.529 57.438 180.377 58.0524 178.995 58.4363C177.613 58.8202 176.077 59.0506 174.387 59.0506C173.62 59.0506 172.852 58.9738 172.007 58.897C171.239 58.7435 170.471 58.5131 169.703 58.2059C168.935 57.822 168.168 57.3612 167.476 56.6701C166.785 56.0558 166.094 55.2112 165.557 54.1361L168.091 52.2164C168.551 53.1379 169.012 53.9058 169.473 54.5201C169.934 55.1344 170.471 55.6719 170.932 56.0558C171.469 56.4398 172.007 56.747 172.621 56.9773C173.389 57.1309 174.003 57.2077 174.771 57.2077ZM195.274 32.8656L199.267 31.3298H200.803L195.504 58.4363H190.283L195.274 32.8656ZM210.709 57.2077C211.4 57.2077 212.091 57.1309 212.782 56.9005C213.473 56.6702 214.01 56.363 214.548 56.0558C215.085 55.6719 215.469 55.2879 215.853 54.8272C216.161 54.3665 216.391 53.829 216.545 53.3682C216.698 52.5236 216.621 51.8325 216.314 51.2182C216.007 50.6038 215.623 50.0663 215.009 49.6056C214.471 49.1449 213.78 48.6841 213.012 48.3002C212.244 47.9162 211.476 47.5323 210.632 47.0715C209.864 46.6876 209.019 46.2269 208.251 45.6894C207.483 45.2286 206.869 44.6143 206.255 44C205.717 43.3857 205.333 42.6178 205.103 41.7731C204.873 40.9284 204.873 39.9302 205.103 38.7784C205.333 37.7033 205.717 36.7051 206.332 35.7836C206.946 34.8621 207.714 34.0942 208.635 33.4031C209.557 32.712 210.632 32.2513 211.784 31.8674C212.935 31.4834 214.241 31.3298 215.546 31.3298C216.391 31.3298 217.236 31.4066 218.003 31.4834C218.771 31.637 219.462 31.8674 220.154 32.1745C220.845 32.5585 221.459 33.0192 222.073 33.6335C222.688 34.2478 223.302 35.0925 223.839 36.1675L221.536 37.9337C220.845 36.3211 219.923 35.0925 218.848 34.2478C217.773 33.4031 216.468 33.0192 215.086 33.0192C214.318 33.0192 213.627 33.096 213.012 33.3263C212.321 33.4799 211.784 33.7871 211.246 34.0942C210.709 34.4014 210.325 34.7853 210.017 35.2461C209.71 35.7068 209.48 36.0908 209.403 36.6283C209.25 37.3962 209.326 38.0873 209.634 38.7016C209.941 39.3159 210.478 39.8534 211.092 40.3141C211.707 40.7749 212.475 41.2356 213.319 41.6196C214.164 42.0035 215.009 42.4642 215.93 42.8482C216.852 43.2321 217.696 43.6928 218.541 44.2304C219.386 44.6911 220.077 45.2286 220.691 45.9197C221.305 46.534 221.766 47.3019 221.996 48.1466C222.304 48.9913 222.304 49.9127 222.073 51.0646C221.843 52.2164 221.459 53.2147 220.845 54.2129C220.23 55.2112 219.462 56.0558 218.464 56.7469C217.466 57.438 216.314 58.0524 214.932 58.4363C213.55 58.8202 212.014 59.0506 210.325 59.0506C209.557 59.0506 208.789 58.9738 207.944 58.897C207.176 58.7435 206.408 58.5131 205.64 58.2059C204.873 57.822 204.105 57.3612 203.414 56.6701C202.722 56.0558 202.031 55.2112 201.494 54.1361L204.028 52.2164C204.489 53.1379 204.949 53.9058 205.41 54.5201C205.871 55.1344 206.408 55.6719 206.869 56.0558C207.407 56.4398 207.944 56.747 208.558 56.9773C209.25 57.1309 209.941 57.2077 210.709 57.2077ZM240.733 55.0576C239.812 56.2862 238.66 57.2077 237.354 57.9756C236.049 58.6667 234.513 59.0506 232.824 59.0506C231.902 59.0506 231.211 58.897 230.597 58.5899C229.983 58.2827 229.522 57.8988 229.215 57.3613C228.908 56.8237 228.677 56.1326 228.677 55.4415C228.6 54.6737 228.677 53.829 228.831 52.9075L232.44 34.171H227.832L228.063 32.8656C229.522 32.8656 230.827 32.6352 231.902 32.0977C232.977 31.5602 233.899 30.8691 234.667 29.9476C235.435 29.0262 236.126 27.9511 236.74 26.7993C237.354 25.5707 237.892 24.3421 238.429 22.9599H239.965L238.199 32.021H244.188L243.728 34.2478H237.738L234.129 52.9843C234.052 53.3682 234.052 53.7522 234.129 54.1361C234.206 54.5201 234.36 54.7504 234.59 55.0576C234.82 55.288 235.051 55.5183 235.358 55.6719C235.665 55.8255 236.049 55.9023 236.433 55.9023C237.047 55.9023 237.585 55.7487 238.122 55.4415C238.66 55.1344 239.197 54.8272 239.581 54.3665L240.733 55.0576ZM57.1309 0C77.7871 0 94.9878 14.6667 99.4415 34.2478C104.663 32.6353 110.96 30.178 114.415 25.8011C83.8534 75.2531 43.0018 10.0593 3.30193 42.9249C7.6789 37.4729 11.6719 32.4817 16.1257 29.8708C21.9616 12.5166 38.0873 0 57.1309 0ZM89.3822 36.014C85.8499 21.2705 72.719 10.3665 57.1309 10.3665C45.6126 10.3665 35.5532 16.356 29.5637 25.3403C54.4433 23.4974 68.8028 38.9319 89.3822 36.014ZM57.2077 88C76.2513 88 92.4537 75.5602 98.2897 58.2059C102.743 55.5951 106.736 50.6038 111.113 45.1518C71.3368 78.0174 30.4852 12.7469 0 62.2757C3.4555 57.8988 9.75218 55.4415 14.9738 53.829C19.274 73.3333 36.5515 88 57.2077 88ZM24.9564 51.986C28.4887 66.7295 41.6195 77.6335 57.2077 77.6335C68.726 77.6335 78.7853 71.644 84.7749 62.6597C59.8953 64.5794 45.6126 49.0681 24.9564 51.986ZM14.5899 32.1745C35.0157 21.3473 54.7504 37.089 76.9424 38.9319C50.7574 33.7103 34.3246 19.5044 14.5899 32.1745ZM11.8255 49.8359C32.2513 39.0087 51.986 54.7504 74.178 56.5934C47.993 51.3717 31.5602 37.1658 11.8255 49.8359ZM43.1553 79.7068C58.3595 85.466 80.9354 83.623 89.3054 62.8132C76.9424 82.3176 60.8168 82.3176 43.1553 79.7068ZM71.0297 5.45201C55.8255 -0.307151 32.8656 2.76441 24.5724 23.5742C36.9354 3.99303 53.3682 2.84119 71.0297 5.45201ZM199.958 22.8831C200.342 22.8831 200.726 22.9599 201.11 23.1134C201.417 23.267 201.724 23.4206 201.955 23.6509C202.185 23.8813 202.339 24.1885 202.415 24.4956C202.492 24.8028 202.569 25.1867 202.492 25.4939C202.415 25.8778 202.262 26.185 202.031 26.4921C201.801 26.7993 201.494 27.1065 201.187 27.3368C200.88 27.5672 200.496 27.7975 200.112 27.8743C199.728 28.0279 199.344 28.1047 198.883 28.1047C198.499 28.1047 198.115 28.0279 197.731 27.8743C197.424 27.7208 197.117 27.5672 196.887 27.3368C196.656 27.1065 196.503 26.7993 196.426 26.4921C196.349 26.185 196.272 25.8011 196.349 25.4939C196.426 25.11 196.579 24.8028 196.81 24.4956C197.04 24.1885 197.347 23.8813 197.654 23.6509C197.962 23.4206 198.346 23.1902 198.729 23.1134C199.19 22.9599 199.574 22.8831 199.958 22.8831Z" fill="#00692F"/>
</svg>
