<svg width="75" height="75" viewBox="0 0 75 75" fill="none" xmlns="http://www.w3.org/2000/svg">
<g clip-path="url(#clip0)">
<path d="M10.689 12.4336L21.2393 1.88328L26.1192 6.76323L15.5689 17.3136L10.689 12.4336Z" fill="#E8CDC8"/>
<path d="M18.7518 28.4277H56.2485V66.2113H18.7518V28.4277Z" fill="#E8CDC8"/>
<path d="M59.9915 0H31.5858C31.1973 0 30.8247 0.154394 30.55 0.429053L10.3916 20.5873C10.1169 20.8622 9.96252 21.2347 9.96252 21.6231V69.954C9.96252 72.7364 12.2261 74.9998 15.0083 74.9998H59.9913C62.7737 74.9998 65.0371 72.7364 65.0371 69.954V5.0458C65.0373 2.26348 62.7738 0 59.9915 0V0ZM62.1076 69.9542C62.1076 71.1211 61.1584 72.0703 59.9915 72.0703H15.0085C13.8416 72.0703 12.8924 71.1211 12.8924 69.9542V22.23L32.1926 2.92969H59.9915C61.1584 2.92969 62.1076 3.87891 62.1076 5.0458V69.9542Z" fill="#70768A"/>
<path d="M53.3185 10.2539H38.7628C38.3743 10.2539 38.0016 10.4083 37.727 10.683L30.4432 17.9667C30.0242 18.3857 29.899 19.0157 30.1257 19.5631C30.3525 20.1104 30.8866 20.4674 31.4791 20.4674H53.3186C54.1276 20.4674 54.7834 19.8114 54.7834 19.0025V11.7187C54.7833 10.9099 54.1275 10.2539 53.3185 10.2539ZM51.8536 17.5377H35.0155L39.3695 13.1836H51.8536V17.5377Z" fill="#70768A"/>
<path d="M38.2953 33.8861C37.8112 33.5731 37.1886 33.5731 36.7047 33.8861C36.3286 34.1292 27.4955 39.9269 27.4955 47.4488C27.4955 54.9708 36.3286 60.7685 36.7047 61.0117C36.9467 61.1681 37.2234 61.2465 37.5001 61.2465C37.7768 61.2465 38.0533 61.1683 38.2955 61.0117C38.6715 60.7685 47.5047 54.9708 47.5047 47.4488C47.5047 39.9269 38.6714 34.1292 38.2953 33.8861ZM38.9648 56.8087V50.7542L41.7156 48.0031C42.2876 47.4311 42.2876 46.5037 41.7155 45.9315C41.1434 45.3594 40.2157 45.3595 39.6439 45.9317L38.9648 46.6109V43.8586C38.9648 43.0498 38.309 42.3938 37.4999 42.3938C36.6909 42.3938 36.0351 43.0498 36.0351 43.8586V46.6109L35.356 45.9317C34.7841 45.3597 33.8566 45.3598 33.2844 45.9315C32.7124 46.5036 32.7122 47.431 33.2844 48.0031L36.0351 50.7542V56.8142C33.7095 54.8152 30.425 51.3087 30.425 47.4488C30.425 42.6673 35.5026 38.4039 37.5012 36.911C39.5019 38.4008 44.5748 42.6519 44.5748 47.4488C44.5748 51.2945 41.2904 54.8051 38.9648 56.8087Z" fill="#70768A"/>
</g>
<defs>
<clipPath id="clip0">
<rect width="75" height="75" fill="white"/>
</clipPath>
</defs>
</svg>
