<svg width="75" height="75" viewBox="0 0 75 75" fill="none" xmlns="http://www.w3.org/2000/svg">
<path d="M53.7247 74.9998H22.7371C22.0047 74.9998 21.3847 74.4588 21.2857 73.7332L18.5861 53.9668C18.4767 53.1653 19.0378 52.4267 19.8393 52.3173C20.6412 52.2083 21.3795 52.7689 21.4889 53.5704L24.0154 72.0701H52.4462L54.9727 53.5704C55.0822 52.7687 55.8197 52.2083 56.6224 52.3173C57.424 52.4268 57.985 53.1654 57.8756 53.9668L55.1761 73.7332C55.0769 74.4588 54.4571 74.9998 53.7247 74.9998Z" fill="#70768A"/>
<path d="M63.7363 23.8131C63.6153 23.2495 63.1751 22.8093 62.6116 22.6883C62.1816 22.5962 52.025 20.4881 46.8005 25.7134C42.2013 30.3129 43.284 38.7344 43.672 40.9784L38.9649 45.8067V30.5694C41.2937 28.905 48.7749 22.9856 48.7749 15.632C48.7749 7.10841 38.7233 0.51134 38.2954 0.234778C37.8113 -0.0782593 37.1888 -0.0782593 36.7048 0.234778C36.2769 0.511487 26.2253 7.10856 26.2253 15.632C26.2253 22.9854 33.7065 28.905 36.0353 30.5694V45.8067L31.3279 40.9782C31.716 38.7342 32.7985 30.3129 28.1994 25.7134C22.9749 20.4881 12.8183 22.5961 12.3884 22.6883C11.8248 22.8093 11.3846 23.2495 11.2637 23.8131C11.1714 24.2428 9.06375 34.4005 14.2883 39.6257C17.146 42.484 21.4795 43.148 24.8896 43.148C26.6159 43.148 28.1055 42.9778 29.0473 42.836L35.7123 49.6724C35.6937 50.0759 35.841 50.4852 36.153 50.7895C36.4377 51.0672 36.8067 51.2055 37.1754 51.2055C37.2844 51.2055 37.3934 51.1933 37.5002 51.1692C37.607 51.1933 37.716 51.2055 37.8249 51.2055C38.1936 51.2055 38.5625 51.0672 38.8472 50.7895C39.1593 50.4854 39.3066 50.0759 39.2879 49.6724L45.9528 42.836C46.8945 42.9778 48.384 43.148 50.1104 43.148C53.5203 43.148 57.8542 42.4837 60.7118 39.6257C65.9363 34.4005 63.8286 24.2428 63.7363 23.8131ZM29.1548 15.632C29.1548 9.93688 35.2754 4.89913 37.5 3.2566C39.7254 4.89987 45.8452 9.93732 45.8452 15.632C45.8452 20.3346 41.6719 24.589 38.9649 26.8539V19.339L42.1887 16.1149C42.7607 15.5427 42.7607 14.6153 42.1886 14.0433C41.6167 13.4713 40.689 13.4713 40.117 14.0433L38.9649 15.1955V11.5079C38.9649 10.6989 38.3089 10.0431 37.5 10.0431C36.691 10.0431 36.0352 10.6989 36.0352 11.5079V15.1957L34.8831 14.0434C34.3111 13.4715 33.3837 13.4713 32.8115 14.0434C32.2395 14.6154 32.2393 15.5428 32.8114 16.115L36.0352 19.339V26.8586C33.3282 24.5988 29.1548 20.3496 29.1548 15.632ZM16.36 37.5542C13.065 34.2587 13.6156 27.8241 13.9661 25.3907C16.4012 25.04 22.8336 24.4901 26.1277 27.7848C28.8304 30.4878 28.9458 35.3029 28.7066 38.2895L25.4614 34.9608V31.0135C25.4614 30.2045 24.8055 29.5486 23.9965 29.5486C23.1875 29.5486 22.5317 30.2045 22.5317 31.0135V31.9558L19.8043 29.1583C19.2396 28.5789 18.3122 28.5672 17.7328 29.1319C17.1536 29.6966 17.1418 30.6241 17.7066 31.2033L20.3917 33.9575H19.5879C18.7789 33.9575 18.1231 34.6133 18.1231 35.4224C18.1231 36.2314 18.7789 36.8872 19.5879 36.8872H23.2478L26.446 40.1677C23.4479 40.3639 18.9488 40.1431 16.36 37.5542ZM58.6401 37.5542C56.0609 40.1333 51.5592 40.3564 48.558 40.1636L51.7521 36.8874H55.412C56.2209 36.8874 56.8768 36.2316 56.8768 35.4225C56.8768 34.6135 56.2209 33.9577 55.412 33.9577H54.6082L57.2933 31.2035C57.858 30.6241 57.8463 29.6967 57.2669 29.132C56.6877 28.5672 55.7603 28.5791 55.1955 29.1584L52.4683 31.9558V31.0136C52.4683 30.2046 51.8123 29.5488 51.0034 29.5488C50.1945 29.5488 49.5386 30.2046 49.5386 31.0136V34.961L46.2933 38.2897C46.054 35.3024 46.1696 30.4878 48.8721 27.7851C52.1671 24.4897 58.6007 25.0406 61.0335 25.391C61.3845 27.8256 61.9347 34.2591 58.6401 37.5542Z" fill="#70768A"/>
<path d="M14.4404 45.9619H60.5596V56.4684H14.4404V45.9619Z" fill="#E8CDC8"/>
</svg>
