<svg width="75" height="75" viewBox="0 0 75 75" fill="none" xmlns="http://www.w3.org/2000/svg">
<g clip-path="url(#clip0)">
<path d="M59.3698 44.3876C67.3126 36.4448 67.3126 23.5669 59.3698 15.6241C51.427 7.68131 38.5492 7.68131 30.6063 15.6241C22.6635 23.5669 22.6635 36.4448 30.6063 44.3876C38.5492 52.3304 51.427 52.3304 59.3698 44.3876Z" fill="#E8CDC8"/>
<path d="M66.2126 8.78786C60.5457 3.121 53.0111 0 44.9967 0C36.9823 0 29.4477 3.121 23.7808 8.78786C18.1138 14.4547 14.993 21.9894 14.993 30.0037C14.993 36.1975 16.8571 42.1047 20.3197 47.0846L16.7578 50.6466L14.1212 48.01C13.549 47.4381 12.6217 47.4381 12.0494 48.01L6.9112 53.1485C6.33915 53.7205 6.33915 54.6481 6.9112 55.2202L7.83483 56.1438L2.27973 61.6989C-0.758934 64.7376 -0.758934 69.6821 2.27973 72.7209C3.79914 74.2402 5.79494 75 7.79073 75C9.78653 74.9999 11.7823 74.2403 13.3017 72.7209L18.8568 67.1658L19.7805 68.0894C20.3526 68.6613 21.2799 68.6613 21.8523 68.0894L26.9905 62.9512C27.5625 62.3792 27.5625 61.4516 26.9905 60.8794L24.3539 58.2429L27.916 54.6808C32.896 58.1435 38.8032 60.0075 44.9969 60.0075C53.0113 60.0075 60.5459 56.8865 66.2128 51.2196C71.8798 45.5526 75.0006 38.0181 75.0006 30.0037C75.0006 21.9894 71.8796 14.4549 66.2126 8.78786ZM20.8163 64.9818L19.8927 64.0581C19.3205 63.4862 18.3932 63.4862 17.8208 64.0581L11.2299 70.6491C9.33372 72.5454 6.24789 72.5455 4.35141 70.6491C2.45508 68.7527 2.45508 65.6669 4.35141 63.7706L10.9423 57.1796C11.5144 56.6076 11.5144 55.68 10.9423 55.1078L10.0187 54.1842L13.0852 51.1177L23.8826 61.9151L20.8163 64.9818ZM22.2819 56.171L18.8294 52.7185L22.1233 49.4247C22.6488 50.0416 23.2015 50.6404 23.7808 51.2198C24.3602 51.7992 24.9591 52.3517 25.5759 52.8773L22.2819 56.171ZM64.1409 49.148C59.0274 54.2615 52.2286 57.0778 44.9967 57.0778C37.7649 57.0778 30.9662 54.2615 25.8525 49.148C20.7389 44.0344 17.9227 37.2356 17.9227 30.0037C17.9227 22.7719 20.7389 15.9733 25.8525 10.8595C30.9662 5.74612 37.765 2.92982 44.9967 2.92982C52.2284 2.92982 59.0272 5.74612 64.1409 10.8597C69.2545 15.9733 72.0708 22.7721 72.0708 30.0039C72.0708 37.2357 69.2545 44.0344 64.1409 49.148Z" fill="#70768A"/>
<path d="M54.6512 18.9741C54.2152 18.8808 43.915 16.7429 38.619 22.0394C33.8589 26.7999 35.1041 35.6039 35.4728 37.6532L34.1242 39.0535C33.5629 39.6364 33.5803 40.5636 34.1631 41.1248C34.4474 41.3986 34.8135 41.5347 35.1793 41.5347C35.5634 41.5347 35.947 41.3846 36.2344 41.086L37.8563 39.4021C38.8156 39.5425 40.2788 39.7024 41.9646 39.7024C45.4221 39.7024 49.8155 39.029 52.7113 36.1327C58.0071 30.8362 55.8697 20.5348 55.7761 20.099C55.6549 19.5353 55.2147 19.0951 54.6512 18.9741ZM50.6394 34.0613C48.0305 36.6705 43.4902 36.9103 40.4389 36.7203L43.6888 33.346H47.3462C48.1552 33.346 48.8112 32.69 48.8112 31.8811C48.8112 31.072 48.1552 30.4162 47.3462 30.4162H46.5107L49.2465 27.5756C49.8079 26.9927 49.7905 26.0654 49.2077 25.5042C48.625 24.9429 47.6974 24.9603 47.1363 25.543L44.3353 28.4513V27.4046C44.3353 26.5956 43.6793 25.9397 42.8704 25.9397C42.0613 25.9397 41.4054 26.5956 41.4054 27.4046V31.4934L38.0789 34.9472C37.8198 31.924 37.8942 26.9077 40.6907 24.1109C44.0512 20.75 50.6158 21.3203 53.0754 21.6767C53.435 24.1357 54.0109 30.6893 50.6394 34.0613Z" fill="#70768A"/>
</g>
<defs>
<clipPath id="clip0">
<rect width="75" height="75" fill="white"/>
</clipPath>
</defs>
</svg>
