<svg width="75" height="75" viewBox="0 0 75 75" fill="none" xmlns="http://www.w3.org/2000/svg">
<g clip-path="url(#clip0)">
<path d="M62.8812 42.1956C62.7598 41.6321 62.3191 41.1922 61.7553 41.0718C61.1807 40.949 47.6048 38.1435 40.6825 45.0371C39.2329 46.4806 38.2102 48.2145 37.5002 50.0592C36.7901 48.2145 35.7675 46.4806 34.3178 45.0371C27.3951 38.1435 13.8191 40.9489 13.245 41.0718C12.6812 41.1923 12.2405 41.6322 12.1191 42.1956C11.9956 42.7681 9.17667 56.2947 16.1033 63.1922C19.8756 66.9487 25.6225 67.8249 30.1658 67.8249C32.6612 67.8249 34.7934 67.5604 36.0352 67.3634V73.5355C36.0352 74.3445 36.6911 75.0003 37.5 75.0003C38.309 75.0003 38.9649 74.3445 38.9649 73.5355V67.3635C40.2065 67.5605 42.3385 67.8251 44.8342 67.8251C49.3773 67.8251 55.1249 66.9484 58.8968 63.1924C65.8235 56.2947 63.0046 42.7679 62.8812 42.1956ZM18.1707 61.1162C13.3236 56.2897 14.3397 46.8034 14.8144 43.7693C17.8604 43.2961 27.3984 42.2811 32.2507 47.1131C35.2134 50.0631 35.9855 54.7541 36.0297 58.6486C36.0268 58.9077 36.0267 59.1632 36.0293 59.4145C36.0147 60.6116 35.9367 61.7116 35.842 62.634L29.227 56.047L29.2266 50.668C29.2266 49.8589 28.5708 49.2031 27.7616 49.2033C26.9527 49.2033 26.2969 49.8592 26.2969 50.6681L26.297 53.1295L22.85 49.6969C22.2766 49.1261 21.3492 49.128 20.7784 49.7013C20.2074 50.2746 20.2094 51.202 20.7828 51.7729L24.2149 55.1905L21.7494 55.1904C21.7493 55.1904 21.7493 55.1904 21.7493 55.1904C20.9402 55.1904 20.2844 55.8462 20.2844 56.6551C20.2844 57.4641 20.9402 58.1199 21.7491 58.1201L27.1572 58.1204L33.7604 64.6957C29.712 65.1072 22.2694 65.1979 18.1707 61.1162ZM56.8298 61.1162C52.7306 65.1982 45.2876 65.1075 41.2398 64.6957L47.8431 58.1204L53.2512 58.1201C54.0601 58.1199 54.7159 57.4641 54.7159 56.6551C54.7159 55.846 54.0599 55.1902 53.2509 55.1904L50.7854 55.1905L54.2175 51.7729C54.7909 51.202 54.7929 50.2745 54.2219 49.7013C53.6511 49.1281 52.7237 49.1262 52.1503 49.6969L48.7033 53.1295L48.7034 50.6681C48.7034 49.8592 48.0476 49.2033 47.2387 49.2033C47.2386 49.2033 47.2386 49.2033 47.2386 49.2033C46.4296 49.2033 45.7737 49.8591 45.7737 50.668L45.7733 56.047L39.1554 62.6369C39.0648 61.7628 38.9892 60.7289 38.9685 59.6038C38.9744 59.2278 38.9745 58.8421 38.9676 58.4488C39.0346 54.598 39.831 50.0193 42.7496 47.1131C47.6032 42.2803 57.1443 43.2967 60.1872 43.7696C60.6655 46.8015 61.6893 56.2771 56.8298 61.1162Z" fill="#70768A"/>
<path d="M42.3844 30.8087C42.3844 33.4994 40.2088 35.6805 37.5252 35.6805C34.8416 35.6805 32.666 33.4994 32.666 30.8087C32.666 28.1181 37.5252 22.998 37.5252 22.998C37.5252 22.998 42.3844 28.1181 42.3844 30.8087Z" fill="#E8CDC8"/>
<path d="M57.0328 15.1349C57.0328 17.8255 54.8572 20.0067 52.1736 20.0067C49.49 20.0067 47.3145 17.8255 47.3145 15.1349C47.3145 12.4443 52.1736 7.32422 52.1736 7.32422C52.1736 7.32422 57.0328 12.4443 57.0328 15.1349Z" fill="#E8CDC8"/>
<path d="M27.7359 15.1349C27.7359 17.8255 25.5604 20.0067 22.8768 20.0067C20.1932 20.0067 18.0176 17.8255 18.0176 15.1349C18.0176 12.4443 22.8768 7.32422 22.8768 7.32422C22.8768 7.32422 27.7359 12.4443 27.7359 15.1349Z" fill="#E8CDC8"/>
</g>
<defs>
<clipPath id="clip0">
<rect width="75" height="75" fill="white"/>
</clipPath>
</defs>
</svg>
