<svg width="75" height="75" viewBox="0 0 75 75" fill="none" xmlns="http://www.w3.org/2000/svg">
<g clip-path="url(#clip0)">
<path d="M63.7361 23.813C63.6151 23.2495 63.1749 22.8093 62.6114 22.6883C62.1816 22.5961 52.0248 20.4881 46.8004 25.7134C42.3849 30.1292 43.2064 38.0679 43.6226 40.6806L38.9647 45.318V30.5693C41.2935 28.905 48.7747 22.9856 48.7747 15.632C48.7747 7.10841 38.7231 0.51134 38.2952 0.234778C37.8111 -0.0782593 37.1885 -0.0782593 36.7046 0.234778C36.2767 0.511487 26.2251 7.10856 26.2251 15.632C26.2251 22.9854 33.7062 28.905 36.0351 30.5693V45.3127L31.3778 40.6772C31.7941 38.0611 32.613 30.1273 28.1994 25.7134C22.9749 20.4881 12.8182 22.5962 12.3883 22.6883C11.8248 22.8093 11.3846 23.2495 11.2636 23.813C11.1713 24.243 9.06354 34.4005 14.2881 39.6257C17.146 42.4839 21.4794 43.148 24.8894 43.148C26.8116 43.148 28.4405 42.937 29.3462 42.7889L36.035 49.4464V56.0143C36.035 56.8233 36.6908 57.4791 37.4998 57.4791C38.3089 57.4791 38.9647 56.8233 38.9647 56.0143V49.4522L45.6567 42.7895C46.563 42.9375 48.19 43.148 50.1102 43.148C53.5201 43.148 57.854 42.4837 60.7116 39.6257C65.9361 34.4005 63.8283 24.2428 63.7361 23.813ZM16.3598 37.5542C13.064 34.258 13.6158 27.821 13.9662 25.3889C16.3977 25.0352 22.8212 24.4779 26.1275 27.7848C28.7554 30.413 28.9372 35.038 28.7254 38.0374L25.461 34.7884V31.0135C25.461 30.2045 24.805 29.5486 23.9962 29.5486C23.1873 29.5486 22.5313 30.2045 22.5313 31.0135V31.8725L19.7885 29.1426C19.2152 28.572 18.2877 28.5739 17.7168 29.1476C17.1461 29.7209 17.1483 30.6485 17.7216 31.2192L20.4731 33.9577H19.5876C18.7785 33.9577 18.1227 34.6135 18.1227 35.4225C18.1227 36.2316 18.7787 36.8874 19.5876 36.8874H23.4165L26.6909 40.1464C23.6943 40.3671 19.0109 40.2055 16.3598 37.5542ZM29.1546 15.632C29.1546 9.93688 35.2752 4.89913 37.4998 3.2566C39.7252 4.89987 45.845 9.93732 45.845 15.632C45.845 20.3346 41.6717 24.589 38.9647 26.8539V19.3391L42.1885 16.115C42.7605 15.5428 42.7605 14.6154 42.1884 14.0434C41.6165 13.4714 40.6888 13.4714 40.1168 14.0434L38.9647 15.1955V11.5079C38.9647 10.6989 38.3089 10.0431 37.4998 10.0431C36.6909 10.0431 36.035 10.6989 36.035 11.5079V15.1957L34.8829 14.0434C34.3113 13.4715 33.3836 13.4713 32.8113 14.0434C32.2391 14.6154 32.2391 15.5428 32.8112 16.115L36.035 19.339V26.8586C33.3281 24.5988 29.1546 20.3496 29.1546 15.632ZM58.6399 37.5542C55.9891 40.2049 51.3073 40.367 48.3111 40.1465L51.5847 36.8872H55.4119C56.2208 36.8872 56.8768 36.2314 56.8768 35.4224C56.8768 34.6133 56.2208 33.9575 55.4119 33.9575H54.5273L57.278 31.2189C57.8513 30.6482 57.8534 29.7206 57.2825 29.1473C56.7118 28.5741 55.7843 28.572 55.2108 29.1427L52.4682 31.8734V31.0135C52.4682 30.2045 51.8122 29.5486 51.0033 29.5486C50.1945 29.5486 49.5385 30.2045 49.5385 31.0135V34.7903L46.2745 38.0401C46.0623 35.0402 46.2435 30.4136 48.8721 27.7848C52.167 24.4894 58.6008 25.0404 61.0336 25.3907C61.3843 27.8256 61.9344 34.2591 58.6399 37.5542Z" fill="#70768A"/>
<path d="M49.5182 65.7022C49.519 65.6406 49.5196 65.5789 49.5196 65.5169C49.5196 58.8241 44.094 53.3984 37.4011 53.3984C31.5333 53.3984 26.6394 57.569 25.5221 63.1077C25.4424 63.1058 25.3626 63.1048 25.2826 63.1048C19.8079 63.1048 15.3699 67.5428 15.3699 73.0175C15.3699 73.191 15.3746 73.3635 15.3833 73.5348H57.6107C57.2334 69.2986 53.7921 65.9438 49.5182 65.7022Z" fill="#E8CDC8"/>
<path d="M66.4477 75H8.55212C7.74324 75 7.08728 74.3442 7.08728 73.5352C7.08728 72.7261 7.74324 72.0703 8.55212 72.0703H66.4477C67.2566 72.0703 67.9126 72.7261 67.9126 73.5352C67.9126 74.3442 67.2568 75 66.4477 75Z" fill="#70768A"/>
</g>
<defs>
<clipPath id="clip0">
<rect width="75" height="75" fill="white"/>
</clipPath>
</defs>
</svg>
