<svg width="52" height="60" viewBox="0 0 52 60" fill="none" xmlns="http://www.w3.org/2000/svg">
<path d="M51.063 18.7111C51.2832 18.4912 51.4069 18.1929 51.4069 17.8818C51.4069 17.5706 51.2832 17.2723 51.063 17.0524L44.822 10.8226C44.3645 10.3661 43.6237 10.3661 43.1662 10.8226L39.9575 14.0256C37.0894 12.1063 33.8689 10.8088 30.4647 10.203C31.4704 9.11859 32.086 7.6684 32.086 6.07723C32.086 2.72625 29.3559 0 26 0C22.6441 0 19.914 2.72625 19.914 6.07723C19.914 7.66828 20.5294 9.11859 21.5352 10.203C18.1311 10.8088 14.9105 12.1063 12.0425 14.0256L8.83376 10.8226C8.37626 10.3661 7.6354 10.3661 7.1779 10.8226L0.936963 17.0524C0.716768 17.2723 0.593018 17.5706 0.593018 17.8818C0.593018 18.1929 0.716768 18.4912 0.936963 18.7111L4.35567 22.1238C2.0779 25.9527 0.862666 30.3359 0.862666 34.9054C0.862666 41.6087 3.47759 47.9108 8.22591 52.6507C12.9736 57.39 19.2859 60 26 60C32.714 60 39.0263 57.39 43.7739 52.6507C48.5222 47.9109 51.1372 41.6087 51.1372 34.9054C51.1372 30.3357 49.9219 25.9527 47.6441 22.1237L51.063 18.7111ZM43.9941 13.3078L48.5763 17.8818L46.3245 20.1295C45.5593 19.0852 44.7079 18.0925 43.7739 17.1601C43.1621 16.5495 42.5242 15.9741 41.8629 15.4351L43.9941 13.3078ZM26 2.34375C28.0634 2.34375 29.7422 4.01859 29.7422 6.07723C29.7422 7.7277 28.6631 9.13148 27.1718 9.6232V6.915C27.1718 6.26789 26.6472 5.74312 26 5.74312C25.3527 5.74312 24.8281 6.26789 24.8281 6.915V9.6232C23.3368 9.13148 22.2577 7.7277 22.2577 6.07723C22.2577 4.01859 23.9365 2.34375 26 2.34375ZM3.42368 17.8818L8.00583 13.3078L10.137 15.4351C9.47571 15.9741 8.83786 16.5493 8.22603 17.1601C7.29204 18.0925 6.44067 19.0853 5.67544 20.1295L3.42368 17.8818ZM26 57.6562C13.4315 57.6562 3.20642 47.4503 3.20642 34.9054C3.20642 22.3604 13.4315 12.1546 26 12.1546C38.5684 12.1546 48.7935 22.3605 48.7935 34.9055C48.7935 47.4504 38.5683 57.6562 26 57.6562Z" fill="#70768A"/>
<path d="M26 52.8028C35.9019 52.8028 43.929 44.79 43.929 34.9058C43.929 25.0215 35.9019 17.0088 26 17.0088C16.0981 17.0088 8.07104 25.0215 8.07104 34.9058C8.07104 44.79 16.0981 52.8028 26 52.8028Z" fill="#E8CDC8"/>
<path d="M26 22.9486C25.3528 22.9486 24.8281 22.4238 24.8281 21.7767V21.377C24.8281 20.7297 25.3528 20.2051 26 20.2051C26.6472 20.2051 27.1719 20.7297 27.1719 21.377V21.7767C27.1719 22.4239 26.6472 22.9486 26 22.9486Z" fill="#70768A"/>
<path d="M26 49.6068C25.3528 49.6068 24.8281 49.082 24.8281 48.4349V48.0352C24.8281 47.388 25.3528 46.8633 26 46.8633C26.6472 46.8633 27.1719 47.388 27.1719 48.0352V48.4349C27.1719 49.082 26.6472 49.6068 26 49.6068Z" fill="#70768A"/>
<path d="M39.5292 36.0781H39.1294C38.4822 36.0781 37.9575 35.5534 37.9575 34.9062C37.9575 34.2591 38.4822 33.7344 39.1294 33.7344H39.5292C40.1765 33.7344 40.7011 34.2591 40.7011 34.9062C40.7011 35.5535 40.1765 36.0781 39.5292 36.0781Z" fill="#70768A"/>
<path d="M12.871 36.0781H12.4712C11.824 36.0781 11.2993 35.5534 11.2993 34.9062C11.2993 34.2591 11.824 33.7344 12.4712 33.7344H12.871C13.5183 33.7344 14.0429 34.2591 14.0429 34.9062C14.0429 35.5535 13.5183 36.0781 12.871 36.0781Z" fill="#70768A"/>
<path d="M35.2837 26.7944C34.9838 26.7944 34.6838 26.6799 34.455 26.4511C33.9974 25.9935 33.9974 25.2515 34.455 24.7938L34.7377 24.5111C35.1953 24.0536 35.9373 24.0536 36.3951 24.5111C36.8527 24.9687 36.8527 25.7107 36.3951 26.1685L36.1124 26.4511C35.8834 26.6799 35.5835 26.7944 35.2837 26.7944Z" fill="#70768A"/>
<path d="M16.4338 45.644C16.1339 45.644 15.8339 45.5295 15.6052 45.3007C15.1476 44.8431 15.1476 44.1011 15.6052 43.6434L15.8878 43.3607C16.3454 42.9032 17.0875 42.9032 17.5452 43.3607C18.0028 43.8183 18.0028 44.5604 17.5452 45.0181L17.2626 45.3007C17.0337 45.5296 16.7337 45.644 16.4338 45.644Z" fill="#70768A"/>
<path d="M35.5663 45.644C35.2664 45.644 34.9664 45.5295 34.7377 45.3007L34.455 45.0181C33.9974 44.5605 33.9974 43.8184 34.455 43.3607C34.9126 42.9032 35.6547 42.9032 36.1124 43.3607L36.3951 43.6434C36.8527 44.101 36.8527 44.843 36.3951 45.3007C36.1661 45.5296 35.8662 45.644 35.5663 45.644Z" fill="#70768A"/>
<path d="M16.7165 26.7944C16.4166 26.7944 16.1166 26.6799 15.8878 26.4511L15.6052 26.1685C15.1476 25.7109 15.1476 24.9688 15.6052 24.5111C16.0628 24.0536 16.8048 24.0536 17.2626 24.5111L17.5452 24.7938C18.0028 25.2514 18.0028 25.9934 17.5452 26.4511C17.3163 26.6799 17.0163 26.7944 16.7165 26.7944Z" fill="#70768A"/>
<path d="M33.0092 33.5584H30.0469C29.6558 32.2692 28.637 31.2504 27.3477 30.8593V27.1904C27.3477 26.5432 26.8231 26.0186 26.1758 26.0186C25.5286 26.0186 25.004 26.5432 25.004 27.1904V30.8593C23.3437 31.3629 22.1316 32.9078 22.1316 34.7303C22.1316 36.9602 23.9459 38.7745 26.1758 38.7745C27.9985 38.7745 29.5433 37.5626 30.0469 35.9021H33.0092C33.6564 35.9021 34.181 35.3774 34.181 34.7303C34.181 34.0832 33.6564 33.5584 33.0092 33.5584ZM26.1758 36.4308C25.2382 36.4308 24.4753 35.6679 24.4753 34.7303C24.4753 33.7927 25.2381 33.0299 26.1758 33.0299C27.1135 33.0299 27.8764 33.7927 27.8764 34.7303C27.8762 35.6679 27.1135 36.4308 26.1758 36.4308Z" fill="#70768A"/>
</svg>
