<svg width="60" height="60" viewBox="0 0 60 60" fill="none" xmlns="http://www.w3.org/2000/svg">
<g clip-path="url(#clip0)">
<path d="M33.8655 57.6562H11.1794V15.5432H17.4233V21.5532C17.4233 22.2005 17.9481 22.7251 18.5952 22.7251C19.2423 22.7251 19.7671 22.2005 19.7671 21.5532V15.5432H35.7701V21.5532C35.7701 22.2005 36.2949 22.7251 36.942 22.7251C37.5891 22.7251 38.1139 22.2005 38.1139 21.5532V15.5432H44.1627V27.8183C44.1627 28.4655 44.6874 28.9902 45.3346 28.9902C45.9817 28.9902 46.5065 28.4655 46.5065 27.8183V14.3713C46.5065 13.7241 45.9817 13.1994 45.3346 13.1994H38.1139V10.295C38.1137 4.61824 33.473 0 27.7685 0C26.4625 0 25.2122 0.242109 24.0606 0.683555C22.909 0.242109 21.6587 0 20.3527 0C14.6482 0 10.0075 4.61824 10.0075 10.295V13.1994H2.78662C2.13951 13.1994 1.61475 13.7241 1.61475 14.3713V54.4423C1.61475 57.5067 4.11154 60 7.18045 60H37.8674C36.149 60 34.6512 59.0549 33.8655 57.6562ZM27.7685 2.34375C32.1805 2.34375 35.77 5.9107 35.77 10.295V13.1994H30.6979V10.295C30.6979 7.11855 29.2447 4.27348 26.9653 2.38359C27.2296 2.35723 27.4975 2.34375 27.7685 2.34375ZM24.0606 3.2502C26.6108 4.58098 28.3541 7.23949 28.3541 10.295V13.1994H19.7671V10.295C19.7671 7.23949 21.5104 4.58098 24.0606 3.2502ZM12.3512 10.295C12.3512 5.9107 15.9407 2.34375 20.3527 2.34375C20.6237 2.34375 20.8916 2.35723 21.1559 2.38348C18.8765 4.27348 17.4233 7.11844 17.4233 10.2949V13.1993H12.3512V10.295ZM8.83561 57.6562H7.18045C5.40389 57.6562 3.9585 56.2145 3.9585 54.4423V15.5432H8.83549V57.6562H8.83561Z" fill="#70768A"/>
<path d="M53.7982 59.9995H36.6955C34.1621 59.9995 32.1084 57.9458 32.1084 55.4124V33.916H58.3852V55.4124C58.3852 57.9458 56.3315 59.9995 53.7982 59.9995Z" fill="#E8CDC8"/>
<path d="M50.2703 40.8915C49.6232 40.8915 49.0984 40.3668 49.0984 39.7197V33.2234C49.0984 31.11 47.3624 29.3906 45.2287 29.3906C43.0948 29.3906 41.3589 31.11 41.3589 33.2234V39.7197C41.3589 40.3668 40.8341 40.8915 40.187 40.8915C39.5398 40.8915 39.0151 40.3668 39.0151 39.7197V33.2234C39.0151 29.8175 41.8026 27.0469 45.2287 27.0469C48.6547 27.0469 51.4422 29.8177 51.4422 33.2234V39.7197C51.4422 40.3669 50.9174 40.8915 50.2703 40.8915Z" fill="#70768A"/>
</g>
<defs>
<clipPath id="clip0">
<rect width="60" height="60" fill="white"/>
</clipPath>
</defs>
</svg>
