<svg width="60" height="60" viewBox="0 0 60 60" fill="none" xmlns="http://www.w3.org/2000/svg">
<path fill-rule="evenodd" clip-rule="evenodd" d="M14 0C6.26801 0 0 6.26801 0 14V46C0 53.732 6.26801 60 14 60H46C53.732 60 60 53.732 60 46V14C60 6.26801 53.732 0 46 0H14ZM39.6 17.176H36.0947C32.6689 17.176 32.7322 19.2097 32.8245 22.1749C32.8534 23.1037 32.8851 24.1239 32.8134 25.2016H39.0161L38.1665 32.0272H32.815V49.2H25.9771V32.0256H20.4V25.2H25.9787C26.0579 24.8702 26.0259 24.1961 25.984 23.3116C25.7919 19.2613 25.3906 10.8 34.4932 10.8C36.9154 10.8 38.9953 10.9872 39.6 11.0704V17.176Z" fill="#F6EEEC"/>
</svg>
