<svg width="60" height="60" viewBox="0 0 60 60" fill="none" xmlns="http://www.w3.org/2000/svg">
<path fill-rule="evenodd" clip-rule="evenodd" d="M1 0C0.447715 0 0 0.447714 0 0.999999V59C0 59.5523 0.447714 60 0.999999 60H59C59.5523 60 60 59.5523 60 59V1C60 0.447715 59.5523 0 59 0H1ZM39.6 17.176H36.0947C32.6689 17.176 32.7322 19.2097 32.8245 22.1749C32.8534 23.1037 32.8851 24.1239 32.8134 25.2016H39.0161L38.1665 32.0272H32.815V49.2H25.9771V32.0256H20.4V25.2H25.9787C26.0579 24.8702 26.0259 24.1961 25.984 23.3116C25.7919 19.2613 25.3906 10.8 34.4932 10.8C36.9154 10.8 38.9953 10.9872 39.6 11.0704V17.176Z" fill="#F6EEEC"/>
</svg>
