<svg width="71" height="76" viewBox="0 0 71 76" fill="none" xmlns="http://www.w3.org/2000/svg">
<path d="M49.8146 30.2568C58.8596 30.4135 65.7022 33.2354 70.5 35.3518C64.5225 31.5893 61.0618 30.7271 52.6461 28.3755C49.5 26.651 49.5 22.575 44.3876 22.1047C41.7135 22.1047 40.6124 23.0453 39.1966 24.2211C38.7247 24.8482 38.2528 25.5536 37.7809 26.1807C36.7584 27.2781 36.3652 27.2781 36.2865 26.9646C37.3876 15.3635 29.4438 7.28984 31.0955 0C20.5562 6.9763 17.7247 19.7531 19.4551 25.7104C13.6348 18.4206 1.52247 22.6534 0.5 23.5156C10.5674 29.081 1.44382 39.3495 22.2865 39.0359C15.4438 42.0146 15.9944 47.188 11.1966 51.1857C20.5562 51.4992 27.0843 47.5016 30.5449 41.7794C30.7809 41.7794 30.9382 41.8578 31.0955 42.0146C29.0506 53.0669 32.5112 63.1786 38.3315 69.4495C40.1404 71.4091 42.5 73.3688 45.7247 75.25C44.5449 72.7417 47.2191 65.2167 44.7809 61.3758C49.8933 61.6893 56.1067 59.3378 57.5225 53.8508C54.2978 55.732 50.6798 51.1073 43.9944 52.2047C44.9382 50.8721 45.5674 48.9909 45.7247 46.3258C44.9382 47.8935 42.0281 47.6583 38.8034 49.3828C42.4213 45.3068 43.9944 40.9172 43.8371 36.0573C45.1742 30.8055 48.8708 30.4135 49.8146 30.2568ZM33.2978 34.4896C32.6685 35.9789 32.1966 37.3898 31.8034 38.8008C30.3876 38.644 27.6348 42.1714 24.4101 41.3875C25.9831 40.7604 24.9607 39.2711 27.0843 37.5466C20.7921 38.4872 20.6348 33.549 17.8034 32.3732C24.9607 29.6297 26.927 33.0003 27.4775 33.8625C24.882 27.9836 27.0056 23.5156 31.0955 21.3208C30.6236 26.7294 33.5337 28.9242 33.2978 34.4896ZM38.882 52.0479C38.0169 52.3615 38.4888 54.2427 36.9944 54.7914C37.3876 55.4185 40.1404 53.3021 42.264 57.4565C40.691 56.9078 39.118 58.9458 36.9157 56.3591C38.3315 58.0052 37.309 58.7891 37.8596 60.3568C33.927 59.8081 35.5 55.2617 34.0056 54.8698C34.7921 53.3805 36.6011 52.0479 38.882 52.0479Z" fill="#70768A"/>
</svg>
