<svg width="60" height="60" viewBox="0 0 60 60" fill="none" xmlns="http://www.w3.org/2000/svg">
<path fill-rule="evenodd" clip-rule="evenodd" d="M14.0001 0.000388624C19.0001 0 24.8085 0 30.0001 0C37.0001 4.84156e-05 42.0001 0.000100421 46.0001 0.000440003C55.0001 0 60.0001 6.86938 60.0001 14V30L60 46C60 53 53.2654 60 46 60L30.0001 60L14 60C5 60 0 53 9.27627e-05 46L5.17547e-05 30C5.17547e-05 28.5605 4.02006e-05 26.8062 2.80108e-05 24.9554C2.28623e-06 21.0496 -2.62694e-05 16.714 4.49598e-05 14C1.97464e-08 5 7 0 14.0001 0.000388624ZM46.3221 41.2839C46.7478 40.188 47.0394 38.936 47.1227 37.1022C47.2069 35.2652 47.2266 34.6783 47.2266 30C47.2266 25.3217 47.2069 24.7348 47.1232 22.8978C47.0394 21.064 46.7483 19.812 46.3221 18.7161C45.8899 17.5667 45.2115 16.5257 44.3354 15.6651C43.4748 14.7885 42.4334 14.1101 41.2839 13.6775C40.188 13.2522 38.9361 12.9611 37.1023 12.8778C35.2653 12.7936 34.6784 12.7734 30.0001 12.7734C25.3217 12.7734 24.7349 12.7936 22.8978 12.8773C21.064 12.9611 19.8121 13.2522 18.7162 13.678C17.5667 14.1105 16.5253 14.7885 15.6652 15.6651C14.7886 16.5253 14.1102 17.5667 13.6776 18.7161C13.2519 19.812 12.9607 21.064 12.8774 22.8978C12.7932 24.7348 12.7735 25.3217 12.7735 30C12.7735 34.6783 12.7932 35.2652 12.8779 37.1027C12.9612 38.936 13.2528 40.1884 13.6785 41.2839C14.1111 42.4333 14.789 43.4747 15.6652 44.3349C16.5258 45.2115 17.5667 45.8894 18.7166 46.322C19.8121 46.7477 21.0645 47.0389 22.8978 47.1226C24.7353 47.2064 25.3217 47.2266 30.0005 47.2266C34.6789 47.2266 35.2657 47.2064 37.1027 47.1226C38.9361 47.0389 40.1885 46.7477 41.2839 46.322C43.5979 45.4271 45.4272 43.5979 46.3221 41.2839ZM43.4289 19.8405C43.1529 19.0926 42.7125 18.4155 42.1403 17.8598C41.5846 17.2876 40.908 16.8472 40.1596 16.5712C39.5526 16.3354 38.6407 16.0548 36.9612 15.9784C35.1443 15.8955 34.5996 15.8777 30 15.8777C25.3999 15.8777 24.8551 15.8951 23.0387 15.9779C21.3592 16.0548 20.4469 16.3354 19.8403 16.5712C19.0919 16.8472 18.4149 17.2876 17.8596 17.8598C17.2874 18.4155 16.847 19.0921 16.5705 19.8405C16.3348 20.4475 16.0542 21.3599 15.9777 23.0394C15.8949 24.8558 15.877 25.4005 15.877 30.0006C15.877 34.6002 15.8949 35.145 15.9777 36.9618C16.0542 38.6413 16.3348 39.5532 16.5705 40.1602C16.847 40.9087 17.2869 41.5852 17.8591 42.141C18.4149 42.7132 19.0914 43.1535 19.8399 43.4296C20.4469 43.6658 21.3592 43.9464 23.0387 44.0228C24.8551 44.1057 25.3994 44.1231 29.9995 44.1231C34.6 44.1231 35.1448 44.1057 36.9607 44.0228C38.6402 43.9464 39.5526 43.6658 40.1596 43.4296C41.6619 42.85 42.8494 41.6626 43.4289 40.1602C43.6647 39.5532 43.9453 38.6413 44.0222 36.9618C44.105 35.145 44.1224 34.6002 44.1224 30.0006C44.1224 25.4005 44.105 24.8558 44.0222 23.0394C43.9457 21.3599 43.6651 20.4475 43.4289 19.8405ZM30 38.846C25.1142 38.846 21.1537 34.8859 21.1537 30.0001C21.1537 25.1144 25.1142 21.1543 30 21.1543C34.8852 21.1543 38.8458 25.1144 38.8458 30.0001C38.8458 34.8859 34.8852 38.846 30 38.846ZM39.1955 22.8719C38.0539 22.8719 37.1283 21.9463 37.1283 20.8046C37.1283 19.6629 38.0539 18.7373 39.1955 18.7373C40.3372 18.7373 41.2628 19.6629 41.2628 20.8046C41.2623 21.9463 40.3372 22.8719 39.1955 22.8719ZM35.7422 30C35.7422 33.1714 33.1714 35.7422 30 35.7422C26.8286 35.7422 24.2578 33.1714 24.2578 30C24.2578 26.8286 26.8286 24.2578 30 24.2578C33.1714 24.2578 35.7422 26.8286 35.7422 30Z" fill="#F6EEEC"/>
</svg>
