<svg width="60" height="60" viewBox="0 0 60 60" fill="none" xmlns="http://www.w3.org/2000/svg">
<g clip-path="url(#clip0_6143_4025)">
<path fill-rule="evenodd" clip-rule="evenodd" d="M1.19997 0H30H58.8C59.4 0 60 0.6 60 1.2L60 30L60 58.8C60 59.4 59.4 60 58.8 60L30 60H1.19997C0.59997 60 -3.05176e-05 59.4 -3.05176e-05 58.8L2.12669e-05 30L-3.05176e-05 1.2C-3.05176e-05 0.6 0.59997 0 1.19997 0ZM46.322 41.2839C46.7478 40.188 47.0394 38.936 47.1227 37.1022C47.2069 35.2652 47.2266 34.6783 47.2266 30C47.2266 25.3217 47.2069 24.7348 47.1231 22.8978C47.0394 21.064 46.7482 19.812 46.322 18.7161C45.8899 17.5667 45.2115 16.5257 44.3354 15.6651C43.4748 14.7885 42.4333 14.1101 41.2839 13.6775C40.188 13.2522 38.936 12.9611 37.1022 12.8778C35.2652 12.7936 34.6784 12.7734 30 12.7734C25.3217 12.7734 24.7348 12.7936 22.8978 12.8773C21.064 12.9611 19.812 13.2522 18.7161 13.678C17.5667 14.1105 16.5253 14.7885 15.6652 15.6651C14.7885 16.5253 14.1101 17.5667 13.6775 18.7161C13.2518 19.812 12.9607 21.064 12.8774 22.8978C12.7931 24.7348 12.7735 25.3217 12.7735 30C12.7735 34.6783 12.7931 35.2652 12.8778 37.1027C12.9611 38.936 13.2527 40.1884 13.6785 41.2839C14.111 42.4333 14.789 43.4747 15.6652 44.3349C16.5257 45.2115 17.5667 45.8894 18.7166 46.322C19.812 46.7477 21.0645 47.0389 22.8978 47.1226C24.7353 47.2064 25.3217 47.2266 30.0005 47.2266C34.6788 47.2266 35.2657 47.2064 37.1027 47.1226C38.936 47.0389 40.1885 46.7477 41.2839 46.322C43.5979 45.4271 45.4271 43.5979 46.322 41.2839ZM43.4289 19.8405C43.1528 19.0926 42.7125 18.4155 42.1403 17.8598C41.5845 17.2876 40.908 16.8472 40.1595 16.5712C39.5525 16.3354 38.6407 16.0548 36.9611 15.9784C35.1443 15.8955 34.5995 15.8777 29.9999 15.8777C25.3999 15.8777 24.8551 15.8951 23.0387 15.9779C21.3592 16.0548 20.4469 16.3354 19.8403 16.5712C19.0919 16.8472 18.4148 17.2876 17.8596 17.8598C17.2874 18.4155 16.847 19.0921 16.5705 19.8405C16.3348 20.4475 16.0542 21.3599 15.9777 23.0394C15.8948 24.8558 15.877 25.4005 15.877 30.0006C15.877 34.6002 15.8948 35.145 15.9777 36.9618C16.0542 38.6413 16.3348 39.5532 16.5705 40.1602C16.847 40.9087 17.2869 41.5852 17.8591 42.141C18.4148 42.7132 19.0914 43.1535 19.8399 43.4296C20.4469 43.6658 21.3592 43.9464 23.0387 44.0228C24.8551 44.1057 25.3994 44.1231 29.9995 44.1231C34.6 44.1231 35.1447 44.1057 36.9607 44.0228C38.6402 43.9464 39.5525 43.6658 40.1595 43.4296C41.6619 42.85 42.8493 41.6626 43.4289 40.1602C43.6646 39.5532 43.9452 38.6413 44.0221 36.9618C44.105 35.145 44.1224 34.6002 44.1224 30.0006C44.1224 25.4005 44.105 24.8558 44.0221 23.0394C43.9457 21.3599 43.6651 20.4475 43.4289 19.8405ZM29.9999 38.846C25.1142 38.846 21.1536 34.8859 21.1536 30.0001C21.1536 25.1144 25.1142 21.1543 29.9999 21.1543C34.8852 21.1543 38.8457 25.1144 38.8457 30.0001C38.8457 34.8859 34.8852 38.846 29.9999 38.846ZM39.1955 22.8719C38.0538 22.8719 37.1282 21.9463 37.1282 20.8046C37.1282 19.6629 38.0538 18.7373 39.1955 18.7373C40.3371 18.7373 41.2627 19.6629 41.2627 20.8046C41.2623 21.9463 40.3371 22.8719 39.1955 22.8719ZM35.7422 30C35.7422 33.1714 33.1714 35.7422 30 35.7422C26.8286 35.7422 24.2578 33.1714 24.2578 30C24.2578 26.8286 26.8286 24.2578 30 24.2578C33.1714 24.2578 35.7422 26.8286 35.7422 30Z" fill="#F6EEEC"/>
</g>
<defs>
<clipPath id="clip0_6143_4025">
<rect width="60" height="60" fill="white"/>
</clipPath>
</defs>
</svg>
