<svg width="51" height="54" viewBox="0 0 51 54" fill="none" xmlns="http://www.w3.org/2000/svg">
<path d="M37.4548 20.3162C43.498 22.0368 45.9552 22.6324 50.2718 25.3456C46.8185 23.8235 41.9042 21.8382 35.3961 21.7059C34.732 21.8382 32.0757 22.1029 31.0795 25.8088C31.2787 30.5735 29.0872 34.6765 24.2393 38.3824C24.3262 39.7953 23.3001 39.0938 24.1066 40.7812C24.9234 43.607 27.4133 49.8748 29.231 51.75C21.3947 45.6618 17.4655 31.0368 27.8254 17.3382C28.8216 16.4779 29.6185 15.8162 31.5444 15.8162C35.1969 16.1471 35.1969 19.0588 37.4548 20.3162Z" fill="#869BD8"/>
<path d="M25.7668 19.3235C25.8332 19.5221 26.0988 19.5221 26.8957 18.6618C25.0363 21.6397 24.2394 23.4926 23.4425 26.2059C24.2394 21.0441 21.583 19.6544 22.0479 15.2868C19.1259 16.875 17.5984 20.0515 19.4579 24.2868C19.0595 23.6912 17.5984 21.2426 12.4849 23.2279C14.4772 24.0882 14.61 27.5956 19.1259 26.9338C17.5984 28.1912 18.3289 29.25 17.2 29.7132C19.9228 30.375 22.1807 26.7353 22.9776 28.1912C22.7489 29.5588 22.6678 31.1226 22.6073 32.7982C22.6119 33.1044 22.6013 33.3877 22.5791 33.6176C22.5884 33.3418 22.5976 33.0686 22.6073 32.7982C22.5891 31.5716 22.327 29.9779 21.583 29.9779C19.1259 34.0809 14.4108 36.9265 7.70347 36.7279C11.1568 33.8162 10.7583 30.1103 15.6726 27.9926C0.664091 28.2574 7.23861 20.8456 0 16.875C0.730502 16.2794 9.43011 13.2353 13.6139 18.4632C12.3521 14.1618 14.4108 5.02941 21.9815 0C20.7861 5.22794 26.4973 11.0515 25.7668 19.3235Z" fill="#869BD8"/>
<path d="M24.1066 38.4485C27.3606 33.75 31.611 34.875 32.4743 33.2206C32.3527 35.16 31.8924 36.5133 31.2207 37.4431C35.9911 36.6959 38.5896 39.982 40.9083 38.6471C39.9143 42.6092 35.4466 44.3045 31.7718 44.0664C33.5731 46.7846 31.6143 52.1907 32.4743 54C23.3762 48.7721 23.2432 42.0221 23.4424 39.4412C25.5676 38.5809 23.5964 42.7967 26.8293 43.2794C26.4309 42.1544 27.1612 41.625 26.1652 40.4338C27.7591 42.2867 28.8882 40.8309 30.0172 41.2279C28.4896 38.2597 26.4975 39.7721 26.2316 39.3088C27.2942 38.9118 26.9623 37.5221 27.56 37.3235C25.634 37.3235 24.1306 38.6801 23.865 39.9375C23.5993 39.5404 24.2328 38.5254 24.1066 38.4485Z" fill="#869BD8"/>
</svg>
