<svg width="60" height="60" viewBox="0 0 60 60" fill="none" xmlns="http://www.w3.org/2000/svg">
<path d="M30.0285 24.8636C32.8932 24.8531 35.1747 22.552 35.1642 19.6812C35.1538 16.8092 32.8674 14.5239 30.0015 14.5215C27.1117 14.5184 24.8037 16.846 24.8258 19.7438C24.8473 22.6041 27.1546 24.874 30.0285 24.8636Z" fill="#F6EEEC"/>
<path d="M30.0001 0.000572701C23.8665 0.000572701 19 -0.000361662 14 0.000156541C6 0.000156541 0 6.00016 0 14.0002C0 17.0002 0.000144005 26.1175 0.000144005 30.0006C0.000144005 34.6944 -1.73796e-06 42.001 3.65377e-05 46.001C3.65377e-05 54.001 6 60.0006 14 60.0006C19 60.001 24.5455 60.0006 30.0001 60.0006C35.4548 60.0006 42 60.001 46 60.001C54 60.001 60 54.001 60 46.001C60 42.001 60.0001 35.0569 60.0001 30.0006C60.0001 25.734 60.0001 18.0002 60.0001 14.0002C60.0001 6.00016 54.0001 0.000156541 46.0001 0.000156541C42.0001 0.000156541 34.2198 0.000572701 30.0001 0.000572701ZM30.0431 9.12364C35.8866 9.1396 40.5767 13.9193 40.5466 19.8273C40.5172 25.5989 35.7503 30.2768 29.9167 30.2571C24.1425 30.2375 19.407 25.4504 19.4414 19.6671C19.4739 13.8205 24.2119 9.10768 30.0431 9.12364ZM41.8786 34.409C40.5865 35.7354 39.0311 36.6954 37.3039 37.3651C35.6711 37.9979 33.8819 38.3165 32.1104 38.5289C32.3786 38.8198 32.5045 38.9628 32.6714 39.1298C35.0751 41.5463 37.4905 43.9506 39.8862 46.374C40.7025 47.2002 40.8726 48.224 40.4233 49.1834C39.9328 50.233 38.8323 50.9229 37.7526 50.8486C37.0688 50.8014 36.5354 50.4619 36.0621 49.985C34.2477 48.1595 32.3989 46.3666 30.6225 44.5068C30.1039 43.9654 29.8559 44.0685 29.3986 44.5387C27.5738 46.4182 25.7188 48.2676 23.8534 50.1072C23.0156 50.9334 22.0188 51.0831 21.0465 50.6105C20.0134 50.1109 19.3567 49.0557 19.407 47.9944C19.4426 47.2787 19.7949 46.73 20.2872 46.2402C22.6669 43.8653 25.0393 41.4831 27.4123 39.1028C27.5701 38.945 27.7162 38.7774 27.9451 38.5319C24.7085 38.1937 21.7898 37.397 19.291 35.4432C18.9804 35.2002 18.6606 34.9657 18.3783 34.6931C17.2838 33.6429 17.174 32.4392 18.0388 31.2006C18.7797 30.1399 20.022 29.8563 21.3141 30.4658C21.5645 30.5831 21.8027 30.7316 22.031 30.8888C26.6874 34.0886 33.0845 34.1763 37.7593 31.0318C38.2221 30.6782 38.7175 30.3873 39.2914 30.2406C40.4061 29.9533 41.4471 30.3639 42.0449 31.3399C42.7293 32.4552 42.7214 33.5429 41.8786 34.409Z" fill="#F6EEEC"/>
</svg>
