<svg width="60" height="60" viewBox="0 0 60 60" fill="none" xmlns="http://www.w3.org/2000/svg">
<g clip-path="url(#clip0_6143_4039)">
<path d="M30.0284 24.8636C32.893 24.8531 35.1746 22.552 35.1641 19.6812C35.1537 16.8092 32.8672 14.5239 30.0014 14.5215C27.1115 14.5184 24.8036 16.846 24.8257 19.7438C24.8472 22.6041 27.1545 24.874 30.0284 24.8636Z" fill="#F6EEEC"/>
<path d="M30.0001 0.000171995C23.8664 0.000171995 1.20006 -0.000244141 1.20006 -0.000244141C0.600061 -0.000244141 6.10352e-05 0.599756 6.10352e-05 1.19976C6.10352e-05 1.19976 6.35147e-05 26.1171 6.35147e-05 30.0002C6.35147e-05 34.694 6.59943e-05 58.7996 6.59943e-05 58.7996C6.59943e-05 59.3996 0.600066 59.9996 1.20007 59.9996C1.20007 59.9996 24.5454 60.0002 30.0001 60.0002C35.4547 60.0002 58.8001 59.9996 58.8001 59.9996C59.4001 59.9996 60.0001 59.3996 60.0001 58.7996C60.0001 58.7996 60 35.0565 60 30.0002C60 25.7336 60.0001 1.1996 60.0001 1.1996C60.0001 0.599599 59.4001 -0.000244141 58.8001 -0.000244141C58.8001 -0.000244141 34.2197 0.000171995 30.0001 0.000171995ZM30.043 9.12324C35.8865 9.1392 40.5766 13.9189 40.5466 19.8269C40.5171 25.5985 35.7502 30.2764 29.9166 30.2567C24.1425 30.2371 19.4069 25.45 19.4413 19.6667C19.4738 13.8201 24.2118 9.10728 30.043 9.12324ZM41.8785 34.4086C40.5865 35.735 39.031 36.695 37.3038 37.3647C35.671 37.9975 33.8818 38.3161 32.1103 38.5285C32.3786 38.8194 32.5044 38.9624 32.6714 39.1294C35.075 41.546 37.4904 43.9502 39.8861 46.3736C40.7025 47.1998 40.8725 48.2236 40.4232 49.183C39.9327 50.2326 38.8322 50.9225 37.7525 50.8482C37.0687 50.801 36.5353 50.4615 36.062 49.9846C34.2476 48.1591 32.3988 46.3662 30.6225 44.5064C30.1038 43.965 29.8558 44.0681 29.3985 44.5383C27.5737 46.4178 25.7187 48.2672 23.8534 50.1068C23.0155 50.933 22.0187 51.0827 21.0464 50.6101C20.0134 50.1105 19.3566 49.0553 19.4069 47.994C19.4425 47.2783 19.7948 46.7296 20.2871 46.2398C22.6669 43.8649 25.0392 41.4827 27.4122 39.1024C27.57 38.9446 27.7161 38.777 27.945 38.5315C24.7084 38.1933 21.7897 37.3966 19.2909 35.4428C18.9803 35.1998 18.6605 34.9653 18.3782 34.6927C17.2837 33.6425 17.1739 32.4388 18.0387 31.2002C18.7796 30.1395 20.022 29.8559 21.314 30.4654C21.5645 30.5827 21.8026 30.7312 22.031 30.8884C26.6873 34.0882 33.0844 34.1759 37.7592 31.0314C38.222 30.6778 38.7174 30.3869 39.2913 30.2402C40.406 29.9529 41.447 30.3635 42.0449 31.3395C42.7293 32.4548 42.7213 33.5425 41.8785 34.4086Z" fill="#F6EEEC"/>
</g>
<defs>
<clipPath id="clip0_6143_4039">
<rect width="60" height="60" fill="white"/>
</clipPath>
</defs>
</svg>
