<svg width="292" height="88" viewBox="0 0 292 88" fill="none" xmlns="http://www.w3.org/2000/svg">
<g clip-path="url(#clip0)">
<path d="M142.853 39.883C143.626 40.3976 144.786 40.7836 145.946 40.7836C147.751 40.7836 148.782 39.883 148.782 38.4678C148.782 37.1813 148.008 36.538 146.204 35.7661C144.013 34.9941 142.595 33.8362 142.595 31.9064C142.595 29.8479 144.4 28.3041 146.977 28.3041C148.395 28.3041 149.297 28.5614 149.941 28.9474L149.426 30.3626C149.039 30.1052 148.137 29.7193 146.848 29.7193C145.044 29.7193 144.271 30.8772 144.271 31.7778C144.271 33.0643 145.044 33.7076 146.977 34.3509C149.297 35.2514 150.328 36.2807 150.328 38.3392C150.328 40.3976 148.782 42.1988 145.689 42.1988C144.4 42.1988 142.982 41.8128 142.209 41.2982L142.853 39.883Z" fill="#02797E"/>
<path d="M153.936 37.4386C153.936 39.7544 155.483 40.7836 157.287 40.7836C158.576 40.7836 159.349 40.5263 159.994 40.269L160.251 41.5556C159.607 41.8129 158.576 42.1988 157.029 42.1988C154.065 42.1988 152.261 40.269 152.261 37.3099C152.261 34.3509 154.065 32.0351 156.772 32.0351C159.865 32.0351 160.767 34.8655 160.767 36.538C160.767 36.924 160.767 37.1813 160.767 37.4386H153.936ZM159.091 36.2807C159.091 35.1228 158.576 33.4503 156.643 33.4503C154.839 33.4503 154.065 35.1228 153.936 36.2807H159.091Z" fill="#02797E"/>
<path d="M169.917 41.6842C169.401 41.9415 168.37 42.1988 167.082 42.1988C164.118 42.1988 162.313 40.269 162.313 37.31C162.313 34.3509 164.375 32.1638 167.468 32.1638C168.499 32.1638 169.401 32.4211 169.917 32.6784L169.53 33.9649C169.144 33.7076 168.499 33.4503 167.468 33.4503C165.277 33.4503 163.989 35.1228 163.989 37.1813C163.989 39.3684 165.406 40.7836 167.339 40.7836C168.37 40.7836 169.015 40.5263 169.53 40.269L169.917 41.6842Z" fill="#02797E"/>
<path d="M179.969 39.3684C179.969 40.3977 179.969 41.2983 180.098 41.9415H178.552L178.423 40.3977C178.036 41.1696 176.876 42.1988 175.201 42.1988C173.654 42.1988 171.85 41.2983 171.85 37.9532V32.2924H173.654V37.5673C173.654 39.3684 174.299 40.655 175.845 40.655C177.005 40.655 177.907 39.8831 178.165 38.9825C178.294 38.7252 178.294 38.4679 178.294 38.0819V32.1638H180.098V39.3684" fill="#02797E"/>
<path d="M182.933 35.3801C182.933 34.2222 182.933 33.3217 182.805 32.4211H184.351L184.48 34.3509C184.867 33.0643 186.026 32.2924 187.186 32.2924C187.315 32.2924 187.573 32.2924 187.702 32.2924V33.9649C187.444 33.9649 187.315 33.9649 187.057 33.9649C185.769 33.9649 184.995 34.8655 184.738 36.1521C184.738 36.4094 184.738 36.6667 184.738 37.0527V42.1988H182.933V35.3801Z" fill="#02797E"/>
<path d="M190.408 30.6199C189.764 30.6199 189.248 30.1052 189.248 29.462C189.248 28.8187 189.764 28.3041 190.408 28.3041C191.053 28.3041 191.568 28.8187 191.568 29.462C191.568 30.1052 191.181 30.6199 190.408 30.6199ZM191.31 42.0702H189.635V32.421H191.439V42.0702H191.31Z" fill="#02797E"/>
<path d="M196.336 30.1053V32.4211H198.914V33.7076H196.336V38.9825C196.336 40.1404 196.723 40.9123 197.625 40.9123C198.141 40.9123 198.398 40.9123 198.656 40.7837L198.785 42.0702C198.398 42.1989 197.883 42.3275 197.238 42.3275C196.465 42.3275 195.821 42.0702 195.305 41.5556C194.79 41.041 194.661 40.1404 194.661 38.9825V33.7076H193.115V32.4211H194.661V30.6199L196.336 30.1053Z" fill="#02797E"/>
<path d="M201.749 32.4211L203.811 38.0819C204.069 38.7252 204.327 39.4971 204.455 40.0117C204.584 39.4971 204.842 38.7252 205.1 37.9532L207.033 32.2924H208.837L206.131 39.2398C204.842 42.5848 204.069 44.2573 202.78 45.2866C201.878 46.0585 201.105 46.3158 200.589 46.4445L200.203 45.0293C200.589 44.9006 201.234 44.6433 201.749 44.1287C202.265 43.7427 202.78 43.0994 203.167 42.1989C203.296 42.0702 203.296 41.9415 203.296 41.8129C203.296 41.6842 203.296 41.5556 203.167 41.4269L199.558 32.5497H201.749" fill="#02797E"/>
<path d="M142.853 59.8246C143.626 60.3392 144.786 60.7251 145.946 60.7251C147.751 60.7251 148.782 59.8246 148.782 58.4094C148.782 57.1228 148.008 56.4795 146.204 55.7076C144.013 54.9357 142.595 53.7778 142.595 51.8479C142.595 49.7895 144.4 48.2456 146.977 48.2456C148.395 48.2456 149.297 48.5029 149.941 48.8889L149.426 50.3041C149.039 50.0468 148.137 49.6608 146.848 49.6608C145.044 49.6608 144.271 50.8187 144.271 51.7193C144.271 53.0058 145.044 53.6491 146.977 54.2924C149.297 55.193 150.328 56.2222 150.328 58.2807C150.328 60.3392 148.782 62.1403 145.689 62.1403C144.4 62.1403 142.982 61.7544 142.209 61.2398L142.853 59.8246Z" fill="#02797E"/>
<path d="M154.839 50.0468V52.3625H157.416V53.6491H154.839V58.7953C154.839 59.9532 155.225 60.7251 156.127 60.7251C156.643 60.7251 156.901 60.7251 157.158 60.5965L157.287 61.883C156.901 62.0117 156.385 62.1403 155.741 62.1403C154.967 62.1403 154.323 61.883 153.808 61.3684C153.292 60.8538 153.163 59.9532 153.163 58.7953V53.5204H151.617V52.2339H153.163V50.4327L154.839 50.0468Z" fill="#02797E"/>
<path d="M166.18 59.6959C166.18 60.5965 166.18 61.3684 166.308 62.0117H164.762L164.633 60.8538C164.118 61.6257 163.087 62.269 161.669 62.269C159.736 62.269 158.705 60.8538 158.705 59.4386C158.705 57.1228 160.767 55.8362 164.504 55.8362V55.5789C164.504 54.807 164.246 53.2631 162.313 53.3918C161.411 53.3918 160.509 53.6491 159.736 54.1637L159.349 53.0058C160.122 52.4912 161.282 52.2339 162.571 52.2339C165.535 52.2339 166.308 54.2924 166.308 56.2222V59.6959H166.18ZM164.504 57.1228C162.571 57.1228 160.38 57.3801 160.38 59.3099C160.38 60.4678 161.153 60.9824 162.056 60.9824C163.344 60.9824 164.118 60.2105 164.375 59.3099C164.375 59.1813 164.504 58.9239 164.504 58.7953V57.1228Z" fill="#02797E"/>
<path d="M169.015 54.9357C169.015 53.9065 169.015 53.1345 168.886 52.3626H170.433L170.561 53.9065C171.077 53.0059 172.108 52.1053 173.783 52.1053C175.072 52.1053 177.263 52.8772 177.263 56.2222V62.0117H175.459V56.4796C175.459 54.9357 174.814 53.6491 173.268 53.6491C172.108 53.6491 171.206 54.4211 170.948 55.4503C170.819 55.7076 170.819 55.9649 170.819 56.2222V62.0117H169.015V54.9357Z" fill="#02797E"/>
<path d="M188.475 47.8597V59.5673C188.475 60.4679 188.475 61.3684 188.604 62.0117H187.057L186.929 60.3392C186.413 61.3684 185.253 62.269 183.707 62.269C181.387 62.269 179.583 60.3392 179.583 57.3801C179.583 54.1638 181.645 52.2339 183.964 52.2339C185.511 52.2339 186.413 52.8772 186.929 53.6491V47.8597H188.475ZM186.671 56.2222C186.671 55.9649 186.671 55.7076 186.542 55.4503C186.284 54.2924 185.382 53.3918 183.964 53.3918C182.16 53.3918 181 54.9357 181 57.1228C181 59.0527 182.031 60.7252 183.836 60.7252C184.995 60.7252 186.026 59.9532 186.413 58.6667C186.542 58.4094 186.542 58.1521 186.542 57.8948V56.2222H186.671Z" fill="#02797E"/>
<path d="M198.269 59.6959C198.269 60.5965 198.269 61.3684 198.398 62.0117H196.852L196.723 60.8538C196.207 61.6257 195.176 62.269 193.759 62.269C191.826 62.269 190.795 60.8538 190.795 59.4386C190.795 57.1228 192.857 55.8362 196.594 55.8362V55.5789C196.594 54.807 196.336 53.2631 194.403 53.3918C193.501 53.3918 192.599 53.6491 191.826 54.1637L191.439 53.0058C192.212 52.4912 193.372 52.2339 194.661 52.2339C197.625 52.2339 198.398 54.2924 198.398 56.2222V59.6959H198.269ZM196.465 57.1228C194.532 57.1228 192.341 57.3801 192.341 59.3099C192.341 60.4678 193.114 60.9824 194.017 60.9824C195.305 60.9824 196.079 60.2105 196.336 59.3099C196.336 59.1813 196.465 58.9239 196.465 58.7953V57.1228Z" fill="#02797E"/>
<path d="M201.105 55.3216C201.105 54.1637 201.105 53.2631 200.976 52.3625H202.522L202.651 54.2924H202.78C203.167 53.0058 204.327 52.2339 205.487 52.2339C205.615 52.2339 205.744 52.2339 206.002 52.2339V53.9064C205.744 53.9064 205.615 53.9064 205.358 53.9064C204.069 53.9064 203.296 54.807 203.038 56.0935C203.038 56.3508 203.038 56.6082 203.038 56.9941V62.1403H201.234L201.105 55.3216Z" fill="#02797E"/>
<path d="M215.797 47.8597V59.5673C215.797 60.4679 215.797 61.3684 215.926 62.0117H214.379L214.25 60.3392C213.735 61.3684 212.575 62.269 210.899 62.269C208.58 62.269 206.775 60.3392 206.775 57.3801C206.775 54.1638 208.709 52.2339 211.157 52.2339C212.704 52.2339 213.606 52.8772 214.121 53.6491V47.8597H215.797ZM214.121 56.2222C214.121 55.9649 214.121 55.7076 213.992 55.4503C213.735 54.2924 212.704 53.3918 211.415 53.3918C209.611 53.3918 208.58 54.9357 208.58 57.1228C208.58 59.0527 209.611 60.7252 211.415 60.7252C212.575 60.7252 213.735 59.9532 213.992 58.6667C213.992 58.4094 214.121 58.1521 214.121 57.8948V56.2222Z" fill="#02797E"/>
<path d="M218.503 60.2105C219.018 60.5965 219.92 60.8538 220.823 60.8538C222.111 60.8538 222.627 60.2105 222.627 59.4386C222.627 58.538 222.111 58.1521 220.823 57.6374C219.018 56.9942 218.245 56.0936 218.245 54.9357C218.245 53.3918 219.534 52.1053 221.596 52.1053C222.627 52.1053 223.4 52.3626 223.916 52.7486L223.529 54.0351C223.142 53.7778 222.498 53.5205 221.596 53.5205C220.565 53.5205 220.049 54.1638 220.049 54.807C220.049 55.579 220.565 55.9649 221.854 56.4796C223.529 57.1228 224.431 57.8948 224.431 59.4386C224.431 61.1111 223.142 62.3977 220.823 62.3977C219.792 62.3977 218.761 62.1404 218.116 61.7544L218.503 60.2105Z" fill="#02797E"/>
<path d="M240.412 61.6257C239.767 61.883 238.478 62.269 236.803 62.269C233.066 62.269 230.102 59.8246 230.102 55.4503C230.102 51.2047 232.937 48.3743 237.19 48.3743C238.865 48.3743 239.896 48.7602 240.412 49.0175L240.025 50.4327C239.381 50.1754 238.478 49.9181 237.319 49.9181C234.097 49.9181 232.035 51.9766 232.035 55.4503C232.035 58.7953 233.968 60.8538 237.19 60.8538C238.221 60.8538 239.381 60.5965 240.025 60.3392L240.412 61.6257Z" fill="#02797E"/>
<path d="M246.211 62.269C243.634 62.269 241.572 60.3392 241.572 57.2515C241.572 54.0351 243.762 52.1053 246.34 52.1053C249.175 52.1053 250.979 54.1638 250.979 56.9942C250.979 60.5965 248.531 62.269 246.211 62.269ZM246.211 60.8538C247.886 60.8538 249.175 59.31 249.175 57.1228C249.175 55.4503 248.402 53.3918 246.211 53.3918C244.149 53.3918 243.247 55.3217 243.247 57.1228C243.376 59.31 244.536 60.8538 246.211 60.8538Z" fill="#02797E"/>
<path d="M261.29 59.31C261.29 60.3392 261.29 61.2398 261.418 61.8831H259.872L259.743 60.3392C259.356 61.1111 258.197 62.1404 256.521 62.1404C254.975 62.1404 253.17 61.2398 253.17 57.8948V52.2339H254.975V57.5088C254.975 59.31 255.49 60.5965 257.166 60.5965C258.325 60.5965 259.099 59.8246 259.485 58.924C259.614 58.6667 259.614 58.4094 259.614 58.0234V52.1053H261.418V59.31" fill="#02797E"/>
<path d="M264.254 54.9357C264.254 53.9065 264.254 53.1345 264.125 52.3626H265.671L265.8 53.9065C266.316 53.0059 267.347 52.1053 269.022 52.1053C270.311 52.1053 272.502 52.8772 272.502 56.2222V62.0117H270.697V56.4796C270.697 54.9357 270.053 53.6491 268.507 53.6491C267.347 53.6491 266.445 54.4211 266.187 55.4503C266.058 55.7076 266.058 55.9649 266.058 56.2222V62.0117H264.254V54.9357Z" fill="#02797E"/>
<path d="M282.296 61.6258C281.781 61.8831 280.878 62.1404 279.461 62.1404C276.497 62.1404 274.692 60.2106 274.692 57.2515C274.692 54.2924 276.754 52.1053 279.847 52.1053C280.878 52.1053 281.781 52.3626 282.296 52.6199L281.909 53.9065C281.523 53.6491 280.878 53.3918 279.847 53.3918C277.657 53.3918 276.368 55.0644 276.368 57.1228C276.368 59.31 277.785 60.7252 279.719 60.7252C280.75 60.7252 281.394 60.4679 281.909 60.2106L282.296 61.6258Z" fill="#02797E"/>
<path d="M285.131 50.5614C284.487 50.5614 283.971 50.0468 283.971 49.4035C283.971 48.7602 284.487 48.2456 285.131 48.2456C285.776 48.2456 286.291 48.7602 286.291 49.4035C286.291 50.0468 285.905 50.5614 285.131 50.5614ZM286.034 62.0117H284.229V52.3626H286.034V62.0117Z" fill="#02797E"/>
<path d="M290.802 47.8597H288.998V62.0117H290.802V47.8597Z" fill="#02797E"/>
<path d="M133.832 55.5789L30.3452 88L0.188477 6.04678L108.83 0L133.832 55.5789Z" fill="#02797E"/>
<path d="M55.6048 39.1111C55.6048 41.1696 55.0893 42.9707 54.1871 44.6433C53.285 46.1871 51.9963 47.6023 50.3209 48.6316C48.6455 49.6608 46.5835 50.4327 44.2638 50.9473C41.944 51.462 39.3665 51.7193 36.4024 51.7193H34.3404V62.269H20.9374V27.1462H36.6601C42.5884 27.1462 47.2279 28.1754 50.5786 30.1052C53.9294 32.0351 55.6048 35.1228 55.6048 39.1111ZM42.7173 39.2397C42.7173 36.152 40.3975 34.6082 35.8869 34.6082H34.2115V44H35.758C37.9489 44 39.7531 43.614 40.913 42.8421C42.0729 42.1988 42.7173 40.9123 42.7173 39.2397Z" fill="white"/>
<path d="M88.8545 62.269C86.7925 62.655 84.4728 62.9123 81.7664 62.9123C78.029 62.9123 74.6783 62.5263 71.843 61.6257C68.8789 60.7252 66.4303 59.5673 64.3683 58.0234C62.3063 56.4795 60.7598 54.5497 59.7288 52.3626C58.6978 50.0468 58.1823 47.6024 58.1823 44.9006C58.1823 42.1988 58.6978 39.7544 59.8576 37.4386C61.0175 35.2515 62.564 33.3217 64.626 31.6491C66.688 30.1053 69.1366 28.8187 71.9719 27.9181C74.8071 27.0176 77.9001 26.6316 81.2509 26.6316C83.8284 26.6316 86.277 26.7602 88.4679 27.1462C90.6588 27.6608 90.6588 27.6608 92.3341 28.3041V37.6959C91.0454 36.924 89.4989 36.2807 87.8235 35.8947C86.1481 35.3801 84.3439 35.1228 82.5396 35.1228C79.4466 35.1228 76.998 36.0234 75.0649 37.5673C73.1318 39.2398 72.2296 41.5556 72.2296 44.7719C72.2296 46.3158 72.4874 47.731 73.1318 49.0176C73.7761 50.1754 74.5494 51.2047 75.5804 51.9766C76.6114 52.7486 77.7713 53.3918 79.1889 53.7778C80.6065 54.1638 82.0241 54.4211 83.5706 54.4211C85.1171 54.4211 86.7925 54.2924 88.339 53.9064C89.8855 53.5205 91.5609 53.1345 93.2363 52.3626V61.2398C91.1743 61.7544 90.9165 61.8831 88.8545 62.269Z" fill="white"/>
<path d="M112.31 27.1462H98.778V62.3976H112.31V27.1462Z" fill="white"/>
<path d="M113.727 16.0818C113.727 18.3976 112.954 20.3275 111.408 21.614C109.861 22.9006 107.928 23.6725 105.608 23.6725C103.289 23.6725 101.355 23.0292 99.8089 21.614C98.2624 20.3275 97.4891 18.3976 97.4891 16.0818C97.4891 13.6374 98.2624 11.8362 99.8089 10.421C101.355 9.00582 103.289 8.36255 105.608 8.36255C107.928 8.36255 109.861 9.00582 111.408 10.421C112.954 11.7076 113.727 13.6374 113.727 16.0818Z" fill="white"/>
<path d="M291.188 31.5205C291.188 33.7076 289.384 35.5088 287.064 35.5088C284.745 35.5088 282.94 33.7076 282.94 31.5205C282.94 29.3333 284.745 27.5322 287.064 27.5322C289.384 27.5322 291.188 29.3333 291.188 31.5205ZM284.229 31.5205C284.229 33.193 285.518 34.4795 287.064 34.4795C288.74 34.4795 289.9 33.193 289.9 31.5205C289.9 29.848 288.611 28.5614 286.936 28.5614C285.389 28.5614 284.229 29.848 284.229 31.5205ZM286.549 33.4503H285.389V29.7193C285.647 29.7193 286.291 29.5906 287.064 29.5906C287.838 29.5906 288.224 29.7193 288.482 29.848C288.74 29.9766 288.869 30.2339 288.869 30.6199C288.869 31.0058 288.482 31.2632 287.967 31.3918C288.353 31.5205 288.611 31.7778 288.74 32.2924C288.869 32.807 288.869 33.0643 288.998 33.193H287.709C287.58 33.0643 287.58 32.6784 287.451 32.4211C287.322 32.0351 287.193 31.9064 286.807 31.9064H286.42V33.4503H286.549ZM286.678 31.3918H287.064C287.451 31.3918 287.709 31.2632 287.709 31.0059C287.709 30.7485 287.451 30.4912 287.064 30.4912C286.936 30.4912 286.807 30.4912 286.678 30.4912V31.3918Z" fill="#02797E"/>
</g>
<defs>
<clipPath id="clip0">
<rect width="291" height="88" fill="white" transform="translate(0.188477)"/>
</clipPath>
</defs>
</svg>
