<svg width="95" height="34" viewBox="0 0 95 34" fill="none" xmlns="http://www.w3.org/2000/svg">
<path d="M12.1204 28.225C9.37902 28.225 7.11208 27.7263 5.31962 26.7288C3.52716 25.705 1.9983 24.0907 0.733032 21.8857L2.11692 20.8225C3.06587 22.6338 4.30477 24.025 5.83364 24.9963C7.38886 25.9675 9.08906 26.4532 10.9342 26.4532C13.8075 26.4532 15.9558 25.39 17.3792 23.2638C18.829 21.1375 19.5802 18.46 19.633 15.2313H7.37568V13.4594H19.5934C19.3298 6.10941 16.4434 2.43441 10.9342 2.43441C8.77275 2.43441 7.01983 3.06441 5.67548 4.32441C4.33113 5.58441 3.40854 7.42191 2.90771 9.83691H1.72152C1.72152 8.23566 1.77424 6.98879 1.87968 6.09628C1.98512 5.20379 2.27508 4.45566 2.74955 3.85191C3.5667 2.90691 4.75289 2.14566 6.30811 1.56816C7.86334 0.964412 9.80078 0.662537 12.1204 0.662537C14.5719 0.662537 16.7861 1.29254 18.7631 2.55254C20.7664 3.78629 22.3348 5.49254 23.4683 7.67129C24.6018 9.82379 25.1685 12.2125 25.1685 14.8375C25.1685 17.3838 24.6545 19.6675 23.6265 21.6888C22.5984 23.71 21.0959 25.3113 19.1189 26.4925C17.1683 27.6475 14.8355 28.225 12.1204 28.225Z" fill="#869BD8"/>
<path d="M25.9324 27.0438C25.9324 26.65 26.0642 26.3219 26.3278 26.0594C26.5914 25.7969 26.9209 25.6657 27.3163 25.6657H28.7397C29.5832 23.8282 30.1895 21.8725 30.5585 19.7988C30.9276 17.6988 31.1121 15.6513 31.1121 13.6563C31.1121 12.5013 30.9144 11.6219 30.519 11.0182C30.1236 10.4144 29.3328 10.1125 28.1466 10.1125V8.93129H45.7417V25.6657H46.9279C47.3233 25.6657 47.6528 25.7969 47.9164 26.0594C48.18 26.3219 48.3118 26.65 48.3118 27.0438V33.7375H46.3348C46.203 32.0575 45.9526 30.7582 45.5836 29.8394C45.2146 28.9469 44.7269 28.3169 44.1206 27.9494C43.5407 27.6082 42.8026 27.4375 41.9064 27.4375H32.3378C31.4416 27.4375 30.6903 27.6082 30.0841 27.9494C29.5042 28.3169 29.0297 28.9469 28.6606 29.8394C28.2916 30.7582 28.0412 32.0575 27.9094 33.7375H25.9324V27.0438ZM40.6016 25.6657V10.7032H35.0265C35.0265 14.0894 34.8552 16.9507 34.5125 19.2869C34.1962 21.5969 33.6426 23.7232 32.8518 25.6657H40.6016Z" fill="#869BD8"/>
<path d="M59.1855 27.8313C57.3667 27.8313 55.7719 27.4113 54.4012 26.5713C53.0305 25.7313 51.9629 24.5894 51.1985 23.1457C50.4604 21.6757 50.0914 20.0219 50.0914 18.1844C50.0914 16.1369 50.4604 14.3913 51.1985 12.9475C51.9629 11.5038 53.0042 10.4144 54.3221 9.67941C55.6401 8.91816 57.1294 8.53754 58.7901 8.53754C60.4244 8.53754 61.9006 8.86566 63.2185 9.52191C64.5365 10.1782 65.5777 11.11 66.3422 12.3175C67.1066 13.4988 67.4888 14.8638 67.4888 16.4125L67.3307 18.8932H55.4292C55.4292 21.3869 55.8115 23.2113 56.5759 24.3663C57.3403 25.495 58.4079 26.0594 59.7786 26.0594C61.0439 26.0594 62.0983 25.7838 62.9418 25.2325C63.8116 24.655 64.642 23.8413 65.4328 22.7913L66.6585 23.6969C65.8941 24.8782 64.9319 25.8625 63.7721 26.65C62.6386 27.4375 61.1098 27.8313 59.1855 27.8313ZM62.151 17.1213C62.151 14.6538 61.861 12.9082 61.2811 11.8844C60.7012 10.8344 59.8709 10.3094 58.7901 10.3094C57.7884 10.3094 56.9713 10.8475 56.3387 11.9238C55.7324 12.9738 55.4292 14.7063 55.4292 17.1213H62.151Z" fill="#869BD8"/>
<path d="M95 28.4219C92.1795 28.4219 90.1367 27.805 88.8714 26.5713C87.6061 25.3113 86.9735 23.3688 86.9735 20.7438V13.8925L81.2798 27.4375H79.975L73.0951 13.4988V27.3982H71.1181V8.93129H75.942L81.7938 20.7832L86.934 8.53754H92.1136V20.7438C92.1136 22.975 92.3245 24.6025 92.7463 25.6263C93.168 26.65 93.9193 27.2538 95 27.4375V28.4219Z" fill="#869BD8"/>
</svg>
