<svg width="60" height="60" viewBox="0 0 60 60" fill="none" xmlns="http://www.w3.org/2000/svg">
<path fill-rule="evenodd" clip-rule="evenodd" d="M1 0C0.447715 0 0 0.447714 0 0.999999V59C0 59.5523 0.447714 60 0.999999 60H59C59.5523 60 60 59.5523 60 59V1C60 0.447715 59.5523 0 59 0H1ZM48.3097 19.9875L48.3207 20.0318C49.4286 25.0921 49.4286 30.2235 48.3206 35.2836L48.3096 35.3279C47.4133 38.951 43.3726 42.8392 39.6618 43.6481L39.62 43.6567C36.6197 44.2291 33.5971 44.5148 30.5759 44.5148C29.6869 44.5148 28.7976 44.4871 27.9087 44.4374L23.8107 48.6971C22.7963 49.7536 21.0123 49.0346 21.0123 47.5706V43.526C17.44 42.5059 13.7003 38.7964 12.841 35.3278L12.831 35.2835C11.723 30.2235 11.723 25.0918 12.831 20.0318L12.841 19.9875C13.7384 16.3644 17.7792 12.4762 21.4887 11.6674L21.5318 11.6587C27.5325 10.5138 33.6182 10.5138 39.6202 11.6587L39.662 11.6674C43.3727 12.4762 47.4135 16.3641 48.3097 19.9875ZM38.9735 40.3955C41.4112 39.8525 44.4792 36.9138 45.0776 34.5499C46.076 29.9761 46.076 25.3395 45.0777 20.7656C44.4793 18.4017 41.4125 15.4629 38.9737 14.9199C33.4013 13.8599 27.7503 13.8599 22.1767 14.9199C19.7391 15.4629 16.6722 18.4017 16.0727 20.7656C15.0754 25.3393 15.0754 29.976 16.0727 34.5497C16.6722 36.9136 19.7391 39.8524 22.1767 40.3954L22.1773 40.3955L22.1786 40.3958C22.2873 40.4173 22.3663 40.5112 22.3663 40.6219V47.3223C22.3663 47.6571 22.7752 47.8223 23.0079 47.5797L26.1903 44.3133C26.1903 44.3133 28.7263 41.7098 29.1824 41.2417C29.2268 41.1959 29.2883 41.171 29.3522 41.1728C32.5656 41.2618 35.7823 41.0024 38.9735 40.3955ZM35.5198 37.5409L35.5195 37.5409L35.5195 37.5408L35.5195 37.5408L35.5194 37.5408C35.2744 37.4733 35.0386 37.4083 34.8143 37.3154C31.3773 35.8894 28.2142 34.0497 25.7088 31.2298C24.2839 29.6263 23.1687 27.8158 22.2261 25.8999C21.8251 25.0849 21.4807 24.2414 21.1368 23.3991L21.0183 23.1091C20.6682 22.2537 21.1839 21.37 21.7269 20.7254C22.2365 20.1204 22.8923 19.6576 23.6025 19.3163C24.1567 19.05 24.7034 19.2036 25.1083 19.6733C25.9833 20.6891 26.7873 21.7567 27.438 22.9341C27.8383 23.6584 27.7285 24.5436 27.003 25.0364C26.8617 25.1324 26.7304 25.2418 26.5994 25.351L26.5994 25.351C26.5669 25.3781 26.5344 25.4052 26.5018 25.4321C26.3576 25.5507 26.2221 25.6705 26.1234 25.831C25.9429 26.1246 25.9343 26.4712 26.0504 26.7905C26.9449 29.2488 28.4527 31.1605 30.9272 32.1903L30.9641 32.2057L31.0313 32.234L31.033 32.2347C31.3944 32.3872 31.7613 32.5419 32.177 32.4936C32.6712 32.4359 32.9492 32.0647 33.2289 31.6912C33.3815 31.4875 33.5346 31.2831 33.7236 31.1285C34.2468 30.7007 34.9156 30.6951 35.4792 31.0517C36.043 31.4087 36.5894 31.7915 37.1327 32.1787L37.2446 32.2584L37.2447 32.2585C37.7401 32.6111 38.2312 32.9605 38.6885 33.3635C39.1615 33.7801 39.3244 34.3265 39.058 34.8916C38.5706 35.9269 37.8611 36.7879 36.8378 37.3377C36.6404 37.4435 36.4167 37.5005 36.1908 37.558L36.1908 37.558C36.0862 37.5846 35.9811 37.6113 35.878 37.6431C35.7567 37.6062 35.6372 37.5733 35.5198 37.5409ZM39.564 25.6861C38.7727 21.2416 35.0801 18.2581 30.5846 18.1321C30.5591 18.132 30.5336 18.1316 30.5081 18.1312C30.4466 18.1302 30.3851 18.1292 30.3241 18.1329C30.0053 18.15 29.7228 18.4165 29.7824 18.7513C29.8496 19.1286 30.2287 19.1668 30.5412 19.1982L30.5953 19.2038C30.7535 19.2204 30.9122 19.2341 31.0709 19.2478C31.4219 19.2781 31.7729 19.3084 32.1184 19.37C35.4519 19.9645 38.1223 22.7352 38.5875 26.0842C38.6579 26.5902 38.6926 27.1016 38.7272 27.6125C38.736 27.742 38.7447 27.8714 38.7541 28.0008C38.7777 28.3237 38.9398 28.6254 39.3001 28.6211C39.6489 28.6167 39.8321 28.3096 39.8068 27.9863C39.7994 27.8915 39.7922 27.7965 39.7849 27.7015L39.7848 27.7004C39.7336 27.026 39.6821 26.3496 39.564 25.6861ZM37.4167 26.9889C37.4148 27.0032 37.4131 27.0225 37.4111 27.0453C37.4054 27.1119 37.397 27.2087 37.3724 27.3013C37.2532 27.7526 36.5687 27.809 36.4113 27.3537C36.3645 27.2186 36.3576 27.0648 36.3573 26.9193C36.3557 25.9673 36.1488 25.016 35.6686 24.1875C35.175 23.3359 34.4208 22.6204 33.5365 22.187C33.0016 21.9253 32.4234 21.7624 31.8371 21.6656C31.6782 21.6392 31.5181 21.6194 31.358 21.5995L31.3578 21.5995C31.26 21.5874 31.1622 21.5753 31.0646 21.5616C30.7526 21.5183 30.5859 21.3195 30.6009 21.0121C30.6146 20.7241 30.8252 20.5167 31.1391 20.5346C32.1707 20.5931 33.1674 20.8163 34.0847 21.3019C35.9498 22.2898 37.0153 23.8488 37.3264 25.9307C37.3314 25.9646 37.3376 25.9984 37.3437 26.0321L37.3437 26.0322L37.3437 26.0323C37.3547 26.0924 37.3656 26.1525 37.3702 26.2131C37.3827 26.3803 37.392 26.5478 37.4028 26.7427L37.4029 26.743C37.4071 26.8201 37.4116 26.9015 37.4167 26.9889ZM34.0045 26.3335C34.0434 26.6781 34.2447 26.8865 34.6207 26.8797C34.7918 26.8681 34.9674 26.7493 35.0227 26.5125C35.054 26.3774 35.0409 26.229 35.0285 26.0876L35.0274 26.076C34.8496 24.0241 33.6039 23.123 31.8609 22.9972C31.582 22.9769 31.3338 23.1761 31.2911 23.4313C31.2441 23.7116 31.4094 23.9538 31.7083 24.027C31.837 24.0585 31.9683 24.0705 32.0998 24.0824C32.2493 24.096 32.3991 24.1097 32.5458 24.1521C32.763 24.215 32.9704 24.3121 33.1533 24.4454C33.5409 24.7277 33.7858 25.1546 33.8987 25.6155C33.9484 25.818 33.9712 26.0279 33.9938 26.2365C33.9974 26.2689 34.0009 26.3012 34.0045 26.3335Z" fill="#F6EEEC"/>
</svg>
