<svg width="60" height="60" viewBox="0 0 60 60" fill="none" xmlns="http://www.w3.org/2000/svg">
<path fill-rule="evenodd" clip-rule="evenodd" d="M10 0C4.47715 0 0 4.47715 0 10V50C0 55.5228 4.47715 60 10 60H50C55.5228 60 60 55.5228 60 50V10C60 4.47715 55.5228 0 50 0H10ZM48.3097 19.9875L48.3207 20.0318C49.4286 25.0921 49.4286 30.2235 48.3206 35.2836L48.3096 35.3279C47.4133 38.951 43.3726 42.8392 39.6618 43.6481L39.62 43.6567C36.6197 44.2291 33.5971 44.5148 30.5759 44.5148C29.6869 44.5148 28.7976 44.4871 27.9087 44.4374L23.8107 48.6971C22.7963 49.7536 21.0123 49.0346 21.0123 47.5706V43.526C17.44 42.5059 13.7003 38.7964 12.841 35.3278L12.831 35.2835C11.723 30.2235 11.723 25.0918 12.831 20.0318L12.841 19.9875C13.7384 16.3644 17.7792 12.4762 21.4887 11.6674L21.5318 11.6587C27.5325 10.5138 33.6182 10.5138 39.6202 11.6587L39.662 11.6674C43.3727 12.4762 47.4135 16.3641 48.3097 19.9875ZM38.9735 40.3955C41.4112 39.8525 44.4792 36.9138 45.0776 34.5499C46.076 29.9761 46.076 25.3395 45.0777 20.7656C44.4793 18.4017 41.4125 15.4629 38.9737 14.9199C33.4013 13.8599 27.7502 13.8599 22.1767 14.9199C19.739 15.4629 16.6722 18.4017 16.0727 20.7656C15.0754 25.3393 15.0754 29.976 16.0727 34.5497C16.6722 36.9136 19.739 39.8524 22.1767 40.3954C22.1774 40.3955 22.1779 40.3955 22.1786 40.3958C22.2873 40.4173 22.3663 40.5112 22.3663 40.6219V47.3223C22.3663 47.6571 22.7752 47.8223 23.0079 47.5797L26.1903 44.3133C26.1903 44.3133 28.7263 41.7098 29.1824 41.2417C29.2268 41.1959 29.2883 41.171 29.3522 41.1728C32.5656 41.2618 35.7823 41.0024 38.9735 40.3955ZM35.8781 37.6431C35.7566 37.6062 35.637 37.5733 35.5196 37.5409C35.2745 37.4733 35.0387 37.4083 34.8144 37.3154C31.3773 35.8894 28.2142 34.0497 25.7088 31.2298C24.284 29.6263 23.1688 27.8158 22.2261 25.8999C21.8251 25.085 21.4807 24.2415 21.1369 23.3993L21.1369 23.3993L21.1368 23.3992L21.1368 23.3991L21.0183 23.1091C20.6682 22.2537 21.1839 21.3701 21.7269 20.7254C22.2365 20.1204 22.8923 19.6576 23.6025 19.3163C24.1567 19.05 24.7034 19.2036 25.1083 19.6734C25.9833 20.6891 26.7873 21.7567 27.438 22.9342C27.8383 23.6584 27.7285 24.5436 27.003 25.0364C26.8617 25.1324 26.7305 25.2417 26.5995 25.351L26.5995 25.351L26.5994 25.351L26.5994 25.3511L26.5619 25.3823L26.5018 25.4321C26.3577 25.5507 26.2222 25.6705 26.1234 25.831C25.9429 26.1246 25.9343 26.4712 26.0504 26.7905C26.9449 29.2488 28.4527 31.1605 30.9272 32.1903C30.9625 32.205 30.9977 32.2198 31.033 32.2347C31.3944 32.3872 31.7613 32.542 32.177 32.4936C32.6712 32.4359 32.9493 32.0647 33.229 31.6913C33.3816 31.4875 33.5347 31.2831 33.7237 31.1286C34.2469 30.7007 34.9156 30.6951 35.4792 31.0518C36.043 31.4087 36.5894 31.7916 37.1327 32.1788L37.2445 32.2584L37.2446 32.2584C37.7401 32.6111 38.2312 32.9606 38.6885 33.3635C39.1616 33.7801 39.3244 34.3265 39.058 34.8916C38.5706 35.9269 37.8611 36.7879 36.8379 37.3377C36.6404 37.4435 36.4167 37.5005 36.1908 37.558L36.1908 37.558C36.0862 37.5846 35.9812 37.6114 35.8781 37.6431ZM39.564 25.6861C38.7727 21.2415 35.0801 18.2581 30.5846 18.1321C30.5591 18.132 30.5336 18.1316 30.5081 18.1312C30.4466 18.1302 30.3852 18.1292 30.3241 18.1328C30.0053 18.15 29.7228 18.4165 29.7824 18.7513C29.8496 19.1286 30.2287 19.1668 30.5412 19.1982L30.5953 19.2037C30.7536 19.2204 30.9122 19.2341 31.0709 19.2478C31.4219 19.2781 31.7729 19.3084 32.1184 19.37C35.4519 19.9645 38.1223 22.7352 38.5875 26.0842C38.6579 26.5901 38.6926 27.1015 38.7272 27.6125C38.736 27.742 38.7447 27.8714 38.7541 28.0007C38.7777 28.3237 38.9398 28.6254 39.3001 28.621C39.6489 28.6167 39.8321 28.3096 39.8068 27.9863L39.7988 27.8834L39.7848 27.7004V27.7003V27.7003C39.7336 27.026 39.6821 26.3496 39.564 25.6861ZM37.4167 26.9892C37.4148 27.0035 37.4132 27.0227 37.4112 27.0455C37.4054 27.1121 37.3971 27.209 37.3725 27.3015C37.2532 27.7528 36.5687 27.8093 36.4113 27.3539C36.3646 27.2189 36.3576 27.065 36.3574 26.9196C36.3558 25.9675 36.1489 25.0162 35.6687 24.1877C35.1751 23.3362 34.4209 22.6206 33.5365 22.1873C33.0017 21.9255 32.4234 21.7626 31.8372 21.6658C31.6782 21.6394 31.5181 21.6196 31.358 21.5998L31.3579 21.5997C31.2601 21.5876 31.1623 21.5755 31.0646 21.5619C30.7527 21.5185 30.586 21.3197 30.6009 21.0123C30.6147 20.7243 30.8252 20.5169 31.1392 20.5349C32.1708 20.5933 33.1674 20.8166 34.0848 21.3022C35.9499 22.29 37.0154 23.849 37.3265 25.931C37.3315 25.9649 37.3376 25.9986 37.3438 26.0324L37.3438 26.0325L37.3438 26.0325C37.3547 26.0927 37.3656 26.1527 37.3702 26.2133C37.3828 26.3806 37.3921 26.548 37.4029 26.7429C37.4072 26.8201 37.4117 26.9016 37.4167 26.9892ZM34.0045 26.3336C34.0434 26.6782 34.2447 26.8866 34.6207 26.8797C34.7919 26.8682 34.9674 26.7494 35.0227 26.5126C35.054 26.3775 35.0409 26.2291 35.0285 26.0877L35.0275 26.0761C34.8497 24.0242 33.6039 23.1231 31.861 22.9973C31.582 22.977 31.3338 23.1762 31.2911 23.4314C31.2441 23.7117 31.4094 23.9538 31.7083 24.0271C31.837 24.0586 31.9683 24.0706 32.0998 24.0825C32.2493 24.0961 32.3991 24.1098 32.5459 24.1522C32.763 24.2151 32.9704 24.3122 33.1533 24.4455C33.5409 24.7278 33.7858 25.1547 33.8988 25.6156C33.9484 25.8181 33.9712 26.028 33.9939 26.2366C33.9974 26.269 34.0009 26.3013 34.0045 26.3336Z" fill="#F6EEEC"/>
</svg>
