<svg width="60" height="60" viewBox="0 0 60 60" fill="none" xmlns="http://www.w3.org/2000/svg">
<path fill-rule="evenodd" clip-rule="evenodd" d="M14 0C6.26801 0 0 6.26801 0 14V46C0 53.732 6.26801 60 14 60H46C53.732 60 60 53.732 60 46V14C60 6.26801 53.732 0 46 0H14ZM31.2217 43.1578H28.867C28.867 43.1578 23.6717 43.4707 19.0966 38.7074C14.1071 33.512 9.70057 23.2026 9.70057 23.2026C9.70057 23.2026 9.44655 22.5266 9.72249 22.1999C10.0327 21.8325 10.8776 21.8089 10.8776 21.8089L16.5062 21.772C16.5062 21.772 17.0367 21.8608 17.4164 22.1394C17.7292 22.3694 17.9046 22.7994 17.9046 22.7994C17.9046 22.7994 18.8143 25.1 20.0191 27.1813C22.3705 31.2446 23.4658 32.1334 24.2642 31.6981C25.4273 31.0633 25.0787 25.954 25.0787 25.954C25.0787 25.954 25.1 24.0994 24.4931 23.2737C24.023 22.6336 23.1363 22.4469 22.7449 22.3945C22.4283 22.3523 22.9481 21.617 23.6219 21.287C24.6348 20.7907 26.4236 20.7624 28.5371 20.7843C30.1837 20.8009 30.6575 20.9036 31.3013 21.0592C32.7952 21.4199 32.7486 22.5756 32.6481 25.0693C32.618 25.8145 32.5832 26.6791 32.5832 27.6776C32.5832 27.9023 32.5767 28.1417 32.5699 28.3881C32.535 29.6652 32.4951 31.1274 33.3356 31.6708C33.7667 31.9489 34.8213 31.7125 37.4588 27.2337C38.7091 25.1112 39.6466 22.6154 39.6466 22.6154C39.6466 22.6154 39.8514 22.1705 40.1696 21.9795C40.4953 21.7849 40.9343 21.8448 40.9343 21.8448L46.8575 21.8079C46.8575 21.8079 48.6373 21.5956 48.9255 22.3988C49.2276 23.2421 48.2602 25.2112 45.8404 28.4365C43.5423 31.4994 42.4256 32.6252 42.5306 33.6224C42.6071 34.3493 43.333 35.0079 44.7237 36.2988C47.6393 39.0051 48.4164 40.4261 48.6011 40.7638C48.616 40.7911 48.6271 40.8113 48.6351 40.8246C49.94 42.9883 47.188 43.1578 47.188 43.1578L41.9274 43.2311C41.9274 43.2311 40.7969 43.4552 39.3091 42.4332C38.5311 41.8992 37.7704 41.0272 37.0457 40.1963C35.9378 38.9262 34.9138 37.7522 34.0399 38.0293C32.5736 38.4946 32.6196 41.654 32.6196 41.654C32.6196 41.654 32.6303 42.3289 32.296 42.6883C31.9329 43.0798 31.2217 43.1578 31.2217 43.1578Z" fill="#F6EEEC"/>
</svg>
