<svg width="56" height="60" viewBox="0 0 56 60" fill="none" xmlns="http://www.w3.org/2000/svg">
<path d="M39.7178 22.9147L43.2154 19.42C42.0735 18.279 42.0735 16.429 43.2154 15.2881L37.587 9.66406C36.4451 10.805 34.5937 10.805 33.4518 9.66406L20.1904 22.9148H39.7178V22.9147Z" fill="#E8CDC8"/>
<path d="M50.9202 46.5172V55.8351C50.9202 56.8393 50.1022 57.6562 49.0966 57.6562H9.98425V24.0865H49.0966C50.1021 24.0865 50.9202 24.9035 50.9202 25.9077V35.2255H53.264V25.9077C53.264 23.884 51.8124 22.1929 49.8953 21.8195L51.8437 19.8726C52.5169 19.1999 52.8877 18.3053 52.8877 17.3538C52.8877 16.4023 52.5169 15.5077 51.8437 14.835L38.0387 1.04118C36.6494 -0.347061 34.389 -0.347061 32.9997 1.04118L12.2818 21.7427H4.55854C2.26066 21.7427 0.391113 23.6111 0.391113 25.9077V55.8352C0.391113 58.1318 2.26054 60.0002 4.55854 60.0002H49.0966C51.3945 60.0002 53.264 58.1318 53.264 55.8352V46.5174H50.9202V46.5172ZM34.6563 2.6992C35.132 2.22387 35.9063 2.22387 36.382 2.6992L50.187 16.493C50.4171 16.723 50.5439 17.0287 50.5439 17.3538C50.5439 17.6789 50.4171 17.9846 50.187 18.2146L46.6561 21.7426H15.5978L34.6563 2.6992ZM7.64043 57.6562H4.55854C3.55304 57.6562 2.73493 56.8393 2.73493 55.8351V25.9077C2.73493 24.9035 3.55304 24.0865 4.55854 24.0865H7.64043V57.6562Z" fill="#70768A"/>
<path d="M55.6081 47.6893H42.0366C38.2712 47.6893 35.2188 44.6369 35.2188 40.8715C35.2188 37.1062 38.2712 34.0537 42.0366 34.0537H55.6081V47.6893Z" fill="#E8CDC8"/>
<path d="M42.8189 44.7653C40.6706 44.7653 38.9229 43.0185 38.9229 40.8714C38.9229 38.7243 40.6706 36.9775 42.8189 36.9775C44.9672 36.9775 46.715 38.7244 46.715 40.8714C46.715 43.0185 44.9672 44.7653 42.8189 44.7653ZM42.8189 39.3212C41.9629 39.3212 41.2667 40.0166 41.2667 40.8713C41.2667 41.7261 41.9629 42.4214 42.8189 42.4214C43.6748 42.4214 44.3712 41.726 44.3712 40.8713C44.3712 40.0166 43.6748 39.3212 42.8189 39.3212Z" fill="#70768A"/>
</svg>
