<svg width="60" height="60" viewBox="0 0 60 60" fill="none" xmlns="http://www.w3.org/2000/svg">
<path fill-rule="evenodd" clip-rule="evenodd" d="M0 10C0 4.47715 4.47715 0 10 0H50C55.5228 0 60 4.47715 60 10V50C60 55.5228 55.5228 60 50 60H10C4.47715 60 0 55.5228 0 50V10ZM28.8666 12.0207C19.4235 12.4699 11.9716 20.3343 12.0001 29.7878C12.0088 32.6671 12.7039 35.3849 13.9304 37.7867L12.0476 46.9254C11.9459 47.4199 12.3917 47.8528 12.8828 47.7363L21.8377 45.6149C24.1384 46.761 26.7226 47.4228 29.4574 47.4645C39.1091 47.6121 47.1567 39.9486 47.458 30.3003C47.7801 19.9582 39.2446 11.5263 28.8666 12.0207ZM39.5518 39.5515C36.9294 42.1739 33.4424 43.6183 29.7334 43.6183C27.5619 43.6183 25.4825 43.1309 23.5534 42.1701L22.3067 41.5488L16.816 42.8494L17.9716 37.2394L17.3574 36.0361C16.3558 34.0748 15.848 31.9543 15.848 29.7329C15.848 26.0238 17.2924 22.5371 19.9148 19.9145C22.5138 17.3152 26.0577 15.8477 29.7337 15.8477C33.4422 15.8477 36.9293 17.2921 39.5517 19.9145C42.1741 22.5369 43.6185 26.024 43.6185 29.7325C43.6187 33.4086 42.151 36.9523 39.5518 39.5515ZM34.9044 32.5922L38.3394 33.5784C39.1617 33.8148 39.5243 34.7747 39.0655 35.4981C38.3934 36.5583 37.3277 37.853 35.9941 38.1757C33.6428 38.7451 30.032 38.1895 25.5231 33.9807C21.6206 30.3379 20.5883 27.3043 20.8321 24.8975C20.9702 23.5324 22.1077 22.3005 23.0663 21.4896C23.7199 20.9368 24.7202 21.1648 25.0664 21.9475L26.5115 25.216C26.7014 25.6457 26.6408 26.1451 26.3535 26.5167L25.6204 27.4653C25.3111 27.8659 25.2693 28.4139 25.5215 28.8525C26.394 30.3722 29.8122 33.4115 31.4371 34.0692C31.906 34.2588 32.4433 34.143 32.7974 33.7819L33.6375 32.9263C33.9666 32.591 34.4531 32.4629 34.9044 32.5922Z" fill="#F6EEEC"/>
</svg>
