<svg width="60" height="60" viewBox="0 0 60 60" fill="none" xmlns="http://www.w3.org/2000/svg">
<path fill-rule="evenodd" clip-rule="evenodd" d="M0 0.999999C0 0.447714 0.447715 0 1 0H59C59.5523 0 60 0.447715 60 1V59C60 59.5523 59.5523 60 59 60H0.999999C0.447714 60 0 59.5523 0 59V0.999999ZM28.8666 12.0207C19.4235 12.4699 11.9716 20.3343 12.0001 29.7878C12.0088 32.6671 12.7039 35.3849 13.9304 37.7867L12.0476 46.9254C11.9459 47.4199 12.3917 47.8528 12.8828 47.7363L21.8377 45.6149C24.1384 46.761 26.7226 47.4228 29.4574 47.4645C39.1091 47.6121 47.1567 39.9486 47.458 30.3003C47.7801 19.9582 39.2446 11.5263 28.8666 12.0207ZM39.5518 39.5515C36.9294 42.1739 33.4424 43.6183 29.7334 43.6183C27.5619 43.6183 25.4825 43.1309 23.5534 42.1701L22.3067 41.5488L16.816 42.8494L17.9716 37.2394L17.3574 36.0361C16.3558 34.0748 15.848 31.9543 15.848 29.7329C15.848 26.0238 17.2924 22.5371 19.9148 19.9145C22.5138 17.3152 26.0577 15.8477 29.7337 15.8477C33.4422 15.8477 36.9293 17.2921 39.5517 19.9145C42.1741 22.5369 43.6185 26.024 43.6185 29.7325C43.6187 33.4086 42.151 36.9523 39.5518 39.5515ZM34.9046 32.5926L38.3396 33.5788C39.1619 33.8152 39.5245 34.7751 39.0657 35.4984C38.3936 36.5587 37.3279 37.8534 35.9944 38.1761C33.643 38.7455 30.0322 38.1899 25.5233 33.9811C21.6208 30.3382 20.5885 27.3046 20.8323 24.8979C20.9704 23.5328 22.1079 22.3009 23.0665 21.49C23.7201 20.9371 24.7205 21.1651 25.0666 21.9479L26.5117 25.2164C26.7016 25.646 26.641 26.1455 26.3537 26.517L25.6206 27.4657C25.3113 27.8663 25.2695 28.4143 25.5217 28.8528C26.3942 30.3726 29.8124 33.4119 31.4373 34.0695C31.9062 34.2592 32.4435 34.1434 32.7976 33.7822L33.6377 32.9266C33.9668 32.5914 34.4533 32.4632 34.9046 32.5926Z" fill="#F6EEEC"/>
</svg>
