<svg width="72" height="78" viewBox="0 0 72 78" fill="none" xmlns="http://www.w3.org/2000/svg">
<path d="M53.6433 29.3456C62.2986 31.8309 65.8177 32.6912 72 36.6103C67.0542 34.4118 60.0159 31.5441 50.6948 31.3529C49.7438 31.5441 45.9393 31.9265 44.5125 37.2794C44.7979 44.1618 41.6592 50.0882 34.716 55.4412C34.8403 57.4822 33.3708 56.4688 34.5258 58.9062C35.6956 62.988 39.2617 72.0414 41.8652 74.75C30.6419 65.9559 25.0144 44.8309 39.852 25.0441C41.2787 23.8015 42.4201 22.8456 45.1783 22.8456C50.4095 23.3235 50.4095 27.5294 53.6433 29.3456Z" fill="#E8CDC8"/>
<path d="M36.9036 27.9118C36.9987 28.1985 37.3792 28.1985 38.5205 26.9559C35.8574 31.2574 34.716 33.9338 33.5747 37.8529C34.716 30.3971 30.9115 28.3897 31.5773 22.0809C27.3924 24.375 25.2048 28.9632 27.8679 35.0809C27.2972 34.2206 25.2048 30.6838 17.8811 33.5515C20.7345 34.7941 20.9247 39.8603 27.3924 38.9044C25.2048 40.7206 26.251 42.25 24.6341 42.9191C28.5337 43.875 31.7675 38.6176 32.9089 40.7206C32.5813 42.696 32.4652 44.9549 32.3786 47.3752C32.3851 47.8175 32.3699 48.2267 32.3382 48.5588C32.3514 48.1604 32.3646 47.7657 32.3786 47.3752C32.3525 45.6034 31.9771 43.3015 30.9115 43.3015C27.3924 49.2279 20.6394 53.3382 11.033 53.0515C15.9789 48.8456 15.4082 43.4926 22.4465 40.4338C0.951121 40.8162 10.3672 30.1103 0 24.375C1.04624 23.5147 13.506 19.1176 19.498 26.6691C17.6909 20.4559 20.6394 7.26471 31.4822 0C29.7702 7.55147 37.9498 15.9632 36.9036 27.9118Z" fill="#E8CDC8"/>
<path d="M34.5258 55.5368C39.1863 48.75 45.2737 50.375 46.5102 47.9853C46.336 50.7866 45.6767 52.7414 44.7148 54.0844C51.5471 53.0051 55.2687 57.7518 58.5895 55.8235C57.1658 61.5466 50.7672 63.9953 45.5041 63.6515C48.0839 67.5778 45.2784 75.3866 46.5102 78C33.4798 70.4485 33.2893 60.6986 33.5746 56.9706C36.6183 55.7279 33.7951 61.8175 38.4254 62.5147C37.8547 60.8897 38.9007 60.125 37.4743 58.4044C39.757 61.0808 41.3741 58.978 42.991 59.5515C40.8032 55.264 37.9501 57.4485 37.5694 56.7794C39.0912 56.2059 38.6159 54.1985 39.4719 53.9118C36.7134 53.9118 34.5602 55.8713 34.1798 57.6875C33.7993 57.114 34.7066 55.6479 34.5258 55.5368Z" fill="#E8CDC8"/>
</svg>
