<svg width="32" height="32" viewBox="0 0 32 32" fill="none" xmlns="http://www.w3.org/2000/svg">
<path fill-rule="evenodd" clip-rule="evenodd" d="M13.918 -0.000113659L16.0001 -0.000108051C17.426 -9.81897e-05 19.7854 -0.000133224 22.2762 -0.000170208C26.3069 -0.000230057 30.6815 -0.000295013 32.0001 -0.000183074L32.0001 15.9999L32.0001 32L16.0001 31.9999L0 31.9999L8.0306e-05 15.9999L0.000256036 1.62761e-05C2.2009 -0.000154769 9.78001 -0.000128177 13.918 -0.000113659ZM24.7052 22.018C24.9322 21.4335 25.0877 20.7658 25.1322 19.7877C25.1771 18.808 25.1876 18.495 25.1876 15.9999C25.1876 13.5048 25.1771 13.1918 25.1324 12.2121C25.0877 11.234 24.9325 10.5663 24.7052 9.98183C24.4747 9.36879 24.1129 8.81362 23.6456 8.35463C23.1866 7.8871 22.6312 7.52527 22.0182 7.29456C21.4337 7.06775 20.766 6.91248 19.7879 6.86805C18.8082 6.82312 18.4952 6.81238 16.0001 6.81238C13.505 6.81238 13.192 6.82312 12.2122 6.8678C11.2342 6.91248 10.5665 7.06775 9.98201 7.2948C9.36897 7.52552 8.81355 7.8871 8.35481 8.35463C7.88728 8.81337 7.52547 9.36879 7.29476 9.98183C7.06771 10.5663 6.91243 11.234 6.868 12.2121C6.82308 13.1918 6.81258 13.5048 6.81258 15.9999C6.81258 18.495 6.82308 18.808 6.86824 19.788C6.91268 20.7658 7.06819 21.4337 7.29524 22.018C7.52596 22.631 7.88753 23.1864 8.35481 23.6452C8.8138 24.1127 9.36897 24.4743 9.98225 24.705C10.5665 24.932 11.2344 25.0873 12.2122 25.132C13.1922 25.1767 13.505 25.1874 16.0003 25.1874C18.4954 25.1874 18.8084 25.1767 19.7882 25.132C20.766 25.0873 21.4339 24.932 22.0182 24.705C23.2523 24.2277 24.2279 23.2521 24.7052 22.018ZM23.1621 10.5814C23.0149 10.1825 22.7801 9.8214 22.4749 9.52501C22.1785 9.21983 21.8177 8.98497 21.4185 8.83775C21.0948 8.71202 20.6084 8.56236 19.7127 8.52159C18.7437 8.4774 18.4532 8.46788 16 8.46788C13.5467 8.46788 13.2561 8.47716 12.2874 8.52135C11.3916 8.56236 10.9051 8.71202 10.5816 8.83775C10.1824 8.98497 9.82132 9.21983 9.52518 9.52501C9.22001 9.8214 8.98514 10.1822 8.83768 10.5814C8.71195 10.9051 8.56229 11.3917 8.52152 12.2875C8.47733 13.2562 8.46781 13.5467 8.46781 16.0001C8.46781 18.4532 8.47733 18.7438 8.52152 19.7128C8.56229 20.6085 8.71195 21.0948 8.83768 21.4186C8.98514 21.8177 9.21976 22.1786 9.52494 22.475C9.82132 22.7801 10.1822 23.015 10.5813 23.1622C10.9051 23.2882 11.3916 23.4379 12.2874 23.4786C13.2561 23.5228 13.5464 23.5321 15.9998 23.5321C18.4534 23.5321 18.7439 23.5228 19.7124 23.4786C20.6082 23.4379 21.0948 23.2882 21.4185 23.1622C22.2198 22.8531 22.8531 22.2198 23.1621 21.4186C23.2879 21.0948 23.4375 20.6085 23.4786 19.7128C23.5227 18.7438 23.532 18.4532 23.532 16.0001C23.532 13.5467 23.5227 13.2562 23.4786 12.2875C23.4378 11.3917 23.2881 10.9051 23.1621 10.5814ZM16 20.7176C13.3943 20.7176 11.282 18.6056 11.282 15.9999C11.282 13.3941 13.3943 11.2821 16 11.2821C18.6055 11.2821 20.7178 13.3941 20.7178 15.9999C20.7178 18.6056 18.6055 20.7176 16 20.7176ZM20.9043 12.1981C20.2954 12.1981 19.8018 11.7045 19.8018 11.0956C19.8018 10.4867 20.2954 9.99303 20.9043 9.99303C21.5132 9.99303 22.0069 10.4867 22.0069 11.0956C22.0066 11.7045 21.5132 12.1981 20.9043 12.1981ZM19.0626 15.9999C19.0626 17.6913 17.6915 19.0624 16.0001 19.0624C14.3086 19.0624 12.9376 17.6913 12.9376 15.9999C12.9376 14.3085 14.3086 12.9374 16.0001 12.9374C17.6915 12.9374 19.0626 14.3085 19.0626 15.9999Z" fill="#869BD8"/>
</svg>
