<svg width="60" height="60" viewBox="0 0 60 60" fill="none" xmlns="http://www.w3.org/2000/svg">
<g clip-path="url(#clip0_4336_35410)">
<path d="M37.5243 55.5178H10.7238V15.5902H17.0001V21.6258C17.0001 22.273 17.5247 22.7977 18.172 22.7977C18.8191 22.7977 19.3438 22.273 19.3438 21.6258V15.5902H35.4155V21.6258C35.4155 22.273 35.9403 22.7977 36.5874 22.7977C37.2345 22.7977 37.7593 22.273 37.7593 21.6258V15.5902H43.8397V28.0065H46.1834V14.4183C46.1834 13.7711 45.6586 13.2464 45.0115 13.2464H37.7593V10.3274C37.7593 4.63289 33.1031 0 27.3797 0C26.0679 0 24.8122 0.243398 23.6556 0.687187C22.4991 0.243398 21.2433 0 19.9315 0C14.2081 0 9.55189 4.63289 9.55189 10.3274V13.2463H2.29962C1.65251 13.2463 1.12775 13.7709 1.12775 14.4182V52.2881C1.12775 55.3612 3.63193 57.8614 6.70997 57.8614H41.0615C39.9039 57.2367 38.6776 56.4612 37.5243 55.5178ZM27.3797 2.34375C31.8107 2.34375 35.4155 5.92523 35.4155 10.3274V13.2463H30.3111V10.3274C30.3111 7.13754 28.8501 4.28098 26.559 2.385C26.8288 2.35781 27.1027 2.34375 27.3797 2.34375ZM23.6556 3.25406C26.2167 4.59035 27.9674 7.25965 27.9674 10.3275V13.2464H19.3438V10.3274C19.3438 7.25953 21.0946 4.59035 23.6556 3.25406ZM11.8956 10.3274C11.8956 5.92523 15.5006 2.34375 19.9315 2.34375C20.2086 2.34375 20.4823 2.3577 20.7522 2.38512C18.4611 4.28098 17 7.13766 17 10.3275V13.2464H11.8955V10.3274H11.8956ZM8.38001 55.5178H6.70997C4.92427 55.5178 3.4715 54.069 3.4715 52.2882V15.5902H8.38001V55.5178Z" fill="#70768A"/>
<path d="M55.176 31.8858C51.6333 31.8858 48.5776 29.8199 47.1559 26.8345H42.9894C41.5677 29.8198 38.512 31.8858 34.9693 31.8858C33.65 31.8858 32.3984 31.5991 31.273 31.0854V45.6813C31.273 56.3569 45.0727 59.9999 45.0727 59.9999C45.0727 59.9999 58.8723 56.3569 58.8723 45.6813V31.0854C57.747 31.5991 56.4952 31.8858 55.176 31.8858Z" fill="#E8CDC8"/>
<path d="M44.6195 47.5371C44.3106 47.5371 44.0134 47.415 43.7933 47.1962L41.2466 44.6639C40.7876 44.2075 40.7855 43.4656 41.2419 43.0066C41.6981 42.5476 42.4401 42.5455 42.8992 43.002L44.544 44.6374L48.8176 39.5709C49.235 39.0762 49.9743 39.0136 50.4689 39.4308C50.9637 39.8481 51.0265 40.5874 50.6091 41.0822L45.5154 47.121C45.3042 47.3713 44.9981 47.5218 44.6709 47.5361C44.6537 47.5368 44.6367 47.5371 44.6195 47.5371Z" fill="#70768A"/>
</g>
<defs>
<clipPath id="clip0_4336_35410">
<rect width="60" height="60" fill="white"/>
</clipPath>
</defs>
</svg>
