<svg width="50" height="51" viewBox="0 0 50 51" fill="none" xmlns="http://www.w3.org/2000/svg">
<g clip-path="url(#clip0_4336_35339)">
<path d="M27.494 41.8368C27.3102 41.3298 26.75 41.0677 26.2432 41.2515C25.7362 41.4352 25.4741 41.9953 25.6578 42.5023L27.8487 48.5468H22.1515L24.2653 42.715C24.449 42.208 24.1869 41.648 23.6799 41.4642C23.1729 41.2805 22.6129 41.5425 22.4291 42.0495L19.8409 49.1906C19.7324 49.4899 19.7767 49.8234 19.9595 50.084C20.1423 50.3446 20.4406 50.4999 20.759 50.4999H29.2414C29.5598 50.4999 29.8582 50.3447 30.041 50.084C30.2238 49.8234 30.268 49.49 30.1595 49.1906L27.494 41.8368Z" fill="#70768A"/>
<path d="M46.4324 12.6078C47.1747 11.9552 47.4258 11.1315 47.5104 10.6528C47.9199 8.3363 46.2122 5.38179 43.9964 4.57305C43.5364 4.40518 42.6904 4.20783 41.7475 4.52715C41.6196 3.88178 41.3224 3.40183 41.0629 3.0873C39.7079 1.44511 36.9181 1.1505 35.0037 1.81462C33.814 2.22719 32.9777 2.95996 32.5863 3.89965C32.5766 3.89594 32.5667 3.89232 32.5569 3.88881C32.0494 3.70366 31.1027 3.48522 30.0542 3.8769C29.8702 2.78214 29.2141 2.07632 28.8031 1.73122C26.8484 0.0894291 23.1519 0.0894291 21.1972 1.73122C20.7862 2.07642 20.1301 2.78224 19.9461 3.8769C18.8977 3.48522 17.9509 3.70366 17.4433 3.88891C17.4336 3.89242 17.424 3.89604 17.4142 3.89965C17.0362 2.99257 16.2422 2.2767 15.1103 1.85563C13.1899 1.14122 10.3649 1.3955 8.96189 3.058C8.69266 3.37702 8.38321 3.86635 8.25197 4.52705C7.30915 4.20793 6.4637 4.40528 6.00376 4.57314C3.78798 5.38179 2.08017 8.33639 2.48972 10.6529C2.57438 11.1316 2.82544 11.9553 3.56778 12.6079C2.82544 13.2605 2.57438 14.0841 2.48972 14.563C2.08027 16.8793 3.78798 19.8339 6.00376 20.6426C6.46399 20.8106 7.31072 21.0081 8.25421 20.6879C8.37383 21.2943 8.64101 21.7499 8.87654 22.0526C9.66233 23.0621 10.9692 23.5756 12.2916 23.7002L19.9751 37.4045C20.1541 37.7239 20.4859 37.9036 20.8278 37.9036C20.9894 37.9036 21.1533 37.8633 21.3044 37.7787C21.7748 37.5149 21.9423 36.9197 21.6786 36.4493L14.4517 23.5594C14.5323 23.5403 14.6116 23.5197 14.6896 23.4976C16.0341 23.1154 16.986 22.3419 17.413 21.3156C17.4231 21.3194 17.4331 21.3231 17.4432 21.3267C17.9507 21.512 18.8976 21.7303 19.946 21.3387C20.13 22.4334 20.7861 23.1392 21.1971 23.4844C21.948 24.1151 22.956 24.5035 24.0235 24.6496V39.1298C24.0235 39.6691 24.4607 40.1063 25 40.1063C25.5393 40.1063 25.9765 39.6691 25.9765 39.1298V24.6496C27.044 24.5035 28.0519 24.1151 28.8029 23.4844C29.2139 23.1392 29.87 22.4335 30.054 21.3387C31.1024 21.7304 32.0492 21.512 32.5567 21.3267C32.5667 21.3231 32.5766 21.3195 32.5864 21.3158C32.99 22.2853 33.8656 23.0326 35.1082 23.4361C35.2478 23.4814 35.392 23.5218 35.5401 23.5573L27.8036 37.1634C27.537 37.6322 27.701 38.2283 28.1698 38.4949C28.3222 38.5815 28.4879 38.6228 28.6516 38.6228C28.9913 38.6228 29.3215 38.4452 29.5014 38.1287L37.7002 23.7096C39.001 23.5933 40.2812 23.0952 41.0844 22.1018C41.3353 21.7913 41.6217 21.3199 41.7468 20.6881C42.6899 21.0078 43.5362 20.8103 43.9963 20.6424C46.2121 19.8337 47.9199 16.8791 47.5103 14.5628C47.4258 14.084 47.1747 13.2604 46.4324 12.6078ZM14.1555 21.619C12.7613 22.0154 11.0495 21.6646 10.4178 20.8529C9.98516 20.2972 10.0621 19.5038 10.6465 18.4946C10.9168 18.0279 10.7576 17.4305 10.2908 17.1602C9.82424 16.89 9.22671 17.0491 8.95642 17.5159C7.94046 19.2704 6.98652 18.9222 6.67325 18.8079C5.35204 18.3257 4.16901 16.282 4.41284 14.9029C4.56742 14.028 5.3289 13.5844 6.67589 13.5844C7.21521 13.5844 7.65239 13.1472 7.65239 12.6079C7.65239 12.0686 7.21521 11.6314 6.67589 11.6314C5.3289 11.6314 4.56752 11.1878 4.41284 10.3129C4.16901 8.93382 5.35204 6.89009 6.67325 6.4079C6.98652 6.29364 7.93929 5.94581 8.95466 7.69698C8.95525 7.69805 8.95583 7.69893 8.95642 7.69991C9.22671 8.16658 9.82404 8.32594 10.2908 8.05565C10.7575 7.78535 10.9167 7.18793 10.6465 6.72126C10.6459 6.71999 10.6452 6.71891 10.6445 6.71774C10.0468 5.68401 9.98282 4.87654 10.4543 4.31779C11.1763 3.46227 13.0338 3.16717 14.4293 3.68628C14.9715 3.88793 15.6074 4.27736 15.7001 5.00525C14.2403 6.39286 13.326 8.60767 13.6514 10.4488C13.7449 10.9777 14.0289 11.9001 14.8884 12.6081C14.0289 13.316 13.7449 14.2385 13.6514 14.7675C13.3259 16.6088 14.2406 18.8241 15.7008 20.2117C15.5955 21.0834 14.689 21.4673 14.1555 21.619ZM29.2712 18.0347C29.001 17.5681 28.4036 17.4087 27.9368 17.6791C27.6241 17.8601 27.4494 18.188 27.4495 18.525C27.4495 18.6911 27.4919 18.8594 27.5812 19.0134C28.3429 20.3289 28.3315 21.3299 27.547 21.9888C26.333 23.0083 23.6671 23.0083 22.4532 21.9888C21.6687 21.3299 21.6572 20.3289 22.419 19.0134C22.5081 18.8593 22.5506 18.691 22.5506 18.525C22.5506 18.1879 22.3759 17.86 22.0633 17.6791C21.5968 17.4089 20.9992 17.5681 20.7289 18.0347C19.9638 19.356 19.0835 19.8462 18.1128 19.4921C16.6003 18.9401 15.2956 16.6861 15.5748 15.1071C15.7534 14.0966 16.619 13.5843 18.1479 13.5843C18.6872 13.5843 19.1244 13.1471 19.1244 12.6078C19.1244 12.0685 18.6872 11.6313 18.1479 11.6313C16.6191 11.6313 15.7535 11.119 15.5748 10.1086C15.2956 8.52955 16.6003 6.27558 18.1128 5.72346C19.0833 5.36919 19.9637 5.85949 20.7288 7.1808C20.9991 7.64747 21.5965 7.80683 22.0632 7.53654C22.3759 7.35549 22.5506 7.02759 22.5505 6.69059C22.5505 6.52449 22.5081 6.35624 22.4189 6.20215C21.6571 4.8866 21.6685 3.88559 22.4531 3.22674C23.667 2.20717 26.3329 2.20717 27.5469 3.22674C28.3313 3.88559 28.3428 4.8866 27.5811 6.20215C27.4918 6.35624 27.4494 6.52449 27.4494 6.69059C27.4493 7.02768 27.6241 7.35559 27.9367 7.53654C28.4033 7.80674 29.0007 7.64757 29.2711 7.1808C30.0362 5.85949 30.9164 5.36899 31.8872 5.72346C33.3998 6.27548 34.7044 8.52945 34.4252 10.1086C34.2466 11.119 33.3809 11.6313 31.8521 11.6313C31.3128 11.6313 30.8756 12.0685 30.8756 12.6078C30.8756 13.1471 31.3128 13.5843 31.8521 13.5843C33.3808 13.5843 34.2466 14.0967 34.4252 15.1071C34.7044 16.6861 33.3998 18.9401 31.8872 19.4921C30.9163 19.8462 30.0363 19.356 29.2712 18.0347ZM43.3242 13.5843C44.6711 13.5843 45.4325 14.0279 45.5872 14.9028C45.831 16.2819 44.648 18.3256 43.3268 18.8078C43.0133 18.9222 42.0596 19.2702 41.0436 17.5158C40.7733 17.0491 40.1759 16.8899 39.7092 17.1601C39.2426 17.4304 39.0833 18.0278 39.3535 18.4945C39.945 19.5159 40.0163 20.3163 39.5657 20.8738C38.8866 21.7136 37.1217 22.0364 35.7115 21.5785C35.1126 21.384 34.395 20.9903 34.2992 20.2113C35.7595 18.8237 36.6741 16.6085 36.3486 14.7672C36.2552 14.2382 35.9712 13.3158 35.1117 12.6078C35.9712 11.8999 36.2552 10.9774 36.3486 10.4485C36.6741 8.60718 35.7597 6.39217 34.2995 5.00456C34.3937 4.25031 35.072 3.85805 35.6437 3.65982C37.0353 3.17723 38.8636 3.49049 39.5565 4.33029C40.0172 4.88865 39.949 5.693 39.3536 6.72096C39.0833 7.18763 39.2426 7.78506 39.7093 8.05536C40.1759 8.32565 40.7733 8.16638 41.0437 7.69961C42.0597 5.94513 43.0135 6.29335 43.3269 6.4076C44.6481 6.8898 45.8311 8.93362 45.5873 10.3126C45.4327 11.1875 44.6712 11.6311 43.3243 11.6311C42.7849 11.6311 42.3478 12.0683 42.3478 12.6076C42.3477 13.1471 42.7848 13.5843 43.3242 13.5843Z" fill="#70768A"/>
<path d="M34.2611 37.3807C33.9594 36.2777 33.2836 35.2999 32.1556 34.9562C32.1556 34.9562 29.2129 34.075 26.2711 37.3136C26.0983 37.2708 25.9178 37.2479 25.7323 37.2479H24.237C24.0604 37.2479 23.8885 37.2685 23.7232 37.3076C20.7833 34.0761 17.8442 34.9562 17.8442 34.9562C16.7162 35.3 16.0403 36.2777 15.7387 37.3807C15.3252 38.892 15.3604 40.671 15.5792 42.2169C15.775 43.5984 16.4231 44.9948 17.8442 45.4279C17.8442 45.4279 20.7294 46.2917 23.642 43.1647C23.8317 43.2171 24.0312 43.2451 24.2369 43.2451H25.7322C25.9466 43.2451 26.1543 43.2146 26.3514 43.1579C29.2663 46.293 32.1556 45.4279 32.1556 45.4279C33.5767 44.9948 34.2249 43.5983 34.4206 42.2169C34.6394 40.671 34.6745 38.892 34.2611 37.3807Z" fill="#E8CDC8"/>
<path d="M25.0001 15.907C26.8277 15.907 28.3092 14.4299 28.3092 12.6078C28.3092 10.7857 26.8277 9.30859 25.0001 9.30859C23.1725 9.30859 21.6909 10.7857 21.6909 12.6078C21.6909 14.4299 23.1725 15.907 25.0001 15.907Z" fill="#E8CDC8"/>
</g>
<defs>
<clipPath id="clip0_4336_35339">
<rect width="50" height="50" fill="white" transform="translate(0 0.5)"/>
</clipPath>
</defs>
</svg>
