<svg width="60" height="60" viewBox="0 0 60 60" fill="none" xmlns="http://www.w3.org/2000/svg">
<g clip-path="url(#clip0_4336_35367)">
<path d="M49.2466 14.6713L31.172 2.89992V1.17188C31.172 0.524648 30.6473 0 30.0001 0C29.3529 0 28.8282 0.524648 28.8282 1.17188V2.89992L10.7536 14.6713C10.4215 14.8876 10.2212 15.257 10.2212 15.6533V58.8281C10.2212 59.4754 10.7458 60 11.3931 60H48.6071C49.2544 60 49.779 59.4754 49.779 58.8281V15.6533C49.779 15.257 49.5787 14.8875 49.2466 14.6713ZM30.0001 15.432C30.6473 15.432 31.172 14.9073 31.172 14.2601V13.4808C31.8764 13.8858 32.3515 14.6441 32.3515 15.5108C32.3515 16.8023 31.2967 17.853 30.0001 17.853C28.7035 17.853 27.6487 16.8023 27.6487 15.5108C27.6487 14.6441 28.1238 13.8858 28.8282 13.4808V14.2601C28.8282 14.9073 29.3529 15.432 30.0001 15.432ZM47.4353 57.6562H12.5649V16.2886L28.8282 5.69695V10.9727C26.8044 11.4935 25.305 13.3308 25.305 15.5109C25.305 18.0948 27.4112 20.1969 30.0001 20.1969C32.589 20.1969 34.6952 18.0948 34.6952 15.5109C34.6952 13.3308 33.1957 11.4935 31.172 10.9727V5.69695L47.4353 16.2886V57.6562Z" fill="#70768A"/>
<path d="M17.027 27.1765H42.9732V53.2089H17.027V27.1765Z" fill="#E8CDC8"/>
<path d="M26.8364 48.4823C26.6852 48.4823 26.5316 48.4529 26.3835 48.3906C25.7866 48.1402 25.506 47.4534 25.7564 46.8566L31.9871 32.0102C32.2376 31.4133 32.9244 31.1327 33.5211 31.3831C34.1179 31.6335 34.3986 32.3204 34.1482 32.9171L27.9174 47.7634C27.7292 48.2123 27.2942 48.4823 26.8364 48.4823Z" fill="#70768A"/>
<path d="M25.0583 39.3419C22.894 39.3419 21.1333 37.3811 21.1333 34.9708C21.1333 32.5605 22.894 30.5997 25.0583 30.5997C27.2225 30.5997 28.9832 32.5605 28.9832 34.9708C28.9832 37.3811 27.2225 39.3419 25.0583 39.3419ZM25.0583 32.9435C24.2012 32.9435 23.4771 33.8718 23.4771 34.9708C23.4771 36.0697 24.2012 36.9982 25.0583 36.9982C25.9154 36.9982 26.6395 36.0698 26.6395 34.9708C26.6395 33.8718 25.9154 32.9435 25.0583 32.9435Z" fill="#70768A"/>
<path d="M34.6449 49.4927C32.4807 49.4927 30.72 47.5319 30.72 45.1216C30.72 42.7114 32.4807 40.7505 34.6449 40.7505C36.8092 40.7505 38.5699 42.7113 38.5699 45.1216C38.5698 47.5319 36.809 49.4927 34.6449 49.4927ZM34.6449 43.0944C33.7878 43.0944 33.0637 44.0227 33.0637 45.1217C33.0637 46.2207 33.7878 47.149 34.6449 47.149C35.502 47.149 36.2261 46.2207 36.2261 45.1217C36.2261 44.0227 35.502 43.0944 34.6449 43.0944Z" fill="#70768A"/>
</g>
<defs>
<clipPath id="clip0_4336_35367">
<rect width="60" height="60" fill="white"/>
</clipPath>
</defs>
</svg>
