<svg width="50" height="50" viewBox="0 0 50 50" fill="none" xmlns="http://www.w3.org/2000/svg">
<path d="M42.1875 3.125H7.8125L3.125 14.0625H46.875L42.1875 3.125Z" fill="#E8CDC8"/>
<path d="M6.25 21.4238C6.9948 21.7241 7.7907 21.8773 8.59375 21.875C11.6143 21.875 14.0625 19.7764 14.0625 17.1875H3.125C3.125 19.0576 4.40234 20.6719 6.25 21.4238Z" fill="#E8CDC8"/>
<path d="M35.9375 17.1875H25C25 19.7764 27.4482 21.875 30.4688 21.875C33.4893 21.875 35.9375 19.7764 35.9375 17.1875Z" fill="#E8CDC8"/>
<path d="M47.5918 17.9688H48.4375C48.6447 17.9688 48.8434 17.8864 48.9899 17.7399C49.1364 17.5934 49.2188 17.3947 49.2188 17.1875V14.0625C49.2188 13.8553 49.1364 13.6566 48.9899 13.5101C48.8434 13.3636 48.6447 13.2812 48.4375 13.2812H47.3906L42.9053 2.81738C42.8451 2.67687 42.745 2.55711 42.6174 2.47292C42.4898 2.38873 42.3404 2.34382 42.1875 2.34375H7.8125C7.65964 2.34382 7.51016 2.38873 7.38258 2.47292C7.255 2.55711 7.15491 2.67687 7.09473 2.81738L2.60938 13.2812H1.5625C1.3553 13.2812 1.15659 13.3636 1.01007 13.5101C0.86356 13.6566 0.78125 13.8553 0.78125 14.0625V17.1875C0.78125 17.3947 0.86356 17.5934 1.01007 17.7399C1.15659 17.8864 1.3553 17.9688 1.5625 17.9688H2.4082C2.68555 19.6572 3.84766 21.0977 5.46875 21.9209V41.4062H4.6875C4.4803 41.4062 4.28159 41.4886 4.13507 41.6351C3.98856 41.7816 3.90625 41.9803 3.90625 42.1875V43.75H1.5625C1.3553 43.75 1.15659 43.8323 1.01007 43.9788C0.86356 44.1253 0.78125 44.3241 0.78125 44.5312V46.875C0.78125 47.0822 0.86356 47.2809 1.01007 47.4274C1.15659 47.5739 1.3553 47.6562 1.5625 47.6562H48.4375C48.6447 47.6562 48.8434 47.5739 48.9899 47.4274C49.1364 47.2809 49.2188 47.0822 49.2188 46.875V44.5312C49.2188 44.3241 49.1364 44.1253 48.9899 43.9788C48.8434 43.8323 48.6447 43.75 48.4375 43.75H46.0938V42.1875C46.0938 41.9803 46.0114 41.7816 45.8649 41.6351C45.7184 41.4886 45.5197 41.4062 45.3125 41.4062H44.5312V21.9209C46.1523 21.0977 47.3145 19.6572 47.5918 17.9688ZM8.32812 3.90625H41.6719L45.6904 13.2812H4.30957L8.32812 3.90625ZM2.34375 16.4062V14.8438H47.6562V16.4062H2.34375ZM17.9688 24.2188H8.59375C8.38655 24.2188 8.18784 24.3011 8.04132 24.4476C7.89481 24.5941 7.8125 24.7928 7.8125 25V41.4062H7.03125V22.4834C7.54412 22.5985 8.06814 22.6564 8.59375 22.6562C10.9443 22.6562 12.9961 21.5146 14.0625 19.8311C15.1289 21.5146 17.1807 22.6562 19.5312 22.6562C21.8818 22.6562 23.9336 21.5146 25 19.8311C26.0664 21.5146 28.1182 22.6562 30.4688 22.6562C32.8193 22.6562 34.8711 21.5146 35.9375 19.8311C37.0039 21.5146 39.0557 22.6562 41.4062 22.6562C41.9319 22.6564 42.4559 22.5985 42.9688 22.4834V41.4062H18.75V25C18.75 24.7928 18.6677 24.5941 18.5212 24.4476C18.3747 24.3011 18.176 24.2188 17.9688 24.2188ZM17.1875 25.7812V41.4062H9.375V25.7812H17.1875ZM14.9385 17.9688H24.124C23.6885 19.75 21.7949 21.0938 19.5312 21.0938C17.2676 21.0938 15.374 19.75 14.9385 17.9688ZM25.876 17.9688H35.0615C34.626 19.75 32.7324 21.0938 30.4688 21.0938C28.2051 21.0938 26.3115 19.75 25.876 17.9688ZM4.00098 17.9688H13.1865C12.751 19.75 10.8574 21.0938 8.59375 21.0938C6.33008 21.0938 4.43652 19.75 4.00098 17.9688ZM5.46875 42.9688H44.5312V43.75H5.46875V42.9688ZM47.6562 45.3125V46.0938H2.34375V45.3125H47.6562ZM41.4062 21.0938C39.1426 21.0938 37.249 19.75 36.8135 17.9688H45.999C45.5635 19.75 43.6699 21.0938 41.4062 21.0938Z" fill="#70768A"/>
<path d="M21.0938 24.2188C20.8865 24.2188 20.6878 24.3011 20.5413 24.4476C20.3948 24.5941 20.3125 24.7928 20.3125 25V36.7188C20.3125 36.926 20.3948 37.1247 20.5413 37.2712C20.6878 37.4177 20.8865 37.5 21.0938 37.5H41.4062C41.6135 37.5 41.8122 37.4177 41.9587 37.2712C42.1052 37.1247 42.1875 36.926 42.1875 36.7188V25C42.1875 24.7928 42.1052 24.5941 41.9587 24.4476C41.8122 24.3011 41.6135 24.2188 41.4062 24.2188H21.0938ZM40.625 35.9375H21.875V25.7812H40.625V35.9375Z" fill="#70768A"/>
<path d="M15.625 35.9375C15.8322 35.9375 16.0309 35.8552 16.1774 35.7087C16.3239 35.5622 16.4062 35.3635 16.4062 35.1562V32.0312C16.4062 31.824 16.3239 31.6253 16.1774 31.4788C16.0309 31.3323 15.8322 31.25 15.625 31.25C15.4178 31.25 15.2191 31.3323 15.0726 31.4788C14.9261 31.6253 14.8438 31.824 14.8438 32.0312V35.1562C14.8438 35.3635 14.9261 35.5622 15.0726 35.7087C15.2191 35.8552 15.4178 35.9375 15.625 35.9375Z" fill="#70768A"/>
</svg>
