<svg width="50" height="50" viewBox="0 0 50 50" fill="none" xmlns="http://www.w3.org/2000/svg">
<path d="M49.0234 33.2377H48.9938V27.5525C48.9934 27.3754 48.958 27.2738 48.9232 27.1873L45.3832 17.8229C45.2397 17.443 44.876 17.1916 44.4697 17.1916H38.6932V11.0709C38.6932 9.60371 37.5003 8.41016 36.0341 8.41016H18.8279C19.1415 9.02842 19.396 9.68193 19.5839 10.3633H36.0341C36.4234 10.3633 36.7401 10.6808 36.7401 11.0709V33.2376H8.81829V22.5779C8.14358 22.4706 7.49045 22.2986 6.86516 22.0685V33.2377H6.83557C6.29622 33.2377 5.85901 33.6749 5.85901 34.2143V40.2211C5.85901 40.7605 6.29622 41.1977 6.83557 41.1977H11.3675C11.2962 41.5371 11.2587 41.889 11.2587 42.2494C11.2587 45.0546 13.5296 47.3368 16.321 47.3368C19.1123 47.3368 21.3833 45.0546 21.3833 42.2494C21.3833 41.889 21.3458 41.5371 21.2745 41.1977H35.6534C35.5822 41.5371 35.5447 41.889 35.5447 42.2494C35.5447 45.0546 37.8156 47.3368 40.6071 47.3368C43.3985 47.3368 45.6694 45.0546 45.6694 42.2494C45.6694 41.889 45.6319 41.5371 45.5606 41.1977H49.0234C49.5626 41.1977 49.9999 40.7605 49.9999 40.2211V34.2143C49.9999 33.675 49.5626 33.2377 49.0234 33.2377ZM38.6934 19.1448H43.7949L46.6041 26.576H38.6934V19.1448ZM38.6934 28.5291H47.0407V33.2372H38.6934V28.5291ZM16.3211 45.3837C14.6067 45.3837 13.2119 43.9777 13.2119 42.2494C13.2119 40.5212 14.6068 39.1151 16.3211 39.1151C18.0355 39.1151 19.4303 40.5211 19.4303 42.2494C19.4303 43.9777 18.0356 45.3837 16.3211 45.3837ZM40.6071 45.3837C38.8926 45.3837 37.4978 43.9777 37.4978 42.2494C37.4978 40.5212 38.8926 39.1151 40.6071 39.1151C42.3215 39.1151 43.7162 40.5211 43.7162 42.2494C43.7162 43.9777 42.3215 45.3837 40.6071 45.3837ZM48.0468 39.2445H44.7031C44.6987 39.2445 44.6943 39.2446 44.6899 39.2447C43.7678 37.9827 42.2811 37.1621 40.6072 37.1621C38.9333 37.1621 37.4466 37.9827 36.5245 39.2446H20.4178C20.4131 39.2446 20.4085 39.2447 20.4038 39.2448C19.4817 37.9828 17.9949 37.1622 16.3211 37.1622C14.6473 37.1622 13.1607 37.9828 12.2385 39.2447H7.81223V35.191H48.0468V39.2445Z" fill="#70768A"/>
<path d="M10.4694 23.6846C16.2515 23.6846 20.9389 18.9788 20.9389 13.174C20.9389 7.36911 16.2515 2.66333 10.4694 2.66333C4.68733 2.66333 0 7.36911 0 13.174C0 18.9788 4.68733 23.6846 10.4694 23.6846Z" fill="#E8CDC8"/>
<path d="M12.2909 14.6077H10.4695C9.93019 14.6077 9.49298 14.1705 9.49298 13.6312V10.5835C9.49298 10.0441 9.93019 9.60693 10.4695 9.60693C11.0089 9.60693 11.4461 10.0441 11.4461 10.5835V12.6546H12.2909C12.8303 12.6546 13.2675 13.0918 13.2675 13.6312C13.2675 14.1706 12.8303 14.6077 12.2909 14.6077Z" fill="#70768A"/>
</svg>
