<svg width="50" height="51" viewBox="0 0 50 51" fill="none" xmlns="http://www.w3.org/2000/svg">
<g clip-path="url(#clip0_4336_35351)">
<path d="M34.7651 19.5957L37.6797 16.6834C36.7281 15.7326 36.7281 14.1909 37.6797 13.2401L32.9893 8.55347C32.0377 9.50428 30.4949 9.50428 29.5433 8.55347L18.4922 19.5958H34.7651V19.5957Z" fill="#E8CDC8"/>
<path d="M44.1004 39.2644V47.0292C44.1004 47.8661 43.4187 48.5469 42.5807 48.5469H9.98706V20.5721H42.5807C43.4186 20.5721 44.1004 21.2529 44.1004 22.0897V29.8546H46.0535V22.0897C46.0535 20.4034 44.8438 18.994 43.2462 18.6829L44.8699 17.0605C45.431 16.4999 45.74 15.7544 45.74 14.9615C45.74 14.1686 45.431 13.4231 44.8699 12.8625L33.3658 1.36765C32.208 0.210783 30.3244 0.210783 29.1666 1.36765L11.9017 18.6189H5.46564C3.55074 18.6189 1.99278 20.1759 1.99278 22.0897V47.0293C1.99278 48.9432 3.55064 50.5001 5.46564 50.5001H42.5807C44.4956 50.5001 46.0535 48.9432 46.0535 47.0293V39.2645H44.1004V39.2644ZM30.5471 2.74933C30.9435 2.35323 31.5888 2.35323 31.9852 2.74933L43.4893 14.2442C43.6811 14.4358 43.7868 14.6906 43.7868 14.9615C43.7868 15.2324 43.6811 15.4872 43.4893 15.6788L40.5469 18.6188H14.665L30.5471 2.74933ZM8.03388 48.5469H5.46564C4.62772 48.5469 3.94596 47.8661 3.94596 47.0292V22.0897C3.94596 21.2529 4.62772 20.5721 5.46564 20.5721H8.03388V48.5469Z" fill="#70768A"/>
<path d="M48.0068 40.2408H36.6972C33.5594 40.2408 31.0156 37.6971 31.0156 34.5593C31.0156 31.4215 33.5594 28.8778 36.6972 28.8778H48.0068V40.2408Z" fill="#E8CDC8"/>
<path d="M37.3493 37.8045C35.5591 37.8045 34.1026 36.3488 34.1026 34.5596C34.1026 32.7703 35.5591 31.3147 37.3493 31.3147C39.1396 31.3147 40.5961 32.7704 40.5961 34.5596C40.5961 36.3488 39.1396 37.8045 37.3493 37.8045ZM37.3493 33.2678C36.636 33.2678 36.0558 33.8473 36.0558 34.5595C36.0558 35.2718 36.636 35.8512 37.3493 35.8512C38.0626 35.8512 38.6429 35.2717 38.6429 34.5595C38.6429 33.8473 38.0626 33.2678 37.3493 33.2678Z" fill="#70768A"/>
</g>
<defs>
<clipPath id="clip0_4336_35351">
<rect width="50" height="50" fill="white" transform="translate(0 0.5)"/>
</clipPath>
</defs>
</svg>
