<svg width="50" height="50" viewBox="0 0 50 50" fill="none" xmlns="http://www.w3.org/2000/svg">
<path fill-rule="evenodd" clip-rule="evenodd" d="M11.6667 0C5.22334 0 0 5.22335 0 11.6667V38.3333C0 44.7767 5.22335 50 11.6667 50H38.3333C44.7767 50 50 44.7767 50 38.3333V11.6667C50 5.22334 44.7767 0 38.3333 0H11.6667ZM33 14.3133H30.0789C27.2241 14.3133 27.2768 16.0081 27.3537 18.4791C27.3778 19.2531 27.4043 20.1033 27.3445 21.0013H32.5134L31.8054 26.6893H27.3458V41H21.6476V26.688H17V21H21.649C21.7149 20.7252 21.6883 20.1634 21.6533 19.4264C21.4932 16.0511 21.1589 9.00001 28.7444 9.00001C30.7629 9.00001 32.4961 9.15601 33 9.22534V14.3133Z" fill="#869BD8"/>
</svg>
