<svg width="50" height="50" viewBox="0 0 50 50" fill="none" xmlns="http://www.w3.org/2000/svg">
<g clip-path="url(#clip0)">
<path fill-rule="evenodd" clip-rule="evenodd" d="M11.6667 0.000323854C15.8333 0 20.6737 0 25 0C30.8333 4.03466e-05 35 8.36842e-05 38.3333 0.00036667C45.8333 0 50 5.72449 50 11.6667V25L50 38.3333C50 44.1667 44.3878 50 38.3333 50L25 50L11.6666 50C4.16663 50 -3.74663e-05 44.1667 3.9836e-05 38.3333L5.66262e-06 25L1.80321e-10 11.6667C-3.74498e-05 4.16667 5.8333 0 11.6667 0.000323854ZM38.6017 34.4032C38.9565 33.49 39.1995 32.4467 39.2689 30.9185C39.3391 29.3877 39.3555 28.8986 39.3555 25C39.3555 21.1014 39.3391 20.6123 39.2693 19.0815C39.1995 17.5533 38.9568 16.51 38.6017 15.5968C38.2416 14.6389 37.6762 13.7714 36.9461 13.0543C36.229 12.3238 35.3611 11.7584 34.4032 11.3979C33.49 11.0435 32.4467 10.8009 30.9185 10.7315C29.3877 10.6613 28.8986 10.6445 25 10.6445C21.1014 10.6445 20.6123 10.6613 19.0815 10.7311C17.5533 10.8009 16.51 11.0435 15.5968 11.3983C14.6389 11.7588 13.7711 12.3238 13.0543 13.0543C12.3238 13.7711 11.7584 14.6389 11.3979 15.5968C11.0432 16.51 10.8006 17.5533 10.7311 19.0815C10.6609 20.6123 10.6445 21.1014 10.6445 25C10.6445 28.8986 10.6609 29.3877 10.7315 30.9189C10.8009 32.4467 11.0439 33.4904 11.3987 34.4032C11.7592 35.3611 12.3241 36.2289 13.0543 36.9457C13.7714 37.6762 14.6389 38.2412 15.5972 38.6017C16.51 38.9564 17.5537 39.1991 19.0815 39.2689C20.6127 39.3387 21.1014 39.3555 25.0004 39.3555C28.899 39.3555 29.3881 39.3387 30.9189 39.2689C32.4467 39.1991 33.4904 38.9564 34.4032 38.6017C36.3316 37.8559 37.8559 36.3316 38.6017 34.4032ZM36.1907 16.5336C35.9607 15.9103 35.5937 15.3461 35.1169 14.883C34.6538 14.4062 34.09 14.0392 33.4663 13.8092C32.9604 13.6127 32.2006 13.3789 30.8009 13.3152C29.2869 13.2461 28.8329 13.2312 24.9999 13.2312C21.1665 13.2312 20.7126 13.2457 19.1989 13.3148C17.7993 13.3789 17.039 13.6127 16.5336 13.8092C15.9099 14.0392 15.3457 14.4062 14.883 14.883C14.4061 15.3461 14.0392 15.9099 13.8087 16.5336C13.6123 17.0394 13.3784 17.7997 13.3147 19.1993C13.2457 20.713 13.2308 21.1669 13.2308 25.0003C13.2308 28.8333 13.2457 29.2873 13.3147 30.8013C13.3784 32.201 13.6123 32.9608 13.8087 33.4667C14.0392 34.0904 14.4057 34.6542 14.8826 35.1173C15.3457 35.5941 15.9095 35.9611 16.5332 36.1911C17.039 36.388 17.7993 36.6218 19.1989 36.6855C20.7126 36.7546 21.1662 36.7691 24.9995 36.7691C28.8333 36.7691 29.2873 36.7546 30.8006 36.6855C32.2002 36.6218 32.9604 36.388 33.4663 36.1911C34.7183 35.7082 35.7078 34.7187 36.1907 33.4667C36.3872 32.9608 36.621 32.201 36.6851 30.8013C36.7542 29.2873 36.7687 28.8333 36.7687 25.0003C36.7687 21.1669 36.7542 20.713 36.6851 19.1993C36.6214 17.7997 36.3876 17.0394 36.1907 16.5336ZM24.9999 32.3715C20.9285 32.3715 17.628 29.0714 17.628 25C17.628 20.9285 20.9285 17.6284 24.9999 17.6284C29.071 17.6284 32.3714 20.9285 32.3714 25C32.3714 29.0714 29.071 32.3715 24.9999 32.3715ZM32.6629 19.0597C31.7115 19.0597 30.9402 18.2884 30.9402 17.337C30.9402 16.3856 31.7115 15.6143 32.6629 15.6143C33.6143 15.6143 34.3856 16.3856 34.3856 17.337C34.3852 18.2884 33.6143 19.0597 32.6629 19.0597ZM29.7851 25C29.7851 27.6428 27.6428 29.7852 25 29.7852C22.3572 29.7852 20.2148 27.6428 20.2148 25C20.2148 22.3572 22.3572 20.2148 25 20.2148C27.6428 20.2148 29.7851 22.3572 29.7851 25Z" fill="#869BD8"/>
</g>
<defs>
<clipPath id="clip0">
<rect width="50" height="50" fill="white"/>
</clipPath>
</defs>
</svg>
