<svg width="50" height="50" viewBox="0 0 50 50" fill="none" xmlns="http://www.w3.org/2000/svg">
<g clip-path="url(#clip0)">
<path d="M25.0237 20.7196C27.4109 20.7109 29.3122 18.7933 29.3035 16.4009C29.2948 14.0076 27.3894 12.1032 25.0012 12.1012C22.593 12.0986 20.6697 14.0383 20.6881 16.4531C20.706 18.8367 22.6288 20.7283 25.0237 20.7196Z" fill="#869BD8"/>
<path d="M25.0001 0.000172075C19.8888 0.000172075 15.8333 -0.000606561 11.6667 -0.000174725C5 -0.000174725 0 4.99983 0 11.6665C0 14.1665 0.000120004 21.7642 0.000120004 25.0002C0.000120004 28.9117 -1.4483e-06 35.0005 3.0448e-05 38.3338C3.0448e-05 45.0005 5 50.0002 11.6667 50.0002C15.8333 50.0005 20.4546 50.0002 25.0001 50.0002C29.5456 50.0002 35 50.0005 38.3333 50.0005C45 50.0005 50 45.0005 50 38.3338C50 35.0005 50.0001 29.2138 50.0001 25.0002C50.0001 21.4447 50.0001 14.9998 50.0001 11.6665C50.0001 4.99982 45.0001 -0.000174725 38.3334 -0.000174725C35.0001 -0.000174725 28.5165 0.000172075 25.0001 0.000172075ZM25.0359 7.60273C29.9055 7.61603 33.8139 11.5991 33.7889 16.5224C33.7643 21.3321 29.7919 25.2304 24.9306 25.214C20.1188 25.1976 16.1725 21.2084 16.2011 16.3889C16.2283 11.5168 20.1766 7.58943 25.0359 7.60273ZM34.8988 28.6738C33.8221 29.7792 32.5259 30.5792 31.0866 31.1373C29.7259 31.6646 28.2349 31.9301 26.7587 32.1071C26.9822 32.3495 27.0871 32.4687 27.2262 32.6078C29.2293 34.6217 31.2421 36.6252 33.2385 38.6447C33.9188 39.3332 34.0605 40.1864 33.686 40.9858C33.2773 41.8605 32.3602 42.4355 31.4605 42.3736C30.8906 42.3342 30.4461 42.0513 30.0518 41.6539C28.5397 40.1326 26.9991 38.6385 25.5188 37.0887C25.0866 36.6375 24.8799 36.7234 24.4988 37.1153C22.9781 38.6815 21.4323 40.2227 19.8779 41.7557C19.1797 42.4442 18.349 42.569 17.5387 42.1751C16.6779 41.7587 16.1306 40.8795 16.1725 39.9951C16.2022 39.3986 16.4958 38.9413 16.906 38.5332C18.8891 36.5541 20.8661 34.569 22.8436 32.5853C22.9751 32.4539 23.0968 32.3142 23.2876 32.1096C20.5904 31.8278 18.1582 31.1639 16.0758 29.5357C15.817 29.3332 15.5505 29.1378 15.3152 28.9107C14.4032 28.0355 14.3116 27.0324 15.0323 26.0002C15.6497 25.1163 16.685 24.88 17.7618 25.3879C17.9705 25.4856 18.1689 25.6094 18.3592 25.7403C22.2395 28.4068 27.5704 28.48 31.4661 25.8595C31.8518 25.5649 32.2646 25.3224 32.7428 25.2002C33.6717 24.9608 34.5392 25.303 35.0375 26.1163C35.6078 27.0457 35.6011 27.9521 34.8988 28.6738Z" fill="#869BD8"/>
</g>
<defs>
<clipPath id="clip0">
<rect width="50" height="50" fill="white"/>
</clipPath>
</defs>
</svg>
