<svg width="50" height="50" viewBox="0 0 50 50" fill="none" xmlns="http://www.w3.org/2000/svg">
<rect width="50" height="50" rx="7" fill="#6F3FAA"/>
<path fill-rule="evenodd" clip-rule="evenodd" d="M36.9409 18.7123L36.9335 18.6825C36.3304 16.2442 33.6113 13.628 31.1143 13.0837L31.0861 13.0778C27.0473 12.3074 22.9521 12.3074 18.9141 13.0778L18.8851 13.0837C16.389 13.628 13.6698 16.2444 13.0659 18.6825L13.0592 18.7123C12.3136 22.1172 12.3136 25.5704 13.0592 28.9754L13.0659 29.0052C13.6441 31.3393 16.1607 33.8355 18.5645 34.5219V37.2436C18.5645 38.2288 19.765 38.7126 20.4476 38.0016L23.2052 35.1352C23.8034 35.1687 24.4018 35.1874 25.0001 35.1874C27.0331 35.1874 29.0671 34.995 31.086 34.6099L31.1142 34.6041C33.6112 34.0598 36.3303 31.4434 36.9334 29.0053L36.9408 28.9755C37.6864 25.5704 37.6864 22.1174 36.9409 18.7123ZM34.7585 28.4817C34.3558 30.0724 32.2914 32.05 30.651 32.4154C28.5035 32.8238 26.339 32.9983 24.1766 32.9384C24.1336 32.9372 24.0923 32.9539 24.0624 32.9848L22.0489 35.0517L19.9074 37.2497C19.7508 37.413 19.4757 37.3018 19.4757 37.0765V32.5677C19.4757 32.4932 19.4225 32.43 19.3494 32.4156L19.3481 32.4153C17.7078 32.0499 15.644 30.0724 15.2406 28.4816C14.5695 25.4039 14.5695 22.2838 15.2406 19.206C15.644 17.6153 17.7078 15.6378 19.3481 15.2724C23.0986 14.5591 26.9014 14.5591 30.6511 15.2724C32.2922 15.6378 34.3559 17.6153 34.7586 19.206C35.4304 22.2839 35.4304 25.404 34.7585 28.4817ZM28.568 30.5631C28.4863 30.5382 28.4058 30.5161 28.3267 30.4943L28.3267 30.4943L28.3267 30.4942L28.3267 30.4942C28.1618 30.4488 28.0031 30.4051 27.8522 30.3425C25.5393 29.383 23.4108 28.145 21.7249 26.2474C20.7661 25.1684 20.0157 23.9501 19.3813 22.6608C19.1115 22.1124 18.8797 21.5448 18.6483 20.978L18.5686 20.7828C18.333 20.2073 18.68 19.6126 19.0454 19.1788C19.3883 18.7717 19.8296 18.4603 20.3075 18.2306C20.6805 18.0514 21.0483 18.1548 21.3208 18.4709C21.9096 19.1544 22.4506 19.8728 22.8885 20.6651C23.1579 21.1525 23.084 21.7482 22.5958 22.0798C22.5007 22.1443 22.4124 22.218 22.3243 22.2915L22.3242 22.2915L22.3242 22.2915C22.3023 22.3097 22.2805 22.328 22.2585 22.3461C22.1615 22.4259 22.0704 22.5064 22.0039 22.6145C21.8825 22.8121 21.8766 23.0453 21.9548 23.2601C22.5567 24.9144 23.5713 26.2008 25.2365 26.8938L25.3077 26.9236L25.3077 26.9237L25.3077 26.9237C25.5509 27.0262 25.7978 27.1304 26.0775 27.0979C26.41 27.059 26.5971 26.8092 26.7854 26.5579C26.888 26.4208 26.9911 26.2833 27.1183 26.1793C27.4703 25.8914 27.9204 25.8876 28.2996 26.1276C28.679 26.3678 29.0467 26.6254 29.4122 26.886L29.4875 26.9396C29.821 27.1769 30.1515 27.4121 30.4592 27.6833C30.7775 27.9636 30.8871 28.3312 30.7079 28.7115C30.3799 29.4082 29.9024 29.9876 29.2139 30.3575C29.081 30.4288 28.9305 30.4671 28.7785 30.5058L28.7785 30.5058C28.7081 30.5237 28.6374 30.5417 28.568 30.5631ZM31.0486 22.5172C30.5161 19.5263 28.0313 17.5187 25.0062 17.4339C24.989 17.4339 24.9719 17.4336 24.9547 17.4333H24.9547H24.9547C24.9133 17.4327 24.872 17.432 24.8309 17.4344C24.6164 17.446 24.4263 17.6253 24.4664 17.8506C24.5116 18.1045 24.7667 18.1302 24.977 18.1514L25.0134 18.1551C25.1199 18.1663 25.2267 18.1755 25.3334 18.1847C25.5697 18.2051 25.8058 18.2255 26.0383 18.267C28.2815 18.667 30.0784 20.5314 30.3915 22.785C30.4389 23.1255 30.4622 23.4697 30.4855 23.8135V23.8135L30.4855 23.8139C30.4914 23.9009 30.4973 23.9879 30.5036 24.0747C30.5195 24.2921 30.6285 24.4951 30.871 24.4922C31.1057 24.4892 31.229 24.2826 31.212 24.065L31.1972 23.8726C31.1627 23.4188 31.1281 22.9637 31.0486 22.5172ZM29.6035 23.3938C29.6022 23.4034 29.6011 23.4164 29.5998 23.4317C29.5959 23.4765 29.5902 23.5417 29.5737 23.604C29.4934 23.9076 29.0328 23.9457 28.9269 23.6393C28.8955 23.5483 28.8908 23.4448 28.8906 23.347C28.8895 22.7063 28.7503 22.0662 28.4272 21.5086C28.095 20.9356 27.5875 20.4541 26.9924 20.1625C26.6325 19.9863 26.2434 19.8767 25.8489 19.8116C25.7419 19.7938 25.6341 19.7805 25.5264 19.7671C25.4606 19.759 25.3947 19.7508 25.329 19.7417C25.1191 19.7125 25.0069 19.5787 25.017 19.3719C25.0263 19.1781 25.1679 19.0385 25.3792 19.0506C26.0734 19.0899 26.744 19.2401 27.3613 19.5669C28.6164 20.2316 29.3334 21.2807 29.5427 22.6817C29.5461 22.7045 29.5502 22.7273 29.5544 22.75L29.5544 22.75C29.5617 22.7905 29.5691 22.8309 29.5722 22.8717C29.5806 22.9843 29.5869 23.097 29.5942 23.2282L29.6035 23.3938ZM27.3072 22.953C27.3334 23.1849 27.4689 23.3251 27.7219 23.3205C27.8371 23.3128 27.9552 23.2328 27.9924 23.0735C28.0135 22.9826 28.0047 22.8827 27.9963 22.7876L27.9956 22.7798C27.876 21.399 27.0377 20.7926 25.8648 20.708C25.6771 20.6943 25.5101 20.8283 25.4814 21.0001C25.4497 21.1887 25.561 21.3516 25.7621 21.4009C25.8487 21.4221 25.937 21.4302 26.0255 21.4382C26.1261 21.4474 26.227 21.4566 26.3257 21.4851C26.4718 21.5274 26.6114 21.5928 26.7345 21.6824C26.9953 21.8725 27.1601 22.1597 27.2361 22.4698C27.2695 22.6061 27.2848 22.7473 27.3001 22.8877C27.3024 22.9095 27.3048 22.9313 27.3072 22.953Z" fill="#FBF9F7"/>
</svg>
