<svg width="50" height="50" viewBox="0 0 50 50" fill="none" xmlns="http://www.w3.org/2000/svg">
<rect width="50" height="50" rx="7" fill="#869BD8"/>
<path fill-rule="evenodd" clip-rule="evenodd" d="M24.0556 35.9648H26.0178C26.0178 35.9648 26.6105 35.8998 26.9131 35.5736C27.1916 35.2741 27.1827 34.7117 27.1827 34.7117C27.1827 34.7117 27.1444 32.0788 28.3663 31.6911C29.5709 31.3091 31.1178 34.2357 32.7573 35.361C33.9971 36.2126 34.9392 36.0259 34.9392 36.0259L39.323 35.9648C39.323 35.9648 41.6164 35.8236 40.529 34.0205C40.4398 33.873 39.8957 32.6866 37.2695 30.2489C34.5207 27.6976 34.8888 28.1103 38.2 23.697C40.2166 21.0093 41.0228 19.3684 40.771 18.6656C40.5308 17.9963 39.0476 18.1732 39.0476 18.1732L34.1116 18.204C34.1116 18.204 33.7458 18.154 33.4744 18.3163C33.2092 18.4754 33.0385 18.8461 33.0385 18.8461C33.0385 18.8461 32.2573 20.926 31.2154 22.6948C29.0174 26.4271 28.1386 26.624 27.7794 26.3923C26.9438 25.8522 27.1524 24.2224 27.1524 23.0646C27.1524 19.4478 27.701 17.9397 26.0842 17.5493C25.5476 17.4196 25.1528 17.3341 23.7806 17.3202C22.0194 17.302 20.5287 17.3256 19.6846 17.7391C19.1231 18.0141 18.69 18.6269 18.9538 18.6621C19.28 18.7058 20.0189 18.8613 20.4106 19.3947C20.9164 20.0828 20.8986 21.6283 20.8986 21.6283C20.8986 21.6283 21.1892 25.886 20.2199 26.415C19.5545 26.7778 18.6418 26.0371 16.6823 22.6511C15.6783 20.9166 14.9202 18.9994 14.9202 18.9994C14.9202 18.9994 14.774 18.6411 14.5133 18.4495C14.1969 18.2173 13.7548 18.1433 13.7548 18.1433L9.06439 18.1741C9.06439 18.1741 8.36027 18.1937 8.10179 18.4999C7.87184 18.7722 8.08352 19.3355 8.08352 19.3355C8.08352 19.3355 11.7557 27.9267 15.9136 32.2561C19.7261 36.2255 24.0556 35.9648 24.0556 35.9648Z" fill="#FBF9F7"/>
</svg>
