<svg width="50" height="50" viewBox="0 0 50 50" fill="none" xmlns="http://www.w3.org/2000/svg">
<rect width="50" height="50" rx="7" fill="#75B73B"/>
<path d="M24.389 12.5146C17.7327 12.8312 12.48 18.3747 12.5001 25.0384C12.5062 27.0679 12.9962 28.9836 13.8607 30.6766L12.5336 37.1184C12.4618 37.4669 12.7761 37.7721 13.1223 37.69L19.4344 36.1946C21.0562 37.0025 22.8777 37.469 24.8054 37.4984C31.6088 37.6024 37.2815 32.2005 37.4938 25.3996C37.7209 18.1096 31.7043 12.1661 24.389 12.5146ZM31.9209 31.9206C30.0724 33.7691 27.6144 34.7872 25 34.7872C23.4693 34.7872 22.0036 34.4437 20.6438 33.7665L19.765 33.3285L15.8947 34.2453L16.7093 30.2909L16.2764 29.4427C15.5704 28.0602 15.2124 26.5655 15.2124 24.9996C15.2124 22.3852 16.2305 19.9275 18.079 18.0788C19.9111 16.2466 22.4091 15.2122 25.0002 15.2122C27.6143 15.2122 30.0723 16.2303 31.9208 18.0788C33.7693 19.9273 34.7874 22.3853 34.7874 24.9994C34.7875 27.5906 33.753 30.0885 31.9209 31.9206Z" fill="#FBF9F7"/>
<path d="M31.0665 27.7104L28.6452 27.0152C28.3271 26.924 27.9842 27.0144 27.7522 27.2507L27.16 27.8538C26.9104 28.1083 26.5317 28.19 26.2012 28.0563C25.0558 27.5927 22.6463 25.4504 22.0314 24.3791C21.8536 24.07 21.883 23.6837 22.1011 23.4013L22.6179 22.7326C22.8204 22.4707 22.863 22.1187 22.7292 21.8159L21.7105 19.5119C21.4666 18.9602 20.7614 18.7995 20.3007 19.1891C19.625 19.7608 18.8232 20.6291 18.7259 21.5913C18.554 23.2878 19.2816 25.4262 22.0325 27.9939C25.2107 30.9607 27.756 31.3523 29.4134 30.951C30.3534 30.7234 31.1046 29.8108 31.5783 29.0635C31.9017 28.5536 31.6462 27.877 31.0665 27.7104Z" fill="#FBF9F7"/>
</svg>
