<svg width="60" height="60" viewBox="0 0 60 60" fill="none" xmlns="http://www.w3.org/2000/svg">
<path fill-rule="evenodd" clip-rule="evenodd" d="M12.2586 42.3765C12.016 42.0347 11.8855 41.6253 11.9238 41.1872L14.1832 15.3566C14.2864 14.1768 15.1999 13.2041 16.4424 13.2041H43.5544C44.797 13.2041 45.7105 14.1769 45.8136 15.3566L48.0732 41.1872C48.1764 42.367 47.0564 43.3397 45.8139 43.3397H42.7232C42.5288 42.0563 41.3927 41.1233 40.1246 41.2404C38.8579 41.3574 31.1778 42.2319 29.9114 42.3488C25.7564 42.7326 18.5792 39.7561 12.2586 42.3765Z" fill="#E8CDC8"/>
<path d="M59.8522 42.8363C59.3796 41.21 57.6549 39.7302 54.9856 40.3235C54.9787 40.325 54.9719 40.3267 54.965 40.3283L43.8559 43.0107C43.6954 42.1782 43.2599 41.4349 42.6051 40.8876C41.8732 40.2758 40.954 39.9865 40.0168 40.0732C38.7936 40.1851 31.0843 41.0628 29.8036 41.1816C28.5035 41.3019 26.8009 41.0458 24.8298 40.7494C16.39 39.1931 8.6328 40.0063 3.94796 48.8483L0.456737 55.0141C-0.151385 56.1079 -0.152323 57.4283 0.454393 58.4597C1.01482 59.4124 2.00487 59.9812 3.10275 59.9811H15.3453C17.3834 59.9811 18.1254 59.5926 19.1265 58.0017L20.1452 56.3829L27.1351 56.7163C32.2994 56.9628 33.9477 56.7005 38.8924 54.8465C44.1355 52.9132 52.6822 49.2563 57.3614 47.4715C57.3652 47.4703 57.369 47.4689 57.373 47.4674C59.6455 46.6464 60.3404 44.5161 59.8522 42.8363ZM56.581 45.2615C55.6273 45.5956 53.3447 46.53 50.4564 47.7121C46.6283 49.2792 41.8641 51.2291 38.0695 52.6519C33.4143 54.3974 32.0993 54.6063 27.2467 54.3752L19.5732 54.0092C19.1505 53.9906 18.7507 54.198 18.5255 54.5557L17.1425 56.7536C16.8453 57.226 16.6767 57.438 16.5411 57.5098C16.3279 57.6229 15.79 57.6373 15.3452 57.6373H3.10263C2.76148 57.6373 2.5728 57.4383 2.47459 57.2713C2.28427 56.9478 2.29575 56.5297 2.50072 56.1609L5.99218 49.9947C5.99534 49.9892 5.99839 49.9837 6.00144 49.9781C10.7422 41.4768 17.3221 41.9687 24.4811 43.0671C26.5148 43.373 28.4354 43.6619 30.0191 43.5155C31.2483 43.4029 38.9547 42.5255 40.2322 42.4071C40.543 42.3784 40.8522 42.4775 41.1019 42.686C41.3755 42.9148 41.5437 43.2411 41.5751 43.6047C41.5954 43.8388 41.6493 44.4604 40.0892 45.1357C36.8532 46.5368 33.4157 47.7117 30.658 48.3593C30.0279 48.5073 29.6371 49.138 29.785 49.7681C29.933 50.3982 30.5639 50.7887 31.1938 50.6411C34.0807 49.9631 37.6623 48.7405 41.0204 47.2866C42.1914 46.7796 42.9161 46.1687 43.3485 45.5442L55.5036 42.6093C56.5885 42.371 57.3715 42.7 57.6011 43.4902C57.7847 44.121 57.5399 44.9126 56.581 45.2615Z" fill="#70768A"/>
<path d="M23.2178 18.0857C23.8651 18.0857 24.3898 17.561 24.3898 16.9137V7.93009C24.6988 0.487777 35.3006 0.493402 35.6068 7.93009V16.9136C35.6687 18.4686 37.8893 18.4674 37.9507 16.9136V7.93009C37.5126 -2.62256 22.48 -2.61436 22.0459 7.93009V16.9136C22.0459 17.5609 22.5706 18.0857 23.2178 18.0857Z" fill="#70768A"/>
<path d="M24.9464 30.6556L24.2702 35.1282C24.2048 35.561 24.386 35.9943 24.7401 36.2515C25.0943 36.5088 25.5623 36.5472 25.9537 36.3514L29.9984 34.326L34.0431 36.3514C34.4332 36.5468 34.9018 36.5095 35.2567 36.2515C35.6107 35.9943 35.792 35.561 35.7266 35.1282L35.0503 30.6556L38.2264 27.4346C38.8926 26.7808 38.5062 25.5929 37.5833 25.4556L33.1207 24.7165L31.0389 20.7006C30.6231 19.8649 29.3738 19.8653 28.958 20.7006L26.876 24.7165L22.4134 25.4556C21.9815 25.527 21.6255 25.8333 21.4902 26.2496C21.355 26.6659 21.463 27.1229 21.7703 27.4346L24.9464 30.6556ZM27.8379 26.9333C28.2023 26.8729 28.517 26.6444 28.6869 26.3165L29.9984 23.7866L31.3098 26.3165C31.4797 26.6444 31.7944 26.8729 32.1588 26.9333L34.97 27.3988L32.9693 29.4277C32.7101 29.6907 32.5899 30.0606 32.645 30.4258L33.071 33.2434L30.5231 31.9675C30.1928 31.8021 29.8039 31.8021 29.4736 31.9675L26.9257 33.2434L27.3517 30.4258C27.4069 30.0606 27.2868 29.6907 27.0274 29.4276L25.0267 27.3986L27.8379 26.9333Z" fill="#70768A"/>
</svg>
