<svg width="60" height="54" viewBox="0 0 60 54" fill="none" xmlns="http://www.w3.org/2000/svg">
<path d="M58.828 36.8852H58.7925V30.063C58.792 29.8504 58.7496 29.7286 58.7078 29.6247L54.4598 18.3874C54.2876 17.9315 53.8512 17.6299 53.3637 17.6299H46.4318V10.2851C46.4318 8.52443 45.0003 7.09216 43.2409 7.09216H22.5934C22.9698 7.83408 23.2752 8.6183 23.5006 9.43591H43.2409C43.708 9.43591 44.088 9.81689 44.088 10.2851V36.8851H10.5819V24.0935C9.77225 23.9647 8.9885 23.7583 8.23814 23.4821V36.8852H8.20264C7.55541 36.8852 7.03076 37.4099 7.03076 38.0571V45.2653C7.03076 45.9125 7.55541 46.4372 8.20264 46.4372H13.641C13.5554 46.8445 13.5104 47.2667 13.5104 47.6993C13.5104 51.0655 16.2355 53.8042 19.5852 53.8042C22.9347 53.8042 25.6599 51.0655 25.6599 47.6993C25.6599 47.2667 25.6149 46.8445 25.5294 46.4372H42.7841C42.6985 46.8445 42.6535 47.2667 42.6535 47.6993C42.6535 51.0655 45.3787 53.8042 48.7284 53.8042C52.0781 53.8042 54.8032 51.0655 54.8032 47.6993C54.8032 47.2667 54.7582 46.8445 54.6726 46.4372H58.828C59.4751 46.4372 59.9999 45.9125 59.9999 45.2653V38.0571C59.9999 37.41 59.4751 36.8852 58.828 36.8852ZM46.432 19.9738H52.5539L55.9249 28.8912H46.432V19.9738ZM46.432 31.2349H56.4488V36.8846H46.432V31.2349ZM19.5853 51.4604C17.5279 51.4604 15.8543 49.7733 15.8543 47.6993C15.8543 45.6254 17.5281 43.9381 19.5853 43.9381C21.6425 43.9381 23.3163 45.6253 23.3163 47.6993C23.3163 49.7733 21.6426 51.4604 19.5853 51.4604ZM48.7284 51.4604C46.6711 51.4604 44.9973 49.7733 44.9973 47.6993C44.9973 45.6254 46.6711 43.9381 48.7284 43.9381C50.7858 43.9381 52.4594 45.6253 52.4594 47.6993C52.4594 49.7733 50.7858 51.4604 48.7284 51.4604ZM57.6561 44.0934H53.6436C53.6383 44.0934 53.6331 44.0935 53.6278 44.0937C52.5213 42.5792 50.7372 41.5945 48.7285 41.5945C46.7199 41.5945 44.9359 42.5792 43.8294 44.0935H24.5013C24.4957 44.0935 24.4902 44.0937 24.4846 44.0938C23.3779 42.5794 21.5939 41.5946 19.5853 41.5946C17.5767 41.5946 15.7928 42.5794 14.6862 44.0937H9.37463V39.2292H57.6561V44.0934Z" fill="#70768A"/>
<path d="M12.5633 25.4213C19.5019 25.4213 25.1266 19.7744 25.1266 12.8086C25.1266 5.84273 19.5019 0.195801 12.5633 0.195801C5.62479 0.195801 0 5.84273 0 12.8086C0 19.7744 5.62479 25.4213 12.5633 25.4213Z" fill="#E8CDC8"/>
<path d="M14.7491 14.529H12.5635C11.9162 14.529 11.3916 14.0044 11.3916 13.3571V9.69995C11.3916 9.05272 11.9162 8.52808 12.5635 8.52808C13.2107 8.52808 13.7353 9.05272 13.7353 9.69995V12.1853H14.7491C15.3964 12.1853 15.921 12.7099 15.921 13.3571C15.921 14.0045 15.3964 14.529 14.7491 14.529Z" fill="#70768A"/>
</svg>
