<svg width="30" height="30" viewBox="0 0 30 30" fill="none" xmlns="http://www.w3.org/2000/svg">
<g clip-path="url(#clip0)">
<path d="M21.4897 29.9998H9.09466C8.80169 29.9998 8.55372 29.7834 8.51411 29.4932L7.43429 21.5866C7.39052 21.266 7.61493 20.9706 7.93556 20.9268C8.2563 20.8832 8.55161 21.1075 8.59538 21.4281L9.60601 28.8279H20.9783L21.9889 21.4281C22.0327 21.1074 22.3277 20.8832 22.6488 20.9268C22.9694 20.9706 23.1938 21.2661 23.1501 21.5866L22.0702 29.4932C22.0306 29.7834 21.7827 29.9998 21.4897 29.9998Z" fill="#70768A"/>
<path d="M25.4944 9.52522C25.446 9.29981 25.27 9.12374 25.0445 9.07534C24.8726 9.03848 20.8099 8.19526 18.7201 10.2854C16.8804 12.1251 17.3135 15.4938 17.4687 16.3914L15.5859 18.3227V12.2277C16.5174 11.562 19.5099 9.19422 19.5099 6.25282C19.5099 2.84336 15.4893 0.204536 15.3181 0.0939111C15.1244 -0.0313037 14.8754 -0.0313037 14.6818 0.0939111C14.5107 0.204595 10.49 2.84342 10.49 6.25282C10.49 9.19417 13.4825 11.562 14.4141 12.2277V18.3227L12.5311 16.3913C12.6863 15.4937 13.1193 12.1251 11.2797 10.2854C9.1899 8.19526 5.12724 9.03842 4.95527 9.07534C4.72986 9.12374 4.55379 9.29981 4.50539 9.52522C4.46847 9.69713 3.62543 13.7602 5.71523 15.8503C6.85834 16.9936 8.59171 17.2592 9.95578 17.2592C10.6463 17.2592 11.2421 17.1911 11.6188 17.1344L14.2849 19.869C14.2774 20.0304 14.3363 20.1941 14.4611 20.3158C14.575 20.4269 14.7226 20.4822 14.8701 20.4822C14.9137 20.4822 14.9573 20.4773 15 20.4677C15.0427 20.4773 15.0863 20.4822 15.1299 20.4822C15.2774 20.4822 15.4249 20.4269 15.5388 20.3158C15.6636 20.1941 15.7226 20.0304 15.7151 19.869L18.381 17.1344C18.7577 17.1911 19.3535 17.2592 20.0441 17.2592C21.408 17.2592 23.1416 16.9935 24.2846 15.8503C26.3745 13.7602 25.5313 9.69713 25.4944 9.52522ZM11.6619 6.25282C11.6619 3.97475 14.1101 1.95965 14.9999 1.30264C15.8901 1.95995 18.338 3.97493 18.338 6.25282C18.338 8.13385 16.6687 9.83559 15.5859 10.7416V7.73559L16.8754 6.44594C17.1042 6.21708 17.1042 5.84612 16.8753 5.61731C16.6466 5.3885 16.2755 5.3885 16.0467 5.61731L15.5859 6.07821V4.60317C15.5859 4.27956 15.3235 4.01723 14.9999 4.01723C14.6763 4.01723 14.414 4.27956 14.414 4.60317V6.07827L13.9532 5.61737C13.7244 5.38862 13.3534 5.3885 13.1245 5.61737C12.8957 5.84618 12.8957 6.21713 13.1245 6.446L14.414 7.73559V10.7434C13.3312 9.83952 11.6619 8.13983 11.6619 6.25282ZM6.54392 15.0217C5.22591 13.7035 5.44617 11.1296 5.58638 10.1563C6.56039 10.016 9.13336 9.79604 10.451 11.1139C11.5321 12.1951 11.5782 14.1211 11.4826 15.3158L10.1845 13.9843V12.4054C10.1845 12.0818 9.92214 11.8195 9.59853 11.8195C9.27492 11.8195 9.01259 12.0818 9.01259 12.4054V12.7823L7.92164 11.6633C7.69576 11.4316 7.3248 11.4269 7.09306 11.6528C6.86138 11.8786 6.85664 12.2497 7.08257 12.4813L8.1566 13.583H7.83509C7.51148 13.583 7.24916 13.8453 7.24916 14.169C7.24916 14.4926 7.51148 14.7549 7.83509 14.7549H9.29906L10.5783 16.0671C9.3791 16.1456 7.57945 16.0573 6.54392 15.0217ZM23.456 15.0217C22.4243 16.0533 20.6236 16.1426 19.4231 16.0655L20.7008 14.7549H22.1647C22.4883 14.7549 22.7507 14.4926 22.7507 14.169C22.7507 13.8454 22.4883 13.5831 22.1647 13.5831H21.8432L22.9172 12.4814C23.1431 12.2497 23.1384 11.8787 22.9067 11.6528C22.675 11.4269 22.3041 11.4316 22.0781 11.6634L20.9872 12.7823V12.4055C20.9872 12.0818 20.7248 11.8195 20.4013 11.8195C20.0777 11.8195 19.8153 12.0818 19.8153 12.4055V13.9844L18.5173 15.3159C18.4215 14.121 18.4678 12.1951 19.5487 11.114C20.8668 9.79587 23.4402 10.0162 24.4133 10.1564C24.5537 11.1302 24.7738 13.7037 23.456 15.0217Z" fill="#70768A"/>
<path d="M5.77612 18.3848H24.2238V22.5873H5.77612V18.3848Z" fill="#E8CDC8"/>
</g>
<defs>
<clipPath id="clip0">
<rect width="30" height="30" fill="white"/>
</clipPath>
</defs>
</svg>
