<svg width="30" height="30" viewBox="0 0 30 30" fill="none" xmlns="http://www.w3.org/2000/svg">
<g clip-path="url(#clip0)">
<path d="M25.4945 9.52498C25.4461 9.29957 25.27 9.12349 25.0446 9.07509C24.8727 9.03818 20.81 8.19501 18.7203 10.2851C16.9541 12.0514 17.2827 15.2269 17.4491 16.272L15.586 18.1269V12.2275C16.5175 11.5618 19.51 9.19398 19.51 6.25257C19.51 2.84312 15.4893 0.204292 15.3182 0.093667C15.1245 -0.0315479 14.8755 -0.0315479 14.6819 0.093667C14.5108 0.204351 10.4901 2.84318 10.4901 6.25257C10.4901 9.19392 13.4826 11.5618 14.4141 12.2275V18.1248L12.5512 16.2706C12.7177 15.2242 13.0453 12.0507 11.2799 10.2851C9.19005 8.19501 5.12739 9.03824 4.95542 9.07509C4.73001 9.12349 4.55393 9.29957 4.50553 9.52498C4.46862 9.69695 3.62551 13.76 5.71532 15.8501C6.85848 16.9933 8.59186 17.2589 9.95587 17.2589C10.7247 17.2589 11.3763 17.1746 11.7386 17.1153L14.4141 19.7783V22.4055C14.4141 22.7291 14.6764 22.9914 15 22.9914C15.3236 22.9914 15.586 22.7291 15.586 22.4055V19.7806L18.2628 17.1156C18.6253 17.1747 19.2761 17.2589 20.0442 17.2589C21.4081 17.2589 23.1417 16.9932 24.2847 15.8501C26.3745 13.76 25.5314 9.69689 25.4945 9.52498ZM6.54401 15.0214C5.22571 13.7029 5.44643 11.1282 5.58659 10.1553C6.55919 10.0138 9.12858 9.79093 10.4511 11.1137C11.5023 12.165 11.575 14.015 11.4903 15.2147L10.1845 13.9151V12.4052C10.1845 12.0815 9.92212 11.8192 9.59856 11.8192C9.27501 11.8192 9.01262 12.0815 9.01262 12.4052V12.7487L7.91552 11.6568C7.68618 11.4286 7.31516 11.4293 7.08682 11.6588C6.85854 11.8881 6.85942 12.2591 7.08876 12.4874L8.18932 13.5828H7.83512C7.51151 13.5828 7.24919 13.8452 7.24919 14.1688C7.24919 14.4924 7.51157 14.7547 7.83512 14.7547H9.36671L10.6765 16.0583C9.4778 16.1466 7.60444 16.082 6.54401 15.0214ZM11.6619 6.25257C11.6619 3.97451 14.1102 1.95941 15 1.3024C15.8902 1.9597 18.3381 3.97468 18.3381 6.25257C18.3381 8.13361 16.6688 9.83535 15.586 10.7413V7.73541L16.8755 6.44576C17.1043 6.21689 17.1043 5.84593 16.8754 5.61712C16.6467 5.38832 16.2756 5.38832 16.0468 5.61712L15.586 6.07796V4.60292C15.586 4.27931 15.3236 4.01699 15 4.01699C14.6765 4.01699 14.4141 4.27931 14.4141 4.60292V6.07802L13.9532 5.61712C13.7246 5.38837 13.3535 5.38826 13.1246 5.61712C12.8957 5.84593 12.8958 6.21689 13.1246 6.44576L14.4141 7.73535V10.7432C13.3313 9.83927 11.6619 8.13958 11.6619 6.25257ZM23.456 15.0214C22.3957 16.0817 20.523 16.1465 19.3245 16.0584L20.634 14.7546H22.1649C22.4884 14.7546 22.7508 14.4923 22.7508 14.1687C22.7508 13.8451 22.4884 13.5828 22.1649 13.5828H21.811L22.9113 12.4873C23.1406 12.259 23.1415 11.888 22.9131 11.6587C22.6848 11.4294 22.3138 11.4286 22.0844 11.6569L20.9874 12.7491V12.4052C20.9874 12.0815 20.725 11.8192 20.4014 11.8192C20.0779 11.8192 19.8155 12.0815 19.8155 12.4052V13.9159L18.5099 15.2158C18.425 14.0158 18.4975 12.1652 19.549 11.1137C20.8669 9.7955 23.4404 10.0159 24.4135 10.156C24.5538 11.13 24.7739 13.7034 23.456 15.0214Z" fill="#70768A"/>
<path d="M19.8071 26.2809C19.8075 26.2562 19.8077 26.2316 19.8077 26.2068C19.8077 23.5296 17.6375 21.3594 14.9603 21.3594C12.6132 21.3594 10.6556 23.0276 10.2087 25.2431C10.1769 25.2423 10.1449 25.2419 10.1129 25.2419C7.92304 25.2419 6.14783 27.0171 6.14783 29.207C6.14783 29.2764 6.1497 29.3454 6.15322 29.4139H23.0442C22.8932 27.7194 21.5167 26.3775 19.8071 26.2809Z" fill="#E8CDC8"/>
<path d="M26.579 30H3.42078C3.09722 30 2.83484 29.7377 2.83484 29.4141C2.83484 29.0904 3.09722 28.8281 3.42078 28.8281H26.579C26.9026 28.8281 27.165 29.0904 27.165 29.4141C27.165 29.7377 26.9026 30 26.579 30Z" fill="#70768A"/>
</g>
<defs>
<clipPath id="clip0">
<rect width="30" height="30" fill="white"/>
</clipPath>
</defs>
</svg>
