<svg width="30" height="30" viewBox="0 0 30 30" fill="none" xmlns="http://www.w3.org/2000/svg">
<g clip-path="url(#clip0)">
<path d="M12.2971 5.27393H17.7029V21.9032H12.2971V5.27393Z" fill="#E8CDC8"/>
<path d="M12.4126 21.9033L4.69963 28.4105H0.585938V27.1797L6.84023 21.9033H12.4126Z" fill="#E8CDC8"/>
<path d="M13.9299 28.4104H8.35767L16.0704 21.9033H21.6426L13.9299 28.4104Z" fill="#E8CDC8"/>
<path d="M29.414 21.9033V23.1341L23.1597 28.4105H17.5873L25.3003 21.9033H29.414Z" fill="#E8CDC8"/>
<path d="M29.4141 21.3174H24.7479V10.4206H26.0283C26.3519 10.4206 26.6143 10.1582 26.6143 9.83467V5.27408C26.6143 4.95053 26.3519 4.68814 26.0283 4.68814H21.7006C21.672 2.65143 20.0091 1.00342 17.9692 1.00342C16.7595 1.00342 15.6824 1.58297 15.0001 2.47939C14.3043 1.56908 13.208 1.00342 12.0308 1.00342C9.99094 1.00342 8.32805 2.65143 8.29939 4.68814H3.97166C3.64805 4.68814 3.38572 4.95053 3.38572 5.27408V9.83467C3.38572 10.1582 3.64811 10.4206 3.97166 10.4206H5.25205V21.3175H0.585938C0.262324 21.3175 0 21.5798 0 21.9034V28.4106C0 28.7342 0.262324 28.9965 0.585938 28.9965H29.4141C29.7376 28.9965 30 28.7342 30 28.4106V21.9033C30 21.5798 29.7376 21.3174 29.4141 21.3174ZM17.9692 2.17529C19.3629 2.17529 20.5 3.29766 20.5285 4.68814H15.4098C15.4383 3.29766 16.5754 2.17529 17.9692 2.17529ZM12.0308 2.17529C13.0474 2.17529 13.9761 2.79059 14.3794 3.71848C14.2915 4.02738 14.2424 4.35246 14.2377 4.68814H9.4715C9.49998 3.29766 10.6371 2.17529 12.0308 2.17529ZM4.5576 5.86002H25.4424V9.24873H4.5576V5.86002ZM6.42398 10.4206H23.5761V21.3175H6.42398V10.4206ZM28.8281 27.8246H1.17188V22.4893H28.8281V27.8246Z" fill="#70768A"/>
</g>
<defs>
<clipPath id="clip0">
<rect width="30" height="30" fill="white"/>
</clipPath>
</defs>
</svg>
