<svg width="30" height="30" viewBox="0 0 30 30" fill="none" xmlns="http://www.w3.org/2000/svg">
<g clip-path="url(#clip0)">
<path d="M26.6848 21.0389C26.5739 20.9185 26.4177 20.8501 26.254 20.8501C26.0904 20.8501 25.9342 20.9185 25.8232 21.0389C25.4313 21.4639 23.4767 23.6533 23.4767 25.0233C23.4767 26.5549 24.7226 27.8009 26.254 27.8009C27.7853 27.8009 29.0313 26.5549 29.0313 25.0233C29.0314 23.6533 27.0767 21.4639 26.6848 21.0389ZM26.2541 26.629C25.3689 26.629 24.6487 25.9087 24.6487 25.0233C24.6487 24.457 25.4856 23.2433 26.2543 22.3249C27.0229 23.2427 27.8595 24.4558 27.8595 25.0233C27.8595 25.9087 27.1393 26.629 26.2541 26.629Z" fill="#70768A"/>
<path d="M25.3437 18.4241C25.458 18.5384 25.6079 18.5955 25.7577 18.5955C25.9078 18.5955 26.0579 18.5382 26.1723 18.4236C26.401 18.1947 26.4007 17.8236 26.1717 17.5949L17.4565 8.89102V6.44843C17.4565 2.89273 14.5603 0 11.0005 0C7.44061 0 4.54447 2.89273 4.54447 6.44843V13.9312L1.84153 16.6306C1.27854 17.1929 0.968506 17.9405 0.968506 18.7358C0.968506 19.5312 1.27854 20.2788 1.84153 20.841L10.141 29.1298V29.1298C10.7218 29.7099 11.4849 30 12.2478 30C13.0108 30 13.7738 29.7099 14.3546 29.1298L25.2089 18.2895L25.3437 18.4241ZM5.7164 6.44843C5.7164 3.53899 8.08681 1.17193 11.0005 1.17193C13.9141 1.17193 16.2846 3.53899 16.2846 6.44843V7.72062L13.9379 5.37699C13.7091 5.14846 13.3385 5.14846 13.1098 5.37699L5.7164 12.7608V6.44843ZM13.5265 28.3006C12.8215 29.0047 11.6743 29.0049 10.9691 28.3006V28.3006L2.66968 20.0118C2.32835 19.671 2.14044 19.2178 2.14044 18.7359C2.14044 18.2539 2.32835 17.8008 2.66968 17.4599L13.5239 6.61976L16.2846 9.3769V14.4718C16.2846 14.7953 16.547 15.0577 16.8705 15.0577C17.1941 15.0577 17.4565 14.7953 17.4565 14.4718V10.5473L24.3796 17.4615L13.5265 28.3006Z" fill="#70768A"/>
<path d="M5.57797 17.4814L4.3219 18.7359L12.2478 26.6516L21.4298 17.4814H5.57797Z" fill="#E8CDC8"/>
</g>
<defs>
<clipPath id="clip0">
<rect width="30" height="30" fill="white"/>
</clipPath>
</defs>
</svg>
