<svg width="60" height="60" viewBox="0 0 60 60" fill="none" xmlns="http://www.w3.org/2000/svg">
<g clip-path="url(#clip0_4318_30894)">
<path d="M32.9929 49.6049C32.7724 48.9965 32.1001 48.6819 31.4919 48.9025C30.8835 49.123 30.569 49.795 30.7896 50.4034L33.4186 57.6569H26.582L29.1185 50.6588C29.339 50.0504 29.0245 49.3783 28.4161 49.1578C27.8077 48.9373 27.1356 49.2517 26.9151 49.8602L23.8092 58.4295C23.6791 58.7886 23.7321 59.1888 23.9515 59.5015C24.1709 59.8143 24.5288 60.0006 24.911 60.0006H35.0898C35.4719 60.0006 35.83 59.8144 36.0493 59.5015C36.2687 59.1888 36.3218 58.7887 36.1916 58.4295L32.9929 49.6049Z" fill="#70768A"/>
<path d="M55.7189 14.5295C56.6098 13.7464 56.911 12.758 57.0126 12.1835C57.504 9.4037 55.4547 5.85829 52.7958 4.8878C52.2437 4.68637 51.2286 4.44955 50.0971 4.83273C49.9436 4.05828 49.587 3.48234 49.2756 3.1049C47.6496 1.13428 44.3018 0.780744 42.0045 1.57769C40.5769 2.07278 39.5734 2.9521 39.1037 4.07972C39.092 4.07527 39.0802 4.07094 39.0684 4.06672C38.4593 3.84454 37.3234 3.58241 36.0651 4.05242C35.8443 2.73871 35.057 1.89173 34.5638 1.47762C32.2182 -0.492539 27.7824 -0.492539 25.4367 1.47762C24.9435 1.89185 24.1562 2.73883 23.9354 4.05242C22.6774 3.58241 21.5412 3.84454 20.9321 4.06683C20.9205 4.07105 20.9089 4.07539 20.8972 4.07972C20.4435 2.99124 19.4908 2.13219 18.1325 1.6269C15.8279 0.769612 12.438 1.07475 10.7544 3.06975C10.4313 3.45257 10.06 4.03977 9.90247 4.83261C8.77109 4.44966 7.75655 4.68649 7.20463 4.88792C4.54569 5.85829 2.49632 9.40382 2.98777 12.1836C3.08937 12.7581 3.39064 13.7465 4.28144 14.5296C3.39064 15.3128 3.08937 16.3011 2.98777 16.8757C2.49643 19.6553 4.54569 23.2009 7.20463 24.1712C7.7569 24.3729 8.77297 24.6099 9.90516 24.2256C10.0487 24.9533 10.3693 25.5001 10.652 25.8632C11.5949 27.0746 13.1631 27.6909 14.75 27.8404L23.9702 44.2855C24.185 44.6688 24.5832 44.8844 24.9934 44.8844C25.1874 44.8844 25.3841 44.8361 25.5654 44.7345C26.1298 44.418 26.3309 43.7038 26.0144 43.1394L17.3421 27.6714C17.4388 27.6485 17.5341 27.6237 17.6276 27.5972C19.241 27.1386 20.3833 26.2104 20.8957 24.9789C20.9078 24.9834 20.9199 24.9879 20.932 24.9922C21.5409 25.2145 22.6772 25.4765 23.9353 25.0066C24.1561 26.3202 24.9434 27.1672 25.4366 27.5814C26.3377 28.3383 27.5473 28.8043 28.8283 28.9796V46.3558C28.8283 47.003 29.3529 47.5276 30.0001 47.5276C30.6473 47.5276 31.1719 47.003 31.1719 46.3558V28.9796C32.4529 28.8043 33.6624 28.3383 34.5636 27.5814C35.0568 27.1672 35.8441 26.3203 36.0649 25.0066C37.323 25.4766 38.4591 25.2145 39.0682 24.9922C39.0802 24.9879 39.092 24.9835 39.1038 24.9791C39.5881 26.1425 40.6388 27.0392 42.13 27.5234C42.2975 27.5778 42.4705 27.6263 42.6482 27.6688L33.3644 43.9962C33.0445 44.5588 33.2413 45.2742 33.8039 45.5941C33.9868 45.698 34.1856 45.7474 34.382 45.7474C34.7897 45.7474 35.1859 45.5344 35.4017 45.1546L45.2403 27.8516C46.8013 27.7121 48.3375 27.1144 49.3013 25.9223C49.6025 25.5498 49.9462 24.984 50.0963 24.2259C51.228 24.6095 52.2435 24.3726 52.7957 24.171C55.4546 23.2006 57.504 19.6551 57.0125 16.8755C56.911 16.3009 56.6098 15.3126 55.7189 14.5295V14.5295ZM16.9867 25.3429C15.3136 25.8186 13.2595 25.3977 12.5014 24.4237C11.9823 23.7568 12.0746 22.8047 12.776 21.5936C13.1003 21.0336 12.9092 20.3167 12.3491 19.9924C11.7892 19.6681 11.0722 19.8591 10.7478 20.4192C9.52866 22.5246 8.38393 22.1068 8.00801 21.9697C6.42256 21.391 5.00292 18.9386 5.29552 17.2836C5.48102 16.2338 6.39479 15.7014 8.01118 15.7014C8.65837 15.7014 9.18298 15.1768 9.18298 14.5296C9.18298 13.8825 8.65837 13.3578 8.01118 13.3578C6.39479 13.3578 5.48114 12.8255 5.29552 11.7757C5.00292 10.1207 6.42256 7.66826 8.00801 7.08962C8.38393 6.95252 9.52726 6.53512 10.7457 8.63652C10.7464 8.63781 10.7471 8.63886 10.7478 8.64004C11.0722 9.20004 11.789 9.39128 12.3491 9.06692C12.9091 8.74257 13.1002 8.02566 12.776 7.46565C12.7751 7.46413 12.7743 7.46284 12.7735 7.46143C12.0562 6.22096 11.9795 5.252 12.5452 4.58149C13.4117 3.55487 15.6407 3.20075 17.3153 3.82369C17.9659 4.06566 18.729 4.53298 18.8403 5.40644C17.0884 7.07158 15.9913 9.72934 16.3818 11.9387C16.494 12.5734 16.8347 13.6803 17.8662 14.5299C16.8347 15.3793 16.494 16.4863 16.3818 17.1211C15.9912 19.3308 17.0888 21.9891 18.8411 23.6541C18.7147 24.7002 17.6269 25.161 16.9867 25.3429V25.3429ZM35.1255 21.0418C34.8013 20.4818 34.0844 20.2906 33.5243 20.6151C33.1491 20.8323 32.9394 21.2258 32.9395 21.6302C32.9395 21.8295 32.9904 22.0314 33.0975 22.2162C34.0116 23.7949 33.9979 24.9961 33.0565 25.7867C31.5997 27.0101 28.4007 27.0101 26.9439 25.7867C26.0026 24.9961 25.9888 23.7949 26.9029 22.2162C27.0099 22.0313 27.0608 21.8294 27.0608 21.6302C27.0608 21.2257 26.8512 20.8322 26.4761 20.6151C25.9162 20.2908 25.1992 20.4818 24.8748 21.0418C23.9566 22.6274 22.9004 23.2156 21.7355 22.7906C19.9205 22.1282 18.3548 19.4234 18.6898 17.5286C18.9041 16.3161 19.943 15.7013 21.7775 15.7013C22.4247 15.7013 22.9493 15.1767 22.9493 14.5295C22.9493 13.8823 22.4247 13.3577 21.7775 13.3577C19.9431 13.3577 18.9043 12.743 18.6898 11.5304C18.3548 9.6356 19.9205 6.93084 21.7355 6.2683C22.9001 5.84317 23.9565 6.43154 24.8747 8.0171C25.1991 8.57711 25.9159 8.76835 26.476 8.44399C26.8512 8.22674 27.0608 7.83325 27.0607 7.42886C27.0607 7.22953 27.0099 7.02763 26.9028 6.84272C25.9886 5.26407 26.0024 4.06285 26.9438 3.27223C28.4006 2.04875 31.5996 2.04875 33.0564 3.27223C33.9977 4.06285 34.0115 5.26407 33.0974 6.84272C32.9903 7.02763 32.9394 7.22953 32.9394 7.42886C32.9393 7.83337 33.1491 8.22686 33.5242 8.44399C34.084 8.76823 34.801 8.57723 35.1254 8.0171C36.0435 6.43154 37.0998 5.84294 38.2647 6.2683C40.0798 6.93072 41.6453 9.63548 41.3103 11.5304C41.096 12.743 40.0572 13.3577 38.2226 13.3577C37.5754 13.3577 37.0508 13.8823 37.0508 14.5295C37.0508 15.1767 37.5754 15.7013 38.2226 15.7013C40.0571 15.7013 41.096 16.3162 41.3103 17.5286C41.6453 19.4234 40.0798 22.1282 38.2647 22.7906C37.0997 23.2156 36.0437 22.6274 35.1255 21.0418V21.0418ZM51.9891 15.7013C53.6055 15.7013 54.5191 16.2337 54.7048 17.2835C54.9974 18.9384 53.5777 21.3909 51.9923 21.9695C51.6161 22.1068 50.4716 22.5244 49.2525 20.4191C48.9281 19.859 48.2112 19.668 47.6512 19.9922C47.0912 20.3166 46.9001 21.0335 47.2243 21.5935C47.9341 22.8192 48.0197 23.7797 47.4789 24.4487C46.6641 25.4565 44.5462 25.8439 42.8539 25.2943C42.1353 25.061 41.2741 24.5885 41.1592 23.6537C42.9115 21.9885 44.009 19.3304 43.6184 17.1207C43.5063 16.486 43.1655 15.3791 42.1341 14.5295C43.1655 13.6801 43.5063 12.5731 43.6184 11.9383C44.009 9.72876 42.9117 7.07076 41.1595 5.40562C41.2726 4.50052 42.0865 4.02981 42.7725 3.79193C44.4424 3.21282 46.6364 3.58874 47.4679 4.59649C48.0208 5.26653 47.9389 6.23174 47.2244 7.4653C46.9001 8.02531 47.0912 8.74222 47.6513 9.06657C48.2112 9.39093 48.9281 9.19981 49.2526 8.63968C50.4717 6.5343 51.6163 6.95217 51.9924 7.08927C53.5778 7.66791 54.9975 10.1205 54.7049 11.7753C54.5194 12.8251 53.6056 13.3575 51.9892 13.3575C51.342 13.3575 50.8174 13.8821 50.8174 14.5293C50.8173 15.1767 51.3419 15.7013 51.9891 15.7013V15.7013Z" fill="#70768A"/>
<path d="M41.1134 44.2575C40.7514 42.9338 39.9404 41.7605 38.5869 41.3481C38.5869 41.3481 35.0556 40.2907 31.5255 44.177C31.3181 44.1255 31.1015 44.0981 30.8789 44.0981H29.0845C28.8726 44.0981 28.6663 44.1228 28.468 44.1697C24.9401 40.292 21.4132 41.3481 21.4132 41.3481C20.0596 41.7606 19.2485 42.9338 18.8865 44.2575C18.3904 46.0711 18.4326 48.2059 18.6952 50.061C18.9301 51.7187 19.7078 53.3944 21.4132 53.9141C21.4132 53.9141 24.8754 54.9507 28.3705 51.1983C28.5982 51.2611 28.8376 51.2948 29.0844 51.2948H30.8788C31.1361 51.2948 31.3853 51.2582 31.6218 51.1901C35.1196 54.9522 38.5869 53.9141 38.5869 53.9141C40.2922 53.3944 41.0699 51.7186 41.3049 50.061C41.5674 48.2059 41.6095 46.0711 41.1134 44.2575Z" fill="#E8CDC8"/>
<path d="M30.0002 18.4884C32.1934 18.4884 33.9712 16.7159 33.9712 14.5294C33.9712 12.3428 32.1934 10.5703 30.0002 10.5703C27.8071 10.5703 26.0292 12.3428 26.0292 14.5294C26.0292 16.7159 27.8071 18.4884 30.0002 18.4884Z" fill="#E8CDC8"/>
</g>
<defs>
<clipPath id="clip0_4318_30894">
<rect width="60" height="60" fill="white"/>
</clipPath>
</defs>
</svg>
