<svg width="56" height="60" viewBox="0 0 56 60" fill="none" xmlns="http://www.w3.org/2000/svg">
<path d="M30.9928 49.6043C30.7723 48.9959 30.1 48.6814 29.4918 48.9019C28.8834 49.1225 28.5689 49.7945 28.7895 50.4029L31.4185 57.6563H24.5819L27.1184 50.6582C27.3389 50.0498 27.0244 49.3778 26.416 49.1573C25.8076 48.9367 25.1356 49.2511 24.915 49.8596L21.8092 58.4289C21.679 58.7881 21.732 59.1882 21.9514 59.501C22.1708 59.8137 22.5288 60.0001 22.9109 60.0001H33.0898C33.4718 60.0001 33.8299 59.8139 34.0492 59.501C34.2686 59.1882 34.3217 58.7882 34.1915 58.4289L30.9928 49.6043Z" fill="#70768A"/>
<path d="M53.7189 14.5295C54.6097 13.7463 54.9109 12.7579 55.0125 12.1834C55.5039 9.40364 53.4546 5.85823 50.7957 4.88774C50.2437 4.68631 49.2285 4.44949 48.097 4.83267C47.9435 4.05822 47.5869 3.48228 47.2755 3.10484C45.6495 1.13422 42.3018 0.780683 40.0044 1.57763C38.5768 2.07271 37.5733 2.95204 37.1036 4.07966C37.0919 4.07521 37.0801 4.07088 37.0684 4.06666C36.4593 3.84448 35.3233 3.58235 34.065 4.05236C33.8443 2.73865 33.0569 1.89167 32.5637 1.47755C30.2181 -0.4926 25.7824 -0.4926 23.4366 1.47755C22.9434 1.89179 22.1561 2.73877 21.9353 4.05236C20.6773 3.58235 19.5411 3.84448 18.932 4.06677C18.9204 4.07099 18.9088 4.07533 18.8971 4.07966C18.4435 2.99117 17.4907 2.13212 16.1324 1.62684C13.8279 0.769551 10.4379 1.07469 8.7543 3.06969C8.43123 3.45251 8.05988 4.03971 7.90239 4.83255C6.77102 4.4496 5.75647 4.68642 5.20455 4.88786C2.54561 5.85823 0.496241 9.40376 0.987696 12.1835C1.08929 12.758 1.39056 13.7465 2.28137 14.5296C1.39056 15.3127 1.08929 16.301 0.987696 16.8757C0.496359 19.6553 2.54561 23.2008 5.20455 24.1712C5.75682 24.3729 6.77289 24.6098 7.90509 24.2256C8.04863 24.9532 8.36924 25.5 8.65188 25.8632C9.59483 27.0746 11.1631 27.6908 12.7499 27.8403L21.9701 44.2854C22.1849 44.6687 22.5831 44.8844 22.9934 44.8844C23.1873 44.8844 23.384 44.8361 23.5653 44.7345C24.1298 44.418 24.3308 43.7038 24.0143 43.1393L15.3421 27.6714C15.4387 27.6484 15.534 27.6237 15.6275 27.5972C17.241 27.1385 18.3832 26.2104 18.8957 24.9788C18.9077 24.9834 18.9198 24.9878 18.9319 24.9922C19.5409 25.2144 20.6772 25.4765 21.9352 25.0066C22.156 26.3202 22.9433 27.1671 23.4365 27.5814C24.3376 28.3382 25.5472 28.8043 26.8282 28.9796V46.3558C26.8282 47.003 27.3528 47.5276 28 47.5276C28.6472 47.5276 29.1718 47.003 29.1718 46.3558V28.9796C30.4528 28.8043 31.6624 28.3382 32.5635 27.5814C33.0567 27.1671 33.844 26.3203 34.0648 25.0066C35.323 25.4766 36.459 25.2144 37.0681 24.9922C37.0801 24.9878 37.0919 24.9835 37.1037 24.979C37.5881 26.1424 38.6387 27.0392 40.1299 27.5234C40.2974 27.5777 40.4705 27.6263 40.6481 27.6688L31.3644 43.9961C31.0445 44.5587 31.2412 45.2741 31.8038 45.594C31.9867 45.6979 32.1856 45.7474 32.382 45.7474C32.7896 45.7474 33.1858 45.5344 33.4017 45.1546L43.2402 27.8516C44.8012 27.712 46.3374 27.1143 47.3013 25.9222C47.6024 25.5497 47.9461 24.9839 48.0962 24.2258C49.2279 24.6094 50.2434 24.3725 50.7956 24.1709C53.4545 23.2006 55.5039 19.6551 55.0124 16.8754C54.9109 16.3009 54.6097 15.3126 53.7189 14.5295ZM14.9867 25.3429C13.3135 25.8185 11.2594 25.3976 10.5013 24.4236C9.98223 23.7567 10.0746 22.8046 10.7759 21.5936C11.1002 21.0336 10.9091 20.3167 10.349 19.9923C9.78912 19.6681 9.07209 19.8591 8.74773 20.4192C7.52859 22.5246 6.38385 22.1067 6.00794 21.9696C4.42249 21.391 3.00285 18.9385 3.29545 17.2836C3.48094 16.2337 4.39472 15.7014 6.0111 15.7014C6.65829 15.7014 7.18291 15.1768 7.18291 14.5296C7.18291 13.8824 6.65829 13.3578 6.0111 13.3578C4.39472 13.3578 3.48106 12.8254 3.29545 11.7756C3.00285 10.1207 4.42249 7.6682 6.00794 7.08956C6.38385 6.95246 7.52718 6.53506 8.74562 8.63646C8.74633 8.63775 8.74703 8.6388 8.74773 8.63997C9.07209 9.19998 9.78888 9.39122 10.349 9.06686C10.909 8.74251 11.1001 8.0256 10.7759 7.46559C10.7751 7.46407 10.7743 7.46278 10.7734 7.46137C10.0562 6.2209 9.97942 5.25194 10.5452 4.58143C11.4116 3.55481 13.6406 3.20069 15.3152 3.82362C15.9658 4.0656 16.7289 4.53292 16.8402 5.40638C15.0884 7.07151 13.9912 9.72928 14.3818 11.9386C14.4939 12.5734 14.8347 13.6803 15.8661 14.5298C14.8347 15.3793 14.4939 16.4863 14.3818 17.121C13.9911 19.3307 15.0887 21.9891 16.841 23.6541C16.7146 24.7001 15.6268 25.1609 14.9867 25.3429ZM33.1255 21.0418C32.8012 20.4818 32.0843 20.2905 31.5242 20.615C31.149 20.8322 30.9394 21.2257 30.9395 21.6301C30.9395 21.8295 30.9903 22.0314 31.0974 22.2161C32.0116 23.7948 31.9978 24.996 31.0564 25.7866C29.5996 27.01 26.4006 27.01 24.9438 25.7866C24.0025 24.996 23.9887 23.7948 24.9028 22.2161C25.0098 22.0312 25.0608 21.8293 25.0608 21.6301C25.0608 21.2256 24.8511 20.8321 24.476 20.615C23.9161 20.2908 23.1991 20.4818 22.8748 21.0418C21.9565 22.6273 20.9003 23.2156 19.7354 22.7906C17.9204 22.1281 16.3547 19.4234 16.6897 17.5286C16.9041 16.316 17.9429 15.7013 19.7775 15.7013C20.4246 15.7013 20.9493 15.1766 20.9493 14.5295C20.9493 13.8823 20.4246 13.3577 19.7775 13.3577C17.943 13.3577 16.9042 12.7429 16.6897 11.5303C16.3547 9.63554 17.9204 6.93078 19.7354 6.26824C20.9 5.84311 21.9564 6.43147 22.8746 8.01704C23.199 8.57705 23.9158 8.76829 24.4759 8.44393C24.8511 8.22668 25.0608 7.83319 25.0606 7.4288C25.0606 7.22947 25.0098 7.02757 24.9027 6.84266C23.9886 5.26401 24.0023 4.06279 24.9437 3.27217C26.4005 2.04869 29.5995 2.04869 31.0563 3.27217C31.9976 4.06279 32.0114 5.26401 31.0973 6.84266C30.9902 7.02757 30.9394 7.22947 30.9394 7.4288C30.9392 7.8333 31.149 8.2268 31.5241 8.44393C32.084 8.76817 32.8009 8.57717 33.1254 8.01704C34.0435 6.43147 35.0997 5.84288 36.2646 6.26824C38.0797 6.93066 39.6453 9.63542 39.3103 11.5303C39.0959 12.7429 38.0571 13.3577 36.2225 13.3577C35.5754 13.3577 35.0507 13.8823 35.0507 14.5295C35.0507 15.1766 35.5754 15.7013 36.2225 15.7013C38.057 15.7013 39.0959 16.3161 39.3103 17.5286C39.6453 19.4234 38.0797 22.1281 36.2646 22.7906C35.0996 23.2156 34.0436 22.6273 33.1255 21.0418ZM49.989 15.7013C51.6054 15.7013 52.5191 16.2336 52.7047 17.2834C52.9973 18.9384 51.5776 21.3908 49.9922 21.9695C49.616 22.1067 48.4715 22.5243 47.2524 20.4191C46.928 19.8589 46.2111 19.6679 45.6511 19.9922C45.0911 20.3165 44.9 21.0334 45.2242 21.5934C45.934 22.8192 46.0197 23.7797 45.4789 24.4487C44.664 25.4564 42.5461 25.8438 40.8539 25.2942C40.1352 25.0609 39.274 24.5885 39.1591 23.6536C40.9114 21.9885 42.0089 19.3303 41.6184 17.1207C41.5062 16.4859 41.1655 15.379 40.134 14.5295C41.1655 13.68 41.5062 12.573 41.6184 11.9383C42.0089 9.7287 40.9116 7.07069 39.1594 5.40556C39.2725 4.50046 40.0865 4.02974 40.7724 3.79187C42.4424 3.21276 44.6363 3.58868 45.4678 4.59643C46.0207 5.26647 45.9388 6.23168 45.2243 7.46524C44.9 8.02525 45.0911 8.74216 45.6512 9.06651C46.2111 9.39087 46.928 9.19974 47.2525 8.63962C48.4716 6.53424 49.6163 6.95211 49.9923 7.08921C51.5778 7.66785 52.9974 10.1204 52.7048 11.7753C52.5193 12.8251 51.6055 13.3574 49.9891 13.3574C49.3419 13.3574 48.8173 13.882 48.8173 14.5292C48.8172 15.1767 49.3418 15.7013 49.989 15.7013Z" fill="#70768A"/>
</svg>
