<svg width="40" height="40" viewBox="0 0 40 40" fill="none" xmlns="http://www.w3.org/2000/svg">
<g clip-path="url(#clip0)">
<path d="M32.9126 9.54117C31.0644 8.94742 29.3067 8.96398 27.7303 9.47367C28.7709 7.65453 29.0959 5.44414 28.8925 3.34586C28.8745 3.16 28.7751 2.99398 28.6197 2.89039C28.4637 2.78625 28.2714 2.75828 28.0919 2.8132C26.2085 3.39031 24.6472 4.29789 23.4108 5.47266C22.9849 3.50648 21.95 1.7793 20.6358 0.286406C20.4755 0.104375 20.2438 0 20.0001 0C19.7563 0 19.5247 0.104453 19.3644 0.286563C17.904 1.94508 16.9713 3.68945 16.5887 5.47219C15.3529 4.29828 13.7923 3.39055 11.9083 2.81328C11.7287 2.75828 11.5363 2.78648 11.3804 2.89047C11.2251 2.99414 11.1256 3.16016 11.1076 3.34602C10.9081 5.40609 11.2131 7.62914 12.2682 9.47375C10.6322 8.94828 8.85982 8.97188 7.08756 9.54117C6.95263 9.58453 6.84553 9.68492 6.79381 9.81664C6.74224 9.94789 6.75224 10.0937 6.82131 10.2166C7.48545 11.3998 9.84982 13.467 11.9285 14.8008C13.8784 13.3671 16.6041 12.6045 20 12.6045C23.3958 12.6045 26.1214 13.3671 28.0714 14.8006C30.1462 13.4702 32.5097 11.4089 33.179 10.2167C33.3239 9.95844 33.1954 9.63203 32.9126 9.54117Z" fill="#E8CDC8"/>
<path d="M29.0379 14.5674C26.886 12.7464 23.8453 11.8232 20.0001 11.8232C16.1551 11.8232 13.1144 12.7464 10.9626 14.5674C8.80303 16.3947 7.66162 19.0976 7.66162 22.384C7.66162 25.7725 9.176 30.1477 11.6139 33.8021C14.2415 37.741 17.2981 40 20.0001 40C25.8394 40 32.339 29.4998 32.339 22.384C32.339 19.0976 31.1975 16.3947 29.0379 14.5674ZM20.0001 38.4375C15.4682 38.4375 9.22404 29.1355 9.22404 22.384C9.22404 16.5814 13.0511 13.3857 20.0001 13.3857C26.9494 13.3857 30.7765 16.5814 30.7765 22.384C30.7765 29.1355 24.5322 38.4375 20.0001 38.4375Z" fill="#70768A"/>
<path d="M12.4722 20.7729C12.0407 20.7729 11.6909 21.1228 11.6909 21.5542V22.5189C11.6909 22.9503 12.0407 23.3001 12.4722 23.3001C12.9037 23.3001 13.2534 22.9503 13.2534 22.5189V21.5542C13.2534 21.1227 12.9037 20.7729 12.4722 20.7729Z" fill="#70768A"/>
<path d="M17.7271 20.7729C17.2956 20.7729 16.9458 21.1228 16.9458 21.5542V22.5189C16.9458 22.9503 17.2956 23.3001 17.7271 23.3001C18.1585 23.3001 18.5083 22.9503 18.5083 22.5189V21.5542C18.5083 21.1227 18.1585 20.7729 17.7271 20.7729Z" fill="#70768A"/>
<path d="M22.9819 20.7729C22.5505 20.7729 22.2007 21.1228 22.2007 21.5542V22.5189C22.2007 22.9503 22.5505 23.3001 22.9819 23.3001C23.4133 23.3001 23.7632 22.9503 23.7632 22.5189V21.5542C23.7632 21.1227 23.4134 20.7729 22.9819 20.7729Z" fill="#70768A"/>
<path d="M28.2366 20.7729C27.8052 20.7729 27.4553 21.1228 27.4553 21.5542V22.5189C27.4553 22.9503 27.8052 23.3001 28.2366 23.3001C28.668 23.3001 29.0178 22.9503 29.0178 22.5189V21.5542C29.0178 21.1227 28.668 20.7729 28.2366 20.7729Z" fill="#70768A"/>
<path d="M14.7454 24.7119C14.3139 24.7119 13.9641 25.0618 13.9641 25.4932V26.4578C13.9641 26.8892 14.3139 27.239 14.7454 27.239C15.1768 27.239 15.5266 26.8892 15.5266 26.4578V25.4932C15.5266 25.0617 15.1768 24.7119 14.7454 24.7119Z" fill="#70768A"/>
<path d="M20.0002 24.7119C19.5688 24.7119 19.219 25.0618 19.219 25.4932V26.4578C19.219 26.8892 19.5688 27.239 20.0002 27.239C20.4317 27.239 20.7815 26.8892 20.7815 26.4578V25.4932C20.7815 25.0617 20.4317 24.7119 20.0002 24.7119Z" fill="#70768A"/>
<path d="M25.2554 24.7119C24.824 24.7119 24.4741 25.0618 24.4741 25.4932V26.4578C24.4741 26.8892 24.824 27.239 25.2554 27.239C25.6868 27.239 26.0366 26.8892 26.0366 26.4578V25.4932C26.0366 25.0617 25.6868 24.7119 25.2554 24.7119Z" fill="#70768A"/>
<path d="M14.7454 16.8335C14.3139 16.8335 13.9641 17.1833 13.9641 17.6147V18.5794C13.9641 19.0108 14.3139 19.3606 14.7454 19.3606C15.1768 19.3606 15.5266 19.0108 15.5266 18.5794V17.6147C15.5266 17.1833 15.1768 16.8335 14.7454 16.8335Z" fill="#70768A"/>
<path d="M20.0002 16.8335C19.5688 16.8335 19.219 17.1833 19.219 17.6147V18.5794C19.219 19.0108 19.5688 19.3606 20.0002 19.3606C20.4317 19.3606 20.7815 19.0108 20.7815 18.5794V17.6147C20.7815 17.1833 20.4317 16.8335 20.0002 16.8335Z" fill="#70768A"/>
<path d="M25.2554 16.8335C24.824 16.8335 24.4741 17.1833 24.4741 17.6147V18.5794C24.4741 19.0108 24.824 19.3606 25.2554 19.3606C25.6868 19.3606 26.0366 19.0108 26.0366 18.5794V17.6147C26.0366 17.1833 25.6868 16.8335 25.2554 16.8335Z" fill="#70768A"/>
<path d="M17.3728 28.6509C16.9413 28.6509 16.5916 29.0007 16.5916 29.4321V30.3967C16.5916 30.8281 16.9413 31.178 17.3728 31.178C17.8043 31.178 18.1541 30.8281 18.1541 30.3967V29.4321C18.1541 29.0007 17.8043 28.6509 17.3728 28.6509Z" fill="#70768A"/>
<path d="M22.6279 28.6509C22.1965 28.6509 21.8467 29.0007 21.8467 29.4321V30.3967C21.8467 30.8281 22.1965 31.178 22.6279 31.178C23.0593 31.178 23.4092 30.8281 23.4092 30.3967V29.4321C23.4092 29.0007 23.0593 28.6509 22.6279 28.6509Z" fill="#70768A"/>
<path d="M20.0002 32.5903C19.5688 32.5903 19.219 32.9402 19.219 33.3716V34.3362C19.219 34.7676 19.5688 35.1174 20.0002 35.1174C20.4317 35.1174 20.7815 34.7676 20.7815 34.3362V33.3716C20.7815 32.9402 20.4317 32.5903 20.0002 32.5903Z" fill="#70768A"/>
</g>
<defs>
<clipPath id="clip0">
<rect width="40" height="40" fill="white"/>
</clipPath>
</defs>
</svg>
