<svg width="40" height="40" viewBox="0 0 40 40" fill="none" xmlns="http://www.w3.org/2000/svg">
<path d="M20.0002 27.7754C24.2945 27.7754 27.7756 24.2942 27.7756 20C27.7756 15.7058 24.2945 12.2246 20.0002 12.2246C15.706 12.2246 12.2249 15.7058 12.2249 20C12.2249 24.2942 15.706 27.7754 20.0002 27.7754Z" fill="#E8CDC8"/>
<path d="M23.8743 18.796L19.6926 16.1724C19.2547 15.8976 18.7014 15.8824 18.249 16.1326C17.7965 16.3828 17.5154 16.8596 17.5154 17.3766V22.6238C17.5154 23.1408 17.7965 23.6175 18.249 23.8678C18.4633 23.9865 18.7003 24.0454 18.9369 24.0454C19.1998 24.0454 19.4621 23.9726 19.6925 23.828L23.8743 21.2044C24.2914 20.9427 24.5403 20.4925 24.5403 20.0002C24.5403 19.5079 24.2914 19.0577 23.8743 18.796ZM19.078 22.3691V17.6312L22.8537 20.0002L19.078 22.3691Z" fill="#70768A"/>
<path d="M34.8054 0H30.684C30.2526 0 29.9028 0.349844 29.9028 0.78125V1.5625H10.0975V0.78125C10.0975 0.349844 9.74771 0 9.31623 0H5.19482C4.76334 0 4.41357 0.349844 4.41357 0.78125V39.2188C4.41357 39.6502 4.76334 40 5.19482 40H9.31615C9.74764 40 10.0974 39.6502 10.0974 39.2188V38.4375H29.9027V39.2188C29.9027 39.6502 30.2526 40 30.684 40H34.8054C35.2368 40 35.5866 39.6502 35.5866 39.2188V0.78125C35.5867 0.349844 35.2369 0 34.8054 0ZM8.53498 19.2188H5.97607V14.375H8.5349V19.2188H8.53498ZM5.97607 20.7812H8.5349V25.625H5.97607V20.7812ZM8.53498 12.8125H5.97607V7.96875H8.5349V12.8125H8.53498ZM5.97607 27.1875H8.5349V32.0312H5.97607V27.1875ZM10.0975 9.09906H29.9028V30.9009H10.0975V9.09906ZM31.4653 14.375H34.0242V19.2188H31.4653V14.375ZM31.4653 20.7812H34.0242V25.625H31.4653V20.7812ZM34.0242 12.8125H31.4653V7.96875H34.0242V12.8125ZM31.4653 27.1875H34.0242V32.0312H31.4653V27.1875ZM31.4653 1.5625H34.0242V6.40625H31.4653V1.5625ZM29.9028 3.125V7.53656H10.0975V3.125H29.9028ZM8.53498 1.5625V6.40625H5.97607V1.5625H8.53498ZM8.53498 38.4375H5.97607V33.5938H8.5349V38.4375H8.53498ZM10.0975 36.875V32.4634H29.9028V36.875H10.0975ZM31.4653 38.4375V33.5938H34.0242V38.4375H31.4653Z" fill="#70768A"/>
</svg>
