<svg width="40" height="40" viewBox="0 0 40 40" fill="none" xmlns="http://www.w3.org/2000/svg">
<g clip-path="url(#clip0)">
<path d="M21.9951 33.0699C21.8481 32.6643 21.3999 32.4546 20.9945 32.6017C20.5889 32.7487 20.3792 33.1967 20.5262 33.6023L22.2789 38.4379H17.7212L19.4122 33.7725C19.5592 33.3669 19.3495 32.9189 18.9439 32.7719C18.5383 32.6249 18.0903 32.8344 17.9433 33.2401L15.8727 38.953C15.7859 39.1924 15.8213 39.4592 15.9675 39.6677C16.1138 39.8762 16.3524 40.0004 16.6072 40.0004H23.3931C23.6478 40.0004 23.8865 39.8763 24.0327 39.6677C24.179 39.4592 24.2144 39.1925 24.1276 38.953L21.9951 33.0699Z" fill="#70768A"/>
<path d="M37.146 9.68635C37.7399 9.16427 37.9407 8.50533 38.0084 8.1223C38.336 6.26913 36.9698 3.90553 35.1972 3.25853C34.8292 3.12424 34.1524 2.96636 33.3981 3.22182C33.2958 2.70552 33.058 2.32156 32.8504 2.06993C31.7664 0.756185 29.5346 0.520496 28.003 1.05179C27.0513 1.38185 26.3823 1.96807 26.0692 2.71982C26.0614 2.71685 26.0535 2.71396 26.0457 2.71115C25.6396 2.56303 24.8823 2.38827 24.0434 2.70161C23.8963 1.82581 23.3714 1.26115 23.0426 0.985077C21.4788 -0.328359 18.5217 -0.328359 16.9578 0.985077C16.629 1.26123 16.1041 1.82589 15.957 2.70161C15.1183 2.38827 14.3608 2.56303 13.9547 2.71122C13.947 2.71404 13.9393 2.71693 13.9315 2.71982C13.6291 1.99416 12.9939 1.42146 12.0884 1.0846C10.552 0.513075 8.29204 0.7165 7.16961 2.0465C6.95423 2.30172 6.70667 2.69318 6.60168 3.22174C5.84743 2.96644 5.17106 3.12432 4.80311 3.25861C3.03049 3.90553 1.66424 6.26921 1.99188 8.12238C2.05961 8.50541 2.26046 9.16435 2.85433 9.68643C2.26046 10.2085 2.05961 10.8674 1.99188 11.2505C1.66432 13.1036 3.03049 15.4673 4.80311 16.1142C5.17129 16.2486 5.84868 16.4066 6.60347 16.1504C6.69917 16.6355 6.91291 17 7.10133 17.2421C7.72997 18.0498 8.77545 18.4606 9.83336 18.5603L15.9802 29.5237C16.1234 29.7792 16.3888 29.9229 16.6623 29.9229C16.7916 29.9229 16.9228 29.8908 17.0436 29.823C17.4199 29.612 17.554 29.1359 17.343 28.7596L11.5615 18.4476C11.6259 18.4323 11.6894 18.4158 11.7518 18.3982C12.8274 18.0924 13.5889 17.4736 13.9305 16.6526C13.9386 16.6556 13.9466 16.6586 13.9547 16.6615C14.3607 16.8097 15.1182 16.9843 15.9569 16.6711C16.1041 17.5468 16.629 18.1115 16.9578 18.3876C17.5585 18.8922 18.3649 19.2029 19.2189 19.3198V30.9039C19.2189 31.3354 19.5686 31.6851 20.0001 31.6851C20.4315 31.6851 20.7813 31.3354 20.7813 30.9039V19.3198C21.6353 19.2029 22.4417 18.8922 23.0424 18.3876C23.3712 18.1115 23.8961 17.5469 24.0433 16.6711C24.8821 16.9844 25.6394 16.8097 26.0455 16.6615C26.0535 16.6586 26.0614 16.6557 26.0692 16.6527C26.3921 17.4283 27.0925 18.0262 28.0867 18.349C28.1983 18.3852 28.3137 18.4175 28.4321 18.4459L22.243 29.3308C22.0297 29.7058 22.1609 30.1828 22.5359 30.396C22.6579 30.4653 22.7905 30.4983 22.9214 30.4983C23.1932 30.4983 23.4573 30.3563 23.6012 30.1031L30.1602 18.5678C31.2009 18.4747 32.225 18.0762 32.8676 17.2815C33.0684 17.0332 33.2975 16.656 33.3976 16.1506C34.152 16.4063 34.829 16.2484 35.1971 16.114C36.9698 15.4671 38.336 13.1034 38.0084 11.2503C37.9407 10.8673 37.7399 10.2084 37.146 9.68635ZM11.3245 16.8953C10.2091 17.2124 8.83967 16.9318 8.33431 16.2824C7.98823 15.8379 8.04979 15.2031 8.51734 14.3958C8.73358 14.0224 8.60617 13.5445 8.23275 13.3282C7.85949 13.1121 7.38147 13.2394 7.16524 13.6128C6.35247 15.0164 5.58932 14.7378 5.33871 14.6464C4.28174 14.2607 3.33531 12.6257 3.53038 11.5224C3.65404 10.8225 4.26323 10.4676 5.34082 10.4676C5.77227 10.4676 6.12202 10.1179 6.12202 9.68643C6.12202 9.25497 5.77227 8.90522 5.34082 8.90522C4.26323 8.90522 3.65412 8.55032 3.53038 7.85044C3.33531 6.74715 4.28174 5.11217 5.33871 4.72641C5.58932 4.63501 6.35154 4.35675 7.16383 5.75768C7.1643 5.75854 7.16477 5.75924 7.16524 5.76002C7.38147 6.13336 7.85934 6.26085 8.23275 6.04462C8.60609 5.82838 8.7335 5.35044 8.51734 4.9771C8.5168 4.97609 8.51625 4.97523 8.5157 4.97429C8.03753 4.14731 7.98636 3.50133 8.36352 3.05433C8.94114 2.36992 10.4271 2.13384 11.5436 2.54912C11.9773 2.71044 12.486 3.02199 12.5602 3.60429C11.3923 4.71438 10.6609 6.48623 10.9213 7.95911C10.996 8.38229 11.2232 9.12021 11.9108 9.68658C11.2232 10.2529 10.996 10.9909 10.9213 11.4141C10.6608 12.8872 11.3926 14.6594 12.5608 15.7694C12.4765 16.4668 11.7513 16.774 11.3245 16.8953ZM23.4171 14.0279C23.2009 13.6545 22.723 13.5271 22.3496 13.7434C22.0994 13.8882 21.9597 14.1505 21.9597 14.4201C21.9597 14.553 21.9936 14.6876 22.065 14.8108C22.6745 15.8632 22.6653 16.6641 22.0377 17.1911C21.0665 18.0067 18.9338 18.0067 17.9626 17.1911C17.3351 16.6641 17.3259 15.8632 17.9353 14.8108C18.0066 14.6875 18.0406 14.5529 18.0406 14.4201C18.0406 14.1505 17.9008 13.8881 17.6508 13.7434C17.2775 13.5272 16.7995 13.6545 16.5833 14.0279C15.9711 15.0849 15.2669 15.4771 14.4903 15.1938C13.2803 14.7521 12.2366 12.949 12.4599 11.6858C12.6028 10.8774 13.2953 10.4676 14.5184 10.4676C14.9498 10.4676 15.2996 10.1178 15.2996 9.68635C15.2996 9.25489 14.9498 8.90515 14.5184 8.90515C13.2954 8.90515 12.6029 8.49533 12.4599 7.68694C12.2366 6.42373 13.2803 4.62056 14.4903 4.17887C15.2668 3.89545 15.971 4.28769 16.5832 5.34474C16.7994 5.71807 17.2773 5.84557 17.6507 5.62933C17.9008 5.48449 18.0406 5.22217 18.0405 4.95257C18.0405 4.81969 18.0066 4.68509 17.9352 4.56182C17.3258 3.50938 17.3349 2.70857 17.9625 2.18149C18.9337 1.36584 21.0664 1.36584 22.0376 2.18149C22.6652 2.70857 22.6744 3.50938 22.065 4.56182C21.9936 4.68509 21.9597 4.81969 21.9597 4.95257C21.9596 5.22224 22.0994 5.48457 22.3495 5.62933C22.7227 5.84549 23.2007 5.71815 23.417 5.34474C24.0291 4.28769 24.7332 3.89529 25.5098 4.17887C26.7199 4.62048 27.7636 6.42366 27.5403 7.68694C27.3974 8.49533 26.7048 8.90515 25.4818 8.90515C25.0503 8.90515 24.7006 9.25489 24.7006 9.68635C24.7006 10.1178 25.0503 10.4676 25.4818 10.4676C26.7048 10.4676 27.3974 10.8774 27.5403 11.6858C27.7636 12.949 26.7199 14.7521 25.5098 15.1938C24.7332 15.4771 24.0291 15.0849 23.4171 14.0279ZM34.6594 10.4676C35.737 10.4676 36.3461 10.8225 36.4699 11.5223C36.6649 12.6256 35.7185 14.2606 34.6615 14.6464C34.4108 14.7378 33.6478 15.0163 32.835 13.6128C32.6188 13.2393 32.1408 13.112 31.7675 13.3282C31.3942 13.5444 31.2667 14.0223 31.4829 14.3957C31.9561 15.2128 32.0132 15.8532 31.6527 16.2992C31.1094 16.971 29.6975 17.2293 28.5693 16.8629C28.0902 16.7073 27.5161 16.3924 27.4395 15.7691C28.6077 14.659 29.3394 12.8869 29.079 11.4138C29.0042 10.9906 28.7771 10.2527 28.0894 9.68635C28.7771 9.12006 29.0042 8.38205 29.079 7.95888C29.3394 6.48584 28.6078 4.71384 27.4397 3.60375C27.5151 3.00035 28.0577 2.68654 28.515 2.52795C29.6283 2.14188 31.091 2.39249 31.6453 3.06433C32.0139 3.51102 31.9593 4.1545 31.483 4.97687C31.2667 5.3502 31.3942 5.82814 31.7676 6.04438C32.1408 6.26062 32.6188 6.1332 32.8351 5.75979C33.6478 4.3562 34.4109 4.63478 34.6616 4.72618C35.7186 5.11194 36.665 6.747 36.4699 7.85021C36.3463 8.55009 35.7371 8.90499 34.6595 8.90499C34.228 8.90499 33.8783 9.25473 33.8783 9.68619C33.8782 10.1178 34.228 10.4676 34.6594 10.4676Z" fill="#70768A"/>
<path d="M27.409 29.5047C27.1676 28.6222 26.627 27.84 25.7246 27.5651C25.7246 27.5651 23.3704 26.8601 21.017 29.451C20.8787 29.4167 20.7344 29.3984 20.5859 29.3984H19.3897C19.2484 29.3984 19.1109 29.4149 18.9787 29.4462C16.6267 26.861 14.2755 27.5651 14.2755 27.5651C13.3731 27.8401 12.8323 28.6222 12.591 29.5047C12.2603 30.7137 12.2884 32.1369 12.4635 33.3736C12.6201 34.4788 13.1386 35.5959 14.2755 35.9424C14.2755 35.9424 16.5836 36.6334 18.9137 34.1319C19.0655 34.1738 19.2251 34.1962 19.3896 34.1962H20.5859C20.7574 34.1962 20.9236 34.1718 21.0812 34.1264C23.4131 36.6345 25.7246 35.9424 25.7246 35.9424C26.8615 35.5959 27.38 34.4787 27.5366 33.3736C27.7116 32.1369 27.7397 30.7137 27.409 29.5047Z" fill="#E8CDC8"/>
<path d="M20.0001 12.3256C21.4622 12.3256 22.6475 11.1439 22.6475 9.68625C22.6475 8.22856 21.4622 7.04688 20.0001 7.04688C18.538 7.04688 17.3528 8.22856 17.3528 9.68625C17.3528 11.1439 18.538 12.3256 20.0001 12.3256Z" fill="#E8CDC8"/>
</g>
<defs>
<clipPath id="clip0">
<rect width="40" height="40" fill="white"/>
</clipPath>
</defs>
</svg>
