<svg width="40" height="40" viewBox="0 0 40 40" fill="none" xmlns="http://www.w3.org/2000/svg">
<g clip-path="url(#clip0)">
<path d="M34.3422 0H5.65749C4.36749 0 3.31812 1.04945 3.31812 2.3393V37.6606C3.31812 38.9505 4.36757 39.9999 5.65749 39.9999H34.3422C35.6322 39.9999 36.6816 38.9505 36.6816 37.6606V2.3393C36.6816 1.04945 35.6322 0 34.3422 0V0ZM35.1191 37.6607C35.1191 38.089 34.7705 38.4375 34.3422 38.4375H5.65749C5.22913 38.4375 4.88062 38.089 4.88062 37.6607V2.3393C4.88062 1.91094 5.22913 1.5625 5.65749 1.5625H34.3422C34.7705 1.5625 35.1191 1.91102 35.1191 2.3393V37.6607Z" fill="#70768A"/>
<path d="M31.732 7.48068C30.4963 7.48068 29.491 6.47537 29.491 5.23975C29.491 4.80826 29.1412 4.4585 28.7098 4.4585H11.2896C10.8581 4.4585 10.5084 4.80834 10.5084 5.23975C10.5084 6.47537 9.50304 7.48068 8.26733 7.48068C7.83585 7.48068 7.48608 7.83053 7.48608 8.26193V31.7374C7.48608 32.1688 7.83585 32.5187 8.26733 32.5187C9.50304 32.5187 10.5084 33.524 10.5084 34.7597C10.5084 35.1911 10.8581 35.5409 11.2896 35.5409H28.7097C29.1411 35.5409 29.4909 35.1911 29.4909 34.7597C29.4909 33.524 30.4962 32.5187 31.7319 32.5187C32.1634 32.5187 32.5132 32.1688 32.5132 31.7374V8.26193C32.5133 7.83045 32.1634 7.48068 31.732 7.48068ZM30.9508 31.0368C29.4791 31.3451 28.3176 32.5067 28.0091 33.9783H11.9902C11.6819 32.5067 10.5203 31.3451 9.04866 31.0368V8.96256C10.5203 8.6542 11.6819 7.49264 11.9902 6.021H28.0091C28.3175 7.49264 29.4791 8.6542 30.9507 8.96256V31.0368H30.9508Z" fill="#70768A"/>
<path d="M12.2207 14.3232H27.7792V18.3766H12.2207V14.3232Z" fill="#E8CDC8"/>
<path d="M13.5371 18.377H26.4627V28.2705H13.5371V18.377Z" fill="#E8CDC8"/>
<path d="M24.2818 14.3234C24.3026 14.2015 24.3134 14.0763 24.3134 13.9486C24.3134 12.723 23.3199 11.7295 22.0943 11.7295C20.8688 11.7295 19.8752 12.723 19.8752 13.9486C19.8752 14.0763 19.8861 14.2015 19.9068 14.3234H24.2818Z" fill="#E8CDC8"/>
<path d="M20.0931 14.3234C20.1138 14.2015 20.1247 14.0763 20.1247 13.9486C20.1247 12.723 19.1311 11.7295 17.9056 11.7295C16.68 11.7295 15.6865 12.723 15.6865 13.9486C15.6865 14.0763 15.6974 14.2015 15.7181 14.3234H20.0931Z" fill="#E8CDC8"/>
</g>
<defs>
<clipPath id="clip0">
<rect width="40" height="40" fill="white"/>
</clipPath>
</defs>
</svg>
