<svg width="40" height="40" viewBox="0 0 40 40" fill="none" xmlns="http://www.w3.org/2000/svg">
<g clip-path="url(#clip0)">
<path d="M16.3961 7.03174H23.6038V29.2042H16.3961V7.03174Z" fill="#E8CDC8"/>
<path d="M16.5502 29.2041L6.26617 37.8803H0.78125V36.2393L9.12031 29.2041H16.5502Z" fill="#E8CDC8"/>
<path d="M18.5732 37.8802H11.1436L21.4272 29.2041H28.8568L18.5732 37.8802Z" fill="#E8CDC8"/>
<path d="M39.2186 29.2041V30.8452L30.8796 37.8803H23.4497L33.7337 29.2041H39.2186Z" fill="#E8CDC8"/>
<path d="M39.2188 28.4232H32.9972V13.8941H34.7045C35.1359 13.8941 35.4857 13.5443 35.4857 13.1129V7.03211C35.4857 6.6007 35.1359 6.25086 34.7045 6.25086H28.9341C28.8959 3.53523 26.6788 1.33789 23.9589 1.33789C22.346 1.33789 20.9099 2.11063 20.0001 3.30586C19.0724 2.09211 17.6107 1.33789 16.0411 1.33789C13.3212 1.33789 11.1041 3.53523 11.0659 6.25086H5.29555C4.86406 6.25086 4.5143 6.6007 4.5143 7.03211V13.1129C4.5143 13.5443 4.86414 13.8941 5.29555 13.8941H7.00273V28.4233H0.78125C0.349766 28.4233 0 28.7731 0 29.2045V37.8808C0 38.3123 0.349766 38.662 0.78125 38.662H39.2188C39.6502 38.662 40 38.3123 40 37.8808V29.2044C40 28.773 39.6502 28.4232 39.2188 28.4232ZM23.9589 2.90039C25.8173 2.90039 27.3334 4.39687 27.3713 6.25086H20.5464C20.5844 4.39687 22.1005 2.90039 23.9589 2.90039ZM16.0411 2.90039C17.3965 2.90039 18.6348 3.72078 19.1725 4.95797C19.0553 5.36984 18.9899 5.80328 18.9836 6.25086H12.6287C12.6666 4.39687 14.1827 2.90039 16.0411 2.90039ZM6.0768 7.81336H33.9232V12.3316H6.0768V7.81336ZM8.56531 13.8941H31.4348V28.4233H8.56531V13.8941ZM38.4375 37.0994H1.5625V29.9857H38.4375V37.0994Z" fill="#70768A"/>
</g>
<defs>
<clipPath id="clip0">
<rect width="40" height="40" fill="white"/>
</clipPath>
</defs>
</svg>
