<svg width="40" height="41" viewBox="0 0 40 41" fill="none" xmlns="http://www.w3.org/2000/svg">
<g clip-path="url(#clip0)">
<path d="M21.3958 34.0466L19.9998 36.6199L18.6039 34.0466C16.2242 34.4134 14.4674 35.6954 14.4674 37.2207C14.4674 39.0319 16.9444 40.5002 19.9998 40.5002C23.0553 40.5002 25.5323 39.032 25.5323 37.2208C25.5323 35.6955 23.7755 34.4134 21.3958 34.0466Z" fill="#E8CDC8"/>
<path d="M16.0709 17.8782L14.2163 15.4728C13.848 14.9952 14.0752 14.2975 14.6544 14.1271L17.5716 13.2689L19.291 10.7654C19.6323 10.2683 20.3674 10.2683 20.7088 10.7654L22.4281 13.2689L25.3454 14.1271C25.9246 14.2975 26.1517 14.9952 25.7835 15.4728L23.9288 17.8782L24.0124 20.9122C24.029 21.5146 23.4344 21.9457 22.8654 21.7439L19.9999 20.7269L17.1344 21.7438C16.5655 21.9457 15.9708 21.5145 15.9873 20.9121L16.0709 17.8782Z" fill="#E8CDC8"/>
<path d="M20.0001 5.06543C13.6544 5.06543 8.49182 10.218 8.49182 16.5514C8.49182 22.8849 13.6544 28.0376 20.0001 28.0376C26.3458 28.0376 31.5084 22.885 31.5084 16.5515C31.5084 10.2181 26.3457 5.06543 20.0001 5.06543ZM20.0001 26.4751C14.516 26.4751 10.0543 22.0234 10.0543 16.5515C10.0543 11.0796 14.516 6.62793 20.0001 6.62793C25.4842 6.62793 29.9459 11.0796 29.9459 16.5514C29.9459 22.0233 25.4842 26.4751 20.0001 26.4751Z" fill="#70768A"/>
<path d="M31.4588 5.2879C28.4803 2.27001 24.5047 0.570398 20.2647 0.502038C15.9555 0.433835 11.8711 2.07923 8.75341 5.13813C5.64662 8.18649 3.92896 12.2231 3.91669 16.5048C3.90638 20.0907 5.0549 23.4855 7.2381 26.3218C9.35138 29.0675 12.3457 31.0892 15.6694 32.0146C16.3758 32.2113 16.9756 32.6829 17.3149 33.3085L19.3133 36.9923C19.45 37.2441 19.7135 37.4009 20.0001 37.4009C20.2866 37.4009 20.5501 37.2441 20.6868 36.9923L22.6855 33.3079C23.0252 32.6818 23.6194 32.212 24.3158 32.0188C27.6355 31.0981 30.6288 29.0831 32.7441 26.3452C34.9287 23.5175 36.0835 20.1309 36.0835 16.5517C36.0835 12.3099 34.4411 8.30962 31.4588 5.2879ZM23.8981 30.5131C22.7954 30.819 21.8529 31.5661 21.312 32.5628L20.0001 34.9814L18.6883 32.5634C18.1481 31.5677 17.2004 30.819 16.0884 30.5094C9.82318 28.765 5.46052 23.0079 5.4792 16.5092C5.49029 12.649 7.0417 9.00673 9.84771 6.25344C12.6077 3.54532 16.2061 2.06251 20.004 2.06251C20.0823 2.06251 20.161 2.06313 20.2395 2.06438C28.1144 2.19126 34.5211 8.69024 34.5211 16.5517C34.521 23.0372 30.1527 28.7784 23.8981 30.5131Z" fill="#70768A"/>
</g>
<defs>
<clipPath id="clip0">
<rect width="40" height="40" fill="white" transform="translate(0 0.5)"/>
</clipPath>
</defs>
</svg>
