<svg width="40" height="40" viewBox="0 0 40 40" fill="none" xmlns="http://www.w3.org/2000/svg">
<g clip-path="url(#clip0)">
<path d="M21.9952 33.0697C21.8482 32.6641 21.4 32.4544 20.9945 32.6014C20.5889 32.7484 20.3793 33.1964 20.5263 33.602L22.279 38.4377H17.7212L19.4122 33.7723C19.5592 33.3667 19.3496 32.9187 18.944 32.7716C18.5384 32.6246 18.0903 32.8342 17.9433 33.2399L15.8727 38.9527C15.786 39.1922 15.8213 39.459 15.9676 39.6675C16.1138 39.876 16.3525 40.0002 16.6072 40.0002H23.3931C23.6478 40.0002 23.8866 39.876 24.0328 39.6675C24.179 39.459 24.2144 39.1923 24.1276 38.9527L21.9952 33.0697Z" fill="#70768A"/>
<path d="M37.1459 9.68635C37.7397 9.16427 37.9406 8.50533 38.0083 8.1223C38.3359 6.26913 36.9697 3.90553 35.1971 3.25853C34.8291 3.12424 34.1523 2.96636 33.398 3.22182C33.2956 2.70552 33.0579 2.32156 32.8503 2.06993C31.7663 0.756185 29.5345 0.520496 28.0029 1.05179C27.0512 1.38185 26.3822 1.96807 26.069 2.71982C26.0612 2.71685 26.0533 2.71396 26.0455 2.71115C25.6395 2.56303 24.8822 2.38827 24.0433 2.70161C23.8961 1.82581 23.3712 1.26115 23.0424 0.985077C21.4787 -0.328359 18.5215 -0.328359 16.9577 0.985077C16.6289 1.26123 16.104 1.82589 15.9568 2.70161C15.1181 2.38827 14.3607 2.56303 13.9546 2.71122C13.9469 2.71404 13.9392 2.71693 13.9313 2.71982C13.6289 1.99416 12.9937 1.42146 12.0883 1.0846C10.5519 0.513075 8.29192 0.7165 7.16949 2.0465C6.95411 2.30172 6.70655 2.69318 6.60155 3.22174C5.8473 2.96644 5.17094 3.12432 4.80299 3.25861C3.03037 3.90553 1.66412 6.26921 1.99176 8.12238C2.05949 8.50541 2.26033 9.16435 2.8542 9.68643C2.26033 10.2085 2.05949 10.8674 1.99176 11.2505C1.6642 13.1036 3.03037 15.4673 4.80299 16.1142C5.17117 16.2486 5.84855 16.4066 6.60335 16.1504C6.69905 16.6355 6.91279 17 7.10121 17.2421C7.72985 18.0498 8.77533 18.4606 9.83323 18.5603L15.98 29.5237C16.1232 29.7792 16.3887 29.9229 16.6622 29.9229C16.7915 29.9229 16.9226 29.8908 17.0435 29.823C17.4198 29.612 17.5539 29.1359 17.3429 28.7596L11.5613 18.4476C11.6258 18.4323 11.6893 18.4158 11.7516 18.3982C12.8273 18.0924 13.5888 17.4736 13.9304 16.6526C13.9385 16.6556 13.9465 16.6586 13.9545 16.6615C14.3605 16.8097 15.1181 16.9843 15.9568 16.6711C16.1039 17.5468 16.6288 18.1115 16.9576 18.3876C17.5584 18.8922 18.3647 19.2029 19.2188 19.3198V30.9039C19.2188 31.3354 19.5685 31.6851 20 31.6851C20.4314 31.6851 20.7812 31.3354 20.7812 30.9039V19.3198C21.6352 19.2029 22.4415 18.8922 23.0423 18.3876C23.3711 18.1115 23.896 17.5469 24.0432 16.6711C24.8819 16.9844 25.6393 16.8097 26.0454 16.6615C26.0533 16.6586 26.0612 16.6557 26.0691 16.6527C26.392 17.4283 27.0924 18.0262 28.0866 18.349C28.1982 18.3852 28.3136 18.4175 28.432 18.4459L22.2429 29.3308C22.0296 29.7058 22.1608 30.1828 22.5358 30.396C22.6578 30.4653 22.7903 30.4983 22.9213 30.4983C23.193 30.4983 23.4572 30.3563 23.6011 30.1031L30.1601 18.5678C31.2008 18.4747 32.2249 18.0762 32.8675 17.2815C33.0682 17.0332 33.2974 16.656 33.3974 16.1506C34.1519 16.4063 34.8289 16.2484 35.197 16.114C36.9696 15.4671 38.3359 13.1034 38.0082 11.2503C37.9406 10.8673 37.7397 10.2084 37.1459 9.68635ZM11.3244 16.8953C10.209 17.2124 8.83954 16.9318 8.33418 16.2824C7.98811 15.8379 8.04967 15.2031 8.51722 14.3958C8.73346 14.0224 8.60604 13.5445 8.23263 13.3282C7.85937 13.1121 7.38135 13.2394 7.16511 13.6128C6.35235 15.0164 5.58919 14.7378 5.33858 14.6464C4.28162 14.2607 3.33519 12.6257 3.53026 11.5224C3.65392 10.8225 4.2631 10.4676 5.34069 10.4676C5.77215 10.4676 6.1219 10.1179 6.1219 9.68643C6.1219 9.25497 5.77215 8.90522 5.34069 8.90522C4.2631 8.90522 3.654 8.55032 3.53026 7.85044C3.33519 6.74715 4.28162 5.11217 5.33858 4.72641C5.58919 4.63501 6.35141 4.35675 7.16371 5.75768C7.16418 5.75854 7.16465 5.75924 7.16511 5.76002C7.38135 6.13336 7.85921 6.26085 8.23263 6.04462C8.60597 5.82838 8.73338 5.35044 8.51722 4.9771C8.51667 4.97609 8.51613 4.97523 8.51558 4.97429C8.03741 4.14731 7.98624 3.50133 8.3634 3.05433C8.94102 2.36992 10.427 2.13384 11.5434 2.54912C11.9772 2.71044 12.4859 3.02199 12.5601 3.60429C11.3922 4.71438 10.6608 6.48623 10.9211 7.95911C10.9959 8.38229 11.2231 9.12021 11.9107 9.68658C11.2231 10.2529 10.9959 10.9909 10.9211 11.4141C10.6607 12.8872 11.3924 14.6594 12.5606 15.7694C12.4764 16.4668 11.7512 16.774 11.3244 16.8953ZM23.4169 14.0279C23.2008 13.6545 22.7228 13.5271 22.3494 13.7434C22.0993 13.8882 21.9595 14.1505 21.9596 14.4201C21.9596 14.553 21.9935 14.6876 22.0649 14.8108C22.6743 15.8632 22.6652 16.6641 22.0376 17.1911C21.0664 18.0067 18.9337 18.0067 17.9625 17.1911C17.335 16.6641 17.3257 15.8632 17.9352 14.8108C18.0065 14.6875 18.0405 14.5529 18.0405 14.4201C18.0405 14.1505 17.9007 13.8881 17.6507 13.7434C17.2774 13.5272 16.7994 13.6545 16.5831 14.0279C15.971 15.0849 15.2668 15.4771 14.4902 15.1938C13.2802 14.7521 12.2364 12.949 12.4598 11.6858C12.6027 10.8774 13.2952 10.4676 14.5183 10.4676C14.9497 10.4676 15.2995 10.1178 15.2995 9.68635C15.2995 9.25489 14.9497 8.90515 14.5183 8.90515C13.2953 8.90515 12.6028 8.49533 12.4598 7.68694C12.2364 6.42373 13.2802 4.62056 14.4902 4.17887C15.2667 3.89545 15.9709 4.28769 16.5831 5.34474C16.7993 5.71807 17.2772 5.84557 17.6506 5.62933C17.9007 5.48449 18.0405 5.22217 18.0404 4.95257C18.0404 4.81969 18.0065 4.68509 17.9351 4.56182C17.3257 3.50938 17.3348 2.70857 17.9624 2.18149C18.9336 1.36584 21.0663 1.36584 22.0375 2.18149C22.665 2.70857 22.6743 3.50938 22.0648 4.56182C21.9934 4.68509 21.9595 4.81969 21.9595 4.95257C21.9595 5.22224 22.0993 5.48457 22.3493 5.62933C22.7226 5.84549 23.2005 5.71815 23.4169 5.34474C24.0289 4.28769 24.7331 3.89529 25.5097 4.17887C26.7198 4.62048 27.7635 6.42366 27.5401 7.68694C27.3972 8.49533 26.7047 8.90515 25.4817 8.90515C25.0502 8.90515 24.7005 9.25489 24.7005 9.68635C24.7005 10.1178 25.0502 10.4676 25.4817 10.4676C26.7046 10.4676 27.3972 10.8774 27.5401 11.6858C27.7635 12.949 26.7198 14.7521 25.5097 15.1938C24.733 15.4771 24.029 15.0849 23.4169 14.0279ZM34.6593 10.4676C35.7369 10.4676 36.346 10.8225 36.4697 11.5223C36.6648 12.6256 35.7184 14.2606 34.6614 14.6464C34.4106 14.7378 33.6476 15.0163 32.8349 13.6128C32.6186 13.2393 32.1407 13.112 31.7674 13.3282C31.394 13.5444 31.2666 14.0223 31.4828 14.3957C31.956 15.2128 32.0131 15.8532 31.6525 16.2992C31.1093 16.971 29.6973 17.2293 28.5692 16.8629C28.0901 16.7073 27.516 16.3924 27.4394 15.7691C28.6076 14.659 29.3392 12.8869 29.0789 11.4138C29.0041 10.9906 28.7769 10.2527 28.0893 9.68635C28.7769 9.12006 29.0041 8.38205 29.0789 7.95888C29.3392 6.48584 28.6077 4.71384 27.4396 3.60375C27.515 3.00035 28.0576 2.68654 28.5149 2.52795C29.6282 2.14188 31.0909 2.39249 31.6452 3.06433C32.0138 3.51102 31.9592 4.1545 31.4829 4.97687C31.2666 5.3502 31.394 5.82814 31.7675 6.04438C32.1407 6.26062 32.6186 6.1332 32.835 5.75979C33.6477 4.3562 34.4108 4.63478 34.6615 4.72618C35.7185 5.11194 36.6649 6.747 36.4698 7.85021C36.3462 8.55009 35.737 8.90499 34.6594 8.90499C34.2279 8.90499 33.8782 9.25473 33.8782 9.68619C33.8781 10.1178 34.2278 10.4676 34.6593 10.4676Z" fill="#70768A"/>
<path d="M27.4088 29.5047C27.1675 28.6222 26.6268 27.84 25.7245 27.5651C25.7245 27.5651 23.3703 26.8601 21.0169 29.451C20.8786 29.4167 20.7342 29.3984 20.5858 29.3984H19.3895C19.2483 29.3984 19.1107 29.4149 18.9786 29.4462C16.6266 26.861 14.2753 27.5651 14.2753 27.5651C13.373 27.8401 12.8322 28.6222 12.5909 29.5047C12.2601 30.7137 12.2883 32.1369 12.4633 33.3737C12.62 34.4788 13.1384 35.5959 14.2753 35.9424C14.2753 35.9424 16.5835 36.6335 18.9136 34.1319C19.0653 34.1738 19.2249 34.1962 19.3895 34.1962H20.5857C20.7573 34.1962 20.9234 34.1718 21.0811 34.1264C23.413 36.6345 25.7245 35.9424 25.7245 35.9424C26.8614 35.5959 27.3798 34.4787 27.5365 33.3737C27.7115 32.1369 27.7396 30.7137 27.4088 29.5047Z" fill="#E8CDC8"/>
<path d="M20 12.3256C21.4621 12.3256 22.6473 11.1439 22.6473 9.68625C22.6473 8.22856 21.4621 7.04688 20 7.04688C18.5379 7.04688 17.3527 8.22856 17.3527 9.68625C17.3527 11.1439 18.5379 12.3256 20 12.3256Z" fill="#E8CDC8"/>
</g>
<defs>
<clipPath id="clip0">
<rect width="40" height="40" fill="white"/>
</clipPath>
</defs>
</svg>
