<svg width="40" height="41" viewBox="0 0 40 41" fill="none" xmlns="http://www.w3.org/2000/svg">
<g clip-path="url(#clip0)">
<path d="M34.3422 0.5H5.65749C4.36749 0.5 3.31812 1.54945 3.31812 2.8393V38.1606C3.31812 39.4505 4.36757 40.4999 5.65749 40.4999H34.3422C35.6322 40.4999 36.6816 39.4505 36.6816 38.1606V2.8393C36.6816 1.54945 35.6322 0.5 34.3422 0.5V0.5ZM35.1191 38.1607C35.1191 38.589 34.7705 38.9375 34.3422 38.9375H5.65749C5.22913 38.9375 4.88062 38.589 4.88062 38.1607V2.8393C4.88062 2.41094 5.22913 2.0625 5.65749 2.0625H34.3422C34.7705 2.0625 35.1191 2.41102 35.1191 2.8393V38.1607Z" fill="#70768A"/>
<path d="M31.7321 7.98068C30.4964 7.98068 29.4911 6.97537 29.4911 5.73975C29.4911 5.30826 29.1413 4.9585 28.7099 4.9585H11.2897C10.8582 4.9585 10.5085 5.30834 10.5085 5.73975C10.5085 6.97537 9.50316 7.98068 8.26746 7.98068C7.83597 7.98068 7.48621 8.33053 7.48621 8.76193V32.2374C7.48621 32.6688 7.83597 33.0186 8.26746 33.0186C9.50316 33.0186 10.5085 34.024 10.5085 35.2597C10.5085 35.6911 10.8582 36.0409 11.2897 36.0409H28.7098C29.1412 36.0409 29.491 35.6911 29.491 35.2597C29.491 34.024 30.4964 33.0186 31.7321 33.0186C32.1635 33.0186 32.5133 32.6688 32.5133 32.2374V8.76193C32.5134 8.33045 32.1635 7.98068 31.7321 7.98068ZM30.9509 31.5368C29.4793 31.8451 28.3177 33.0067 28.0093 34.4783H11.9903C11.682 33.0067 10.5204 31.8451 9.04878 31.5368V9.46256C10.5204 9.1542 11.682 7.99264 11.9903 6.521H28.0092C28.3176 7.99264 29.4792 9.1542 30.9508 9.46256V31.5368H30.9509Z" fill="#70768A"/>
<path d="M12.2206 14.8228H27.7791V18.8761H12.2206V14.8228Z" fill="#E8CDC8"/>
<path d="M13.537 18.8765H26.4625V28.77H13.537V18.8765Z" fill="#E8CDC8"/>
<path d="M24.2818 14.8229C24.3026 14.701 24.3134 14.5758 24.3134 14.4481C24.3134 13.2225 23.3199 12.229 22.0943 12.229C20.8688 12.229 19.8752 13.2225 19.8752 14.4481C19.8752 14.5758 19.8861 14.701 19.9068 14.8229H24.2818Z" fill="#E8CDC8"/>
<path d="M20.0929 14.8229C20.1136 14.701 20.1244 14.5758 20.1244 14.4481C20.1244 13.2225 19.1309 12.229 17.9054 12.229C16.6798 12.229 15.6863 13.2225 15.6863 14.4481C15.6863 14.5758 15.6971 14.701 15.7178 14.8229H20.0929Z" fill="#E8CDC8"/>
</g>
<defs>
<clipPath id="clip0">
<rect width="40" height="40" fill="white" transform="translate(0 0.5)"/>
</clipPath>
</defs>
</svg>
