<svg width="40" height="40" viewBox="0 0 40 40" fill="none" xmlns="http://www.w3.org/2000/svg">
<g clip-path="url(#clip0)">
<path d="M5.70087 6.63086L11.3277 1.00402L13.9303 3.60667L8.30351 9.2335L5.70087 6.63086Z" fill="#E8CDC8"/>
<path d="M10.001 15.1616H29.9992V35.3129H10.001V15.1616Z" fill="#E8CDC8"/>
<path d="M31.9955 0H16.8458C16.6386 0 16.4398 0.0823437 16.2934 0.228828L5.54218 10.9799C5.3957 11.1265 5.31335 11.3252 5.31335 11.5323V37.3088C5.31335 38.7927 6.52062 39.9999 8.00445 39.9999H31.9954C33.4793 39.9999 34.6865 38.7927 34.6865 37.3088V2.69109C34.6866 1.20719 33.4794 0 31.9955 0V0ZM33.1241 37.3089C33.1241 37.9312 32.6178 38.4375 31.9955 38.4375H8.00453C7.38218 38.4375 6.87593 37.9312 6.87593 37.3089V11.856L17.1694 1.5625H31.9955C32.6178 1.5625 33.1241 2.06875 33.1241 2.69109V37.3089Z" fill="#70768A"/>
<path d="M28.4365 5.46875H20.6734C20.4662 5.46875 20.2675 5.55109 20.121 5.69758L16.2363 9.58226C16.0129 9.8057 15.9461 10.1417 16.067 10.4337C16.188 10.7255 16.4728 10.9159 16.7888 10.9159H28.4365C28.868 10.9159 29.2178 10.5661 29.2178 10.1347V6.25C29.2177 5.81859 28.8679 5.46875 28.4365 5.46875ZM27.6552 9.35344H18.6749L20.997 7.03125H27.6552V9.35344Z" fill="#70768A"/>
<path d="M20.4242 18.0725C20.166 17.9055 19.834 17.9055 19.5759 18.0725C19.3753 18.2021 14.6643 21.2942 14.6643 25.3059C14.6643 29.3176 19.3753 32.4097 19.5759 32.5394C19.7049 32.6229 19.8525 32.6647 20.0001 32.6647C20.1477 32.6647 20.2952 32.6229 20.4243 32.5394C20.6248 32.4097 25.3359 29.3176 25.3359 25.3059C25.3359 21.2942 20.6248 18.2021 20.4242 18.0725ZM20.7813 30.2979V27.0688L22.2484 25.6015C22.5534 25.2965 22.5534 24.8019 22.2483 24.4967C21.9432 24.1915 21.4484 24.1916 21.1434 24.4968L20.7813 24.859V23.3911C20.7813 22.9597 20.4315 22.6099 20 22.6099C19.5685 22.6099 19.2188 22.9597 19.2188 23.3911V24.859L18.8566 24.4968C18.5516 24.1917 18.0569 24.1918 17.7517 24.4967C17.4466 24.8018 17.4466 25.2964 17.7517 25.6015L19.2188 27.0688V30.3008C17.9784 29.2347 16.2267 27.3645 16.2267 25.3059C16.2267 22.7558 18.9348 20.4819 20.0007 19.6858C21.0677 20.4803 23.7733 22.7476 23.7733 25.3059C23.7733 27.3569 22.0216 29.2293 20.7813 30.2979Z" fill="#70768A"/>
</g>
<defs>
<clipPath id="clip0">
<rect width="40" height="40" fill="white"/>
</clipPath>
</defs>
</svg>
