<svg width="40" height="41" viewBox="0 0 40 41" fill="none" xmlns="http://www.w3.org/2000/svg">
<g clip-path="url(#clip0)">
<path d="M32.9124 10.0412C31.0643 9.44742 29.3066 9.46398 27.7302 9.97367C28.7708 8.15453 29.0958 5.94414 28.8924 3.84586C28.8744 3.66 28.775 3.49398 28.6196 3.39039C28.4636 3.28625 28.2713 3.25828 28.0917 3.3132C26.2084 3.89031 24.6471 4.79789 23.4106 5.97266C22.9848 4.00648 21.9499 2.2793 20.6356 0.786406C20.4754 0.604375 20.2437 0.5 19.9999 0.5C19.7562 0.5 19.5245 0.604453 19.3642 0.786563C17.9039 2.44508 16.9712 4.18945 16.5886 5.97219C15.3528 4.79828 13.7922 3.89055 11.9081 3.31328C11.7286 3.25828 11.5362 3.28648 11.3802 3.39047C11.2249 3.49414 11.1255 3.66016 11.1075 3.84602C10.908 5.90609 11.213 8.12914 12.2681 9.97375C10.632 9.44828 8.8597 9.47188 7.08743 10.0412C6.95251 10.0845 6.8454 10.1849 6.79368 10.3166C6.74212 10.4479 6.75212 10.5937 6.82118 10.7166C7.48533 11.8998 9.8497 13.967 11.9284 15.3008C13.8783 13.8671 16.604 13.1045 19.9999 13.1045C23.3956 13.1045 26.1213 13.8671 28.0713 15.3006C30.146 13.9702 32.5095 11.9089 33.1788 10.7167C33.3238 10.4584 33.1953 10.132 32.9124 10.0412Z" fill="#E8CDC8"/>
<path d="M29.0377 15.0674C26.8858 13.2464 23.845 12.3232 19.9999 12.3232C16.1548 12.3232 13.1141 13.2464 10.9623 15.0674C8.80278 16.8947 7.66138 19.5976 7.66138 22.884C7.66138 26.2725 9.17575 30.6477 11.6136 34.3021C14.2412 38.241 17.2979 40.5 19.9999 40.5C25.8392 40.5 32.3388 29.9998 32.3388 22.884C32.3388 19.5976 31.1972 16.8947 29.0377 15.0674ZM19.9999 38.9375C15.4679 38.9375 9.2238 29.6355 9.2238 22.884C9.2238 17.0814 13.0508 13.8857 19.9999 13.8857C26.9491 13.8857 30.7763 17.0814 30.7763 22.884C30.7763 29.6355 24.532 38.9375 19.9999 38.9375Z" fill="#70768A"/>
<path d="M12.4718 21.2725C12.0403 21.2725 11.6906 21.6223 11.6906 22.0537V23.0184C11.6906 23.4498 12.0403 23.7997 12.4718 23.7997C12.9033 23.7997 13.2531 23.4498 13.2531 23.0184V22.0537C13.2531 21.6222 12.9033 21.2725 12.4718 21.2725Z" fill="#70768A"/>
<path d="M17.7268 21.2725C17.2953 21.2725 16.9456 21.6223 16.9456 22.0537V23.0184C16.9456 23.4498 17.2953 23.7997 17.7268 23.7997C18.1583 23.7997 18.5081 23.4498 18.5081 23.0184V22.0537C18.5081 21.6222 18.1583 21.2725 17.7268 21.2725Z" fill="#70768A"/>
<path d="M22.9817 21.2725C22.5503 21.2725 22.2004 21.6223 22.2004 22.0537V23.0184C22.2004 23.4498 22.5503 23.7997 22.9817 23.7997C23.4131 23.7997 23.7629 23.4498 23.7629 23.0184V22.0537C23.7629 21.6222 23.4132 21.2725 22.9817 21.2725Z" fill="#70768A"/>
<path d="M28.2363 21.2725C27.8049 21.2725 27.4551 21.6223 27.4551 22.0537V23.0184C27.4551 23.4498 27.8049 23.7997 28.2363 23.7997C28.6677 23.7997 29.0176 23.4498 29.0176 23.0184V22.0537C29.0176 21.6222 28.6677 21.2725 28.2363 21.2725Z" fill="#70768A"/>
<path d="M14.7451 25.2119C14.3136 25.2119 13.9639 25.5618 13.9639 25.9932V26.9578C13.9639 27.3892 14.3136 27.739 14.7451 27.739C15.1766 27.739 15.5264 27.3892 15.5264 26.9578V25.9932C15.5264 25.5617 15.1766 25.2119 14.7451 25.2119Z" fill="#70768A"/>
<path d="M20 25.2119C19.5685 25.2119 19.2188 25.5618 19.2188 25.9932V26.9578C19.2188 27.3892 19.5685 27.739 20 27.739C20.4314 27.739 20.7812 27.3892 20.7812 26.9578V25.9932C20.7812 25.5617 20.4314 25.2119 20 25.2119Z" fill="#70768A"/>
<path d="M25.255 25.2119C24.8236 25.2119 24.4738 25.5618 24.4738 25.9932V26.9578C24.4738 27.3892 24.8236 27.739 25.255 27.739C25.6864 27.739 26.0363 27.3892 26.0363 26.9578V25.9932C26.0363 25.5617 25.6864 25.2119 25.255 25.2119Z" fill="#70768A"/>
<path d="M14.7451 17.3335C14.3136 17.3335 13.9639 17.6833 13.9639 18.1147V19.0794C13.9639 19.5108 14.3136 19.8606 14.7451 19.8606C15.1766 19.8606 15.5264 19.5108 15.5264 19.0794V18.1147C15.5264 17.6833 15.1766 17.3335 14.7451 17.3335Z" fill="#70768A"/>
<path d="M20 17.3335C19.5685 17.3335 19.2188 17.6833 19.2188 18.1147V19.0794C19.2188 19.5108 19.5685 19.8606 20 19.8606C20.4314 19.8606 20.7812 19.5108 20.7812 19.0794V18.1147C20.7812 17.6833 20.4314 17.3335 20 17.3335Z" fill="#70768A"/>
<path d="M25.255 17.3335C24.8236 17.3335 24.4738 17.6833 24.4738 18.1147V19.0794C24.4738 19.5108 24.8236 19.8606 25.255 19.8606C25.6864 19.8606 26.0363 19.5108 26.0363 19.0794V18.1147C26.0363 17.6833 25.6864 17.3335 25.255 17.3335Z" fill="#70768A"/>
<path d="M17.3727 29.1509C16.9412 29.1509 16.5914 29.5007 16.5914 29.9321V30.8967C16.5914 31.3281 16.9412 31.678 17.3727 31.678C17.8042 31.678 18.1539 31.3281 18.1539 30.8967V29.9321C18.1539 29.5007 17.8042 29.1509 17.3727 29.1509Z" fill="#70768A"/>
<path d="M22.6276 29.1509C22.1962 29.1509 21.8463 29.5007 21.8463 29.9321V30.8967C21.8463 31.3281 22.1962 31.678 22.6276 31.678C23.059 31.678 23.4088 31.3281 23.4088 30.8967V29.9321C23.4088 29.5007 23.059 29.1509 22.6276 29.1509Z" fill="#70768A"/>
<path d="M20 33.0903C19.5685 33.0903 19.2188 33.4402 19.2188 33.8716V34.8362C19.2188 35.2676 19.5685 35.6174 20 35.6174C20.4314 35.6174 20.7812 35.2676 20.7812 34.8362V33.8716C20.7812 33.4402 20.4314 33.0903 20 33.0903Z" fill="#70768A"/>
</g>
<defs>
<clipPath id="clip0">
<rect width="40" height="40" fill="white" transform="translate(0 0.5)"/>
</clipPath>
</defs>
</svg>
