<svg width="40" height="40" viewBox="0 0 40 40" fill="none" xmlns="http://www.w3.org/2000/svg">
<path d="M28.653 39.9996H12.1263C11.7356 39.9996 11.405 39.7111 11.3522 39.3241L9.91242 28.782C9.85407 28.3545 10.1533 27.9606 10.5808 27.9022C11.0084 27.8441 11.4022 28.1431 11.4606 28.5706L12.8081 38.4371H27.9711L29.3186 28.5706C29.377 28.143 29.7703 27.8441 30.1984 27.9022C30.6259 27.9607 30.9252 28.3546 30.8668 28.782L29.427 39.3241C29.3741 39.7111 29.0436 39.9996 28.653 39.9996Z" fill="#70768A"/>
<path d="M33.9926 12.7003C33.9281 12.3997 33.6933 12.165 33.3928 12.1005C33.1635 12.0513 27.7466 10.927 24.9602 13.7138C22.5073 16.1669 23.0847 20.6583 23.2917 21.8551L20.7812 24.4302V16.3037C22.0232 15.416 26.0132 12.259 26.0132 8.33709C26.0132 3.79115 20.6524 0.272715 20.4242 0.125215C20.166 -0.0417383 19.8339 -0.0417383 19.5758 0.125215C19.3476 0.272793 13.9868 3.79123 13.9868 8.33709C13.9868 12.2589 17.9768 15.416 19.2188 16.3037V24.4302L16.7082 21.8551C16.9151 20.6583 17.4925 16.1669 15.0396 13.7138C12.2532 10.927 6.83636 12.0512 6.60707 12.1005C6.30652 12.165 6.07175 12.3997 6.00722 12.7003C5.958 12.9295 4.83394 18.3469 7.62035 21.1337C9.14449 22.6581 11.4557 23.0122 13.2744 23.0122C14.1951 23.0122 14.9896 22.9215 15.4918 22.8458L19.0465 26.4919C19.0366 26.7072 19.1151 26.9255 19.2815 27.0877C19.4334 27.2358 19.6302 27.3096 19.8268 27.3096C19.885 27.3096 19.9431 27.3031 20 27.2902C20.057 27.3031 20.1151 27.3096 20.1732 27.3096C20.3699 27.3096 20.5666 27.2358 20.7185 27.0877C20.8849 26.9255 20.9635 26.7072 20.9535 26.4919L24.5081 22.8458C25.0104 22.9215 25.8047 23.0122 26.7255 23.0122C28.5441 23.0122 30.8555 22.658 32.3796 21.1337C35.166 18.3469 34.0418 12.9295 33.9926 12.7003ZM15.5492 8.33709C15.5492 5.29967 18.8135 2.61287 20 1.73686C21.1868 2.61326 24.4507 5.2999 24.4507 8.33709C24.4507 10.8451 22.225 13.1141 20.7812 14.3221V10.3141L22.5006 8.59459C22.8057 8.28943 22.8057 7.79483 22.5005 7.48975C22.1955 7.18467 21.7007 7.18467 21.3957 7.48975L20.7812 8.10428V6.13756C20.7812 5.70607 20.4314 5.35631 20 5.35631C19.5685 5.35631 19.2187 5.70607 19.2187 6.13756V8.10436L18.6043 7.48982C18.2992 7.18482 17.8046 7.18467 17.4994 7.48982C17.1943 7.7949 17.1943 8.28951 17.4993 8.59467L19.2187 10.3141V14.3246C17.775 13.1194 15.5492 10.8531 15.5492 8.33709ZM8.72527 20.0289C6.96793 18.2713 7.2616 14.8395 7.44855 13.5417C8.74722 13.3547 12.1778 13.0614 13.9347 14.8186C15.3761 16.2601 15.4377 18.8282 15.3101 20.4211L13.5793 18.6458V16.5405C13.5793 16.109 13.2296 15.7593 12.7981 15.7593C12.3666 15.7593 12.0168 16.109 12.0168 16.5405V17.0431L10.5622 15.5511C10.2611 15.2421 9.76644 15.2358 9.45746 15.537C9.14855 15.8382 9.14222 16.3329 9.44347 16.6418L10.8755 18.1107H10.4468C10.0153 18.1107 9.66558 18.4605 9.66558 18.8919C9.66558 19.3234 10.0153 19.6732 10.4468 19.6732H12.3988L14.1045 21.4228C12.5055 21.5274 10.106 21.4097 8.72527 20.0289ZM31.2747 20.0289C29.8991 21.4044 27.4982 21.5234 25.8975 21.4206L27.6011 19.6733H29.553C29.9844 19.6733 30.3343 19.3235 30.3343 18.892C30.3343 18.4605 29.9844 18.1108 29.553 18.1108H29.1243L30.5564 16.6419C30.8575 16.3329 30.8513 15.8383 30.5423 15.5371C30.2334 15.2358 29.7388 15.2422 29.4375 15.5512L27.983 17.0431V16.5406C27.983 16.1091 27.6332 15.7594 27.2018 15.7594C26.7704 15.7594 26.4205 16.1091 26.4205 16.5406V18.6458L24.6897 20.4212C24.5621 18.828 24.6237 16.2601 26.065 14.8187C27.8224 13.0612 31.2536 13.355 32.5511 13.5419C32.7383 14.8403 33.0318 18.2715 31.2747 20.0289Z" fill="#70768A"/>
<path d="M7.70154 24.5132H32.2984V30.1166H7.70154V24.5132Z" fill="#E8CDC8"/>
</svg>
