<svg width="40" height="41" viewBox="0 0 40 41" fill="none" xmlns="http://www.w3.org/2000/svg">
<g clip-path="url(#clip0)">
<path d="M16.3961 7.53223H23.6038V29.7047H16.3961V7.53223Z" fill="#E8CDC8"/>
<path d="M16.5502 29.7046L6.26617 38.3808H0.78125V36.7397L9.12031 29.7046H16.5502Z" fill="#E8CDC8"/>
<path d="M18.5732 38.3807H11.1436L21.4272 29.7046H28.8568L18.5732 38.3807Z" fill="#E8CDC8"/>
<path d="M39.2186 29.7046V31.3457L30.8796 38.3808H23.4497L33.7337 29.7046H39.2186Z" fill="#E8CDC8"/>
<path d="M39.2188 28.9232H32.9972V14.3941H34.7045C35.1359 14.3941 35.4857 14.0443 35.4857 13.6129V7.53211C35.4857 7.1007 35.1359 6.75086 34.7045 6.75086H28.9341C28.8959 4.03523 26.6788 1.83789 23.9589 1.83789C22.346 1.83789 20.9099 2.61063 20.0001 3.80586C19.0724 2.59211 17.6107 1.83789 16.0411 1.83789C13.3212 1.83789 11.1041 4.03523 11.0659 6.75086H5.29555C4.86406 6.75086 4.5143 7.1007 4.5143 7.53211V13.6129C4.5143 14.0443 4.86414 14.3941 5.29555 14.3941H7.00273V28.9233H0.78125C0.349766 28.9233 0 29.2731 0 29.7045V38.3808C0 38.8123 0.349766 39.162 0.78125 39.162H39.2188C39.6502 39.162 40 38.8123 40 38.3808V29.7044C40 29.273 39.6502 28.9232 39.2188 28.9232ZM23.9589 3.40039C25.8173 3.40039 27.3334 4.89687 27.3713 6.75086H20.5464C20.5844 4.89687 22.1005 3.40039 23.9589 3.40039ZM16.0411 3.40039C17.3965 3.40039 18.6348 4.22078 19.1725 5.45797C19.0553 5.86984 18.9899 6.30328 18.9836 6.75086H12.6287C12.6666 4.89687 14.1827 3.40039 16.0411 3.40039ZM6.0768 8.31336H33.9232V12.8316H6.0768V8.31336ZM8.56531 14.3941H31.4348V28.9233H8.56531V14.3941ZM38.4375 37.5994H1.5625V30.4857H38.4375V37.5994Z" fill="#70768A"/>
</g>
<defs>
<clipPath id="clip0">
<rect width="40" height="40" fill="white" transform="translate(0 0.5)"/>
</clipPath>
</defs>
</svg>
