<svg width="40" height="41" viewBox="0 0 40 41" fill="none" xmlns="http://www.w3.org/2000/svg">
<g clip-path="url(#clip0)">
<path d="M30.1382 21.9842C35.5847 21.9842 39.9999 17.5689 39.9999 12.1225C39.9999 6.67598 35.5847 2.26074 30.1382 2.26074C24.6917 2.26074 20.2765 6.67598 20.2765 12.1225C20.2765 17.5689 24.6917 21.9842 30.1382 21.9842Z" fill="#E8CDC8"/>
<path d="M26.0133 23.8862C25.6109 23.4838 25.076 23.2623 24.507 23.2623C23.938 23.2623 23.4031 23.4838 23.0008 23.8862L20.2424 26.6445L12.0948 18.4969L14.8531 15.7385C15.6837 14.908 15.6837 13.5566 14.8531 12.726L10.535 8.40788C8.38305 6.25593 4.88172 6.25601 2.72977 8.40788L1.68359 9.45405C0.597891 10.5397 0 11.9832 0 13.5185C0 15.0538 0.597891 16.4973 1.68352 17.583L21.1563 37.0557C22.242 38.1414 23.6855 38.7393 25.2208 38.7393C26.7561 38.7393 28.1995 38.1414 29.2852 37.0558L30.3314 36.0095C32.4833 33.8576 32.4833 30.3562 30.3314 28.2043L26.0133 23.8862ZM29.2266 34.9047L28.1804 35.9509C27.3898 36.7415 26.3388 37.1768 25.2209 37.1768C24.1029 37.1768 23.0518 36.7414 22.2613 35.9508L2.78836 16.478C1.99789 15.6876 1.5625 14.6365 1.5625 13.5185C1.5625 12.4005 1.99789 11.3494 2.78844 10.559L3.83469 9.51272C4.60602 8.7414 5.61922 8.35569 6.63242 8.35569C7.64562 8.35569 8.65883 8.7414 9.43016 9.51272L13.7483 13.8308C13.8555 13.9381 13.9145 14.0806 13.9145 14.2323C13.9145 14.3839 13.8555 14.5265 13.7483 14.6337L10.4375 17.9444C10.1324 18.2495 10.1324 18.7442 10.4375 19.0493L19.6899 28.3017C19.9951 28.6069 20.4898 28.6068 20.7948 28.3017L24.1055 24.991C24.2128 24.8837 24.3553 24.8248 24.507 24.8248C24.6586 24.8248 24.8012 24.8837 24.9084 24.991L29.2265 29.3091C30.7693 30.8519 30.7693 33.3619 29.2266 34.9047Z" fill="#70768A"/>
<path d="M27.5002 7.04077C27.0688 7.04077 26.719 7.39054 26.719 7.82202C26.719 8.25351 27.0688 8.60327 27.5002 8.60327C30.8954 8.60327 33.6575 11.3654 33.6575 14.7605C33.6575 15.192 34.0073 15.5418 34.4388 15.5418C34.8702 15.5418 35.22 15.192 35.22 14.7605C35.22 10.5039 31.757 7.04077 27.5002 7.04077Z" fill="#70768A"/>
<path d="M27.5002 12.26C28.8789 12.26 30.0006 13.3817 30.0006 14.7604C30.0006 15.1919 30.3504 15.5417 30.7819 15.5417C31.2134 15.5417 31.5631 15.1919 31.5631 14.7604C31.5631 12.5201 29.7406 10.6975 27.5002 10.6975C27.0688 10.6975 26.719 11.0473 26.719 11.4788C26.719 11.9102 27.0688 12.26 27.5002 12.26Z" fill="#70768A"/>
<path d="M27.5 15.542C27.0685 15.542 26.7188 15.1922 26.7188 14.7607C26.7188 14.3293 27.0685 13.9795 27.5 13.9795C27.9315 13.9795 28.2812 14.3293 28.2812 14.7607C28.2812 15.1922 27.9315 15.542 27.5 15.542Z" fill="#70768A"/>
</g>
<defs>
<clipPath id="clip0">
<rect width="40" height="40" fill="white" transform="translate(0 0.5)"/>
</clipPath>
</defs>
</svg>
