<svg width="40" height="41" viewBox="0 0 40 41" fill="none" xmlns="http://www.w3.org/2000/svg">
<g clip-path="url(#clip0)">
<path d="M36.7086 12.9741C36.8554 12.8275 36.9379 12.6286 36.9379 12.4212C36.9379 12.2137 36.8554 12.0148 36.7086 11.8683L32.548 7.71508C32.243 7.4107 31.7491 7.4107 31.4441 7.71508L29.305 9.85039C27.3929 8.57086 25.2459 7.70586 22.9765 7.30203C23.6469 6.57906 24.0573 5.61227 24.0573 4.55148C24.0573 2.3175 22.2372 0.5 20 0.5C17.7627 0.5 15.9426 2.3175 15.9426 4.55148C15.9426 5.61219 16.3529 6.57906 17.0235 7.30203C14.754 7.70586 12.607 8.57086 10.695 9.85039L8.55584 7.71508C8.25084 7.4107 7.75693 7.4107 7.45193 7.71508L3.29131 11.8683C3.14451 12.0148 3.06201 12.2137 3.06201 12.4212C3.06201 12.6286 3.14451 12.8275 3.29131 12.9741L5.57045 15.2492C4.05193 17.8018 3.24178 20.7239 3.24178 23.7702C3.24178 28.2391 4.98506 32.4405 8.15061 35.6005C11.3158 38.76 15.524 40.5 20 40.5C24.476 40.5 28.6842 38.76 31.8493 35.6005C35.0148 32.4406 36.7581 28.2391 36.7581 23.7702C36.7581 20.7238 35.9479 17.8018 34.4294 15.2491L36.7086 12.9741ZM31.9961 9.37187L35.0508 12.4212L33.5497 13.9197C33.0395 13.2234 32.4719 12.5616 31.8493 11.9401C31.4414 11.533 31.0162 11.1494 30.5753 10.7901L31.9961 9.37187ZM20 2.0625C21.3756 2.0625 22.4948 3.17906 22.4948 4.55148C22.4948 5.6518 21.7754 6.58766 20.7812 6.91547V5.11C20.7812 4.67859 20.4315 4.32875 20 4.32875C19.5685 4.32875 19.2187 4.67859 19.2187 5.11V6.91547C18.2245 6.58766 17.5051 5.6518 17.5051 4.55148C17.5051 3.17906 18.6244 2.0625 20 2.0625ZM4.94912 12.4212L8.00389 9.37187L9.42467 10.7901C8.98381 11.1494 8.55857 11.5329 8.15068 11.9401C7.52803 12.5616 6.96045 13.2235 6.45029 13.9197L4.94912 12.4212ZM20 38.9375C11.621 38.9375 4.80428 32.1335 4.80428 23.7702C4.80428 15.407 11.621 8.60305 20 8.60305C28.379 8.60305 35.1957 15.407 35.1957 23.7703C35.1957 32.1336 28.3789 38.9375 20 38.9375Z" fill="#70768A"/>
<path d="M20 35.7015C26.6013 35.7015 31.9527 30.3597 31.9527 23.7702C31.9527 17.1807 26.6013 11.8389 20 11.8389C13.3987 11.8389 8.04736 17.1807 8.04736 23.7702C8.04736 30.3597 13.3987 35.7015 20 35.7015Z" fill="#E8CDC8"/>
<path d="M20 15.7987C19.5685 15.7987 19.2188 15.4489 19.2188 15.0175V14.751C19.2188 14.3195 19.5685 13.9697 20 13.9697C20.4315 13.9697 20.7812 14.3195 20.7812 14.751V15.0175C20.7812 15.4489 20.4315 15.7987 20 15.7987Z" fill="#70768A"/>
<path d="M20 33.5707C19.5685 33.5707 19.2188 33.2208 19.2188 32.7894V32.523C19.2188 32.0915 19.5685 31.7417 20 31.7417C20.4315 31.7417 20.7812 32.0915 20.7812 32.523V32.7894C20.7812 33.2208 20.4315 33.5707 20 33.5707Z" fill="#70768A"/>
<path d="M29.0192 24.5515H28.7527C28.3212 24.5515 27.9714 24.2017 27.9714 23.7703C27.9714 23.3389 28.3212 22.989 28.7527 22.989H29.0192C29.4507 22.989 29.8005 23.3389 29.8005 23.7703C29.8005 24.2017 29.4507 24.5515 29.0192 24.5515Z" fill="#70768A"/>
<path d="M11.2473 24.5515H10.9807C10.5492 24.5515 10.1995 24.2017 10.1995 23.7703C10.1995 23.3389 10.5492 22.989 10.9807 22.989H11.2473C11.6788 22.989 12.0285 23.3389 12.0285 23.7703C12.0285 24.2017 11.6788 24.5515 11.2473 24.5515Z" fill="#70768A"/>
<path d="M26.1893 18.3623C25.9894 18.3623 25.7894 18.2859 25.6369 18.1334C25.3318 17.8284 25.3318 17.3337 25.6369 17.0285L25.8253 16.8401C26.1304 16.5351 26.6251 16.5351 26.9302 16.8401C27.2353 17.1452 27.2353 17.6398 26.9302 17.945L26.7418 18.1334C26.5891 18.2859 26.3892 18.3623 26.1893 18.3623Z" fill="#70768A"/>
<path d="M13.6225 30.9289C13.4226 30.9289 13.2226 30.8526 13.0701 30.7001C12.765 30.395 12.765 29.9003 13.0701 29.5952L13.2586 29.4067C13.5636 29.1017 14.0583 29.1017 14.3635 29.4067C14.6686 29.7118 14.6686 30.2065 14.3635 30.5116L14.175 30.7001C14.0225 30.8527 13.8225 30.9289 13.6225 30.9289Z" fill="#70768A"/>
<path d="M26.3777 30.9289C26.1778 30.9289 25.9778 30.8526 25.8253 30.7001L25.6369 30.5116C25.3318 30.2066 25.3318 29.7119 25.6369 29.4067C25.942 29.1017 26.4366 29.1017 26.7418 29.4067L26.9302 29.5952C27.2353 29.9002 27.2353 30.3949 26.9302 30.7001C26.7776 30.8527 26.5777 30.9289 26.3777 30.9289Z" fill="#70768A"/>
<path d="M13.811 18.3623C13.6111 18.3623 13.4111 18.2859 13.2586 18.1334L13.0701 17.945C12.765 17.6399 12.765 17.1452 13.0701 16.8401C13.3752 16.5351 13.8699 16.5351 14.175 16.8401L14.3635 17.0285C14.6686 17.3336 14.6686 17.8283 14.3635 18.1334C14.2109 18.2859 14.0109 18.3623 13.811 18.3623Z" fill="#70768A"/>
<path d="M24.6726 22.8718H22.6978C22.4371 22.0123 21.7579 21.3331 20.8983 21.0724V18.6265C20.8983 18.195 20.5486 17.8452 20.1171 17.8452C19.6856 17.8452 19.3358 18.195 19.3358 18.6265V21.0724C18.2289 21.4081 17.4209 22.438 17.4209 23.653C17.4209 25.1397 18.6304 26.3492 20.1171 26.3492C21.3322 26.3492 22.3621 25.5412 22.6978 24.4343H24.6726C25.1041 24.4343 25.4539 24.0844 25.4539 23.653C25.4539 23.2216 25.1041 22.8718 24.6726 22.8718ZM20.1171 24.7867C19.492 24.7867 18.9834 24.2781 18.9834 23.653C18.9834 23.0279 19.4919 22.5194 20.1171 22.5194C20.7421 22.5194 21.2507 23.0279 21.2507 23.653C21.2507 24.2781 20.7421 24.7867 20.1171 24.7867Z" fill="#70768A"/>
</g>
<defs>
<clipPath id="clip0">
<rect width="40" height="40" fill="white" transform="translate(0 0.5)"/>
</clipPath>
</defs>
</svg>
