<svg width="40" height="41" viewBox="0 0 40 41" fill="none" xmlns="http://www.w3.org/2000/svg">
<g clip-path="url(#clip0)">
<path d="M20.0002 28.2754C24.2945 28.2754 27.7756 24.7942 27.7756 20.5C27.7756 16.2058 24.2945 12.7246 20.0002 12.7246C15.706 12.7246 12.2249 16.2058 12.2249 20.5C12.2249 24.7942 15.706 28.2754 20.0002 28.2754Z" fill="#E8CDC8"/>
<path d="M23.8742 19.296L19.6924 16.6724C19.2545 16.3976 18.7013 16.3824 18.2489 16.6326C17.7964 16.8828 17.5153 17.3596 17.5153 17.8766V23.1238C17.5153 23.6408 17.7964 24.1175 18.2489 24.3678C18.4632 24.4865 18.7002 24.5454 18.9368 24.5454C19.1996 24.5454 19.462 24.4725 19.6924 24.328L23.8742 21.7044C24.2913 21.4427 24.5402 20.9925 24.5402 20.5002C24.5402 20.0079 24.2913 19.5577 23.8742 19.296ZM19.0778 22.8691V18.1312L22.8536 20.5002L19.0778 22.8691Z" fill="#70768A"/>
<path d="M34.8054 0.5H30.684C30.2526 0.5 29.9028 0.849844 29.9028 1.28125V2.0625H10.0975V1.28125C10.0975 0.849844 9.74771 0.5 9.31623 0.5H5.19482C4.76334 0.5 4.41357 0.849844 4.41357 1.28125V39.7188C4.41357 40.1502 4.76334 40.5 5.19482 40.5H9.31615C9.74764 40.5 10.0974 40.1502 10.0974 39.7188V38.9375H29.9027V39.7188C29.9027 40.1502 30.2526 40.5 30.684 40.5H34.8054C35.2368 40.5 35.5866 40.1502 35.5866 39.7188V1.28125C35.5867 0.849844 35.2369 0.5 34.8054 0.5ZM8.53498 19.7188H5.97607V14.875H8.5349V19.7188H8.53498ZM5.97607 21.2812H8.5349V26.125H5.97607V21.2812ZM8.53498 13.3125H5.97607V8.46875H8.5349V13.3125H8.53498ZM5.97607 27.6875H8.5349V32.5312H5.97607V27.6875ZM10.0975 9.59906H29.9028V31.4009H10.0975V9.59906ZM31.4653 14.875H34.0242V19.7188H31.4653V14.875ZM31.4653 21.2812H34.0242V26.125H31.4653V21.2812ZM34.0242 13.3125H31.4653V8.46875H34.0242V13.3125ZM31.4653 27.6875H34.0242V32.5312H31.4653V27.6875ZM31.4653 2.0625H34.0242V6.90625H31.4653V2.0625ZM29.9028 3.625V8.03656H10.0975V3.625H29.9028ZM8.53498 2.0625V6.90625H5.97607V2.0625H8.53498ZM8.53498 38.9375H5.97607V34.0938H8.5349V38.9375H8.53498ZM10.0975 37.375V32.9634H29.9028V37.375H10.0975ZM31.4653 38.9375V34.0938H34.0242V38.9375H31.4653Z" fill="#70768A"/>
</g>
<defs>
<clipPath id="clip0">
<rect width="40" height="40" fill="white" transform="translate(0 0.5)"/>
</clipPath>
</defs>
</svg>
