<svg width="40" height="41" viewBox="0 0 40 41" fill="none" xmlns="http://www.w3.org/2000/svg">
<g clip-path="url(#clip0)">
<path d="M13.2144 26.1983C12.8816 26.473 12.8346 26.9653 13.1091 27.2981C13.812 28.1497 14.199 29.2281 14.199 30.3345V38.9374H9.62301V27.616C9.62301 27.1845 9.27317 26.8347 8.84176 26.8347C8.41036 26.8347 8.06051 27.1845 8.06051 27.616V38.9374H6.21497V27.6425C6.21497 27.211 5.86512 26.8613 5.43372 26.8613C5.00231 26.8613 4.65247 27.211 4.65247 27.6425V39.7187C4.65247 40.1502 5.00223 40.4999 5.43372 40.4999H8.84176C8.84981 40.4999 8.85786 40.4998 8.86583 40.4995C8.8738 40.4998 8.88184 40.4999 8.88989 40.4999H14.9803C15.4117 40.4999 15.7615 40.1502 15.7615 39.7187V30.3345C15.7615 28.866 15.2475 27.4344 14.3143 26.3035C14.0395 25.9707 13.5471 25.9236 13.2144 26.1983Z" fill="#70768A"/>
<path d="M31.9539 9.68351C29.798 7.0096 26.7774 5.11608 23.4486 4.35163C23.0275 4.25476 22.6088 4.51765 22.5123 4.93819C22.4157 5.35874 22.6783 5.77796 23.0989 5.87444C29.3909 7.31937 33.7853 12.8443 33.7853 19.3101V24.7793C33.7853 25.2108 34.1351 25.5605 34.5665 25.5605C34.998 25.5605 35.3478 25.2108 35.3478 24.7793V19.3101C35.3477 15.8166 34.1425 12.3979 31.9539 9.68351Z" fill="#70768A"/>
<path d="M34.5665 26.7286C34.135 26.7286 33.7852 27.0783 33.7852 27.5098V38.9376H31.9397V27.6161C31.9397 27.1847 31.59 26.8349 31.1585 26.8349C30.7271 26.8349 30.3772 27.1847 30.3772 27.6161V38.9376H25.8559V30.3347C25.8559 28.9004 26.4923 27.5551 27.602 26.6436C27.932 26.3725 27.9825 25.8874 27.718 25.5543C27.8128 25.5585 27.9082 25.5607 28.004 25.5607C28.4354 25.5607 28.7852 25.2109 28.7852 24.7794C28.7852 24.3479 28.4354 23.9982 28.004 23.9982C25.3715 23.9982 23.2299 21.8565 23.2299 19.2241V9.45051C27.3842 10.8247 30.3773 14.7742 30.3773 19.3101V24.6374C30.3773 25.0689 30.7272 25.4186 31.1586 25.4186C31.59 25.4186 31.9398 25.0689 31.9398 24.6374V19.3101C31.9398 16.297 30.81 13.4179 28.7584 11.2031C26.7186 9.0009 23.9568 7.65395 20.9822 7.41059C20.9517 7.40809 20.9298 7.40747 20.7913 7.40419C20.7439 7.40309 20.697 7.40208 20.6759 7.40129C20.4325 7.38825 20.209 7.48794 20.0565 7.65544C19.9053 7.47942 19.6772 7.37239 19.4265 7.38419C16.3632 7.52997 13.5036 8.83637 11.374 11.0629C9.23731 13.2968 8.06067 16.2257 8.06067 19.3101V24.5044C8.06067 24.9359 8.41051 25.2857 8.84192 25.2857C9.27333 25.2857 9.62317 24.9359 9.62317 24.5044V19.3101C9.62317 14.6937 12.6264 10.7665 16.8254 9.42544V19.224C16.8254 21.8565 14.6837 23.9981 12.0513 23.9981C11.6199 23.9981 11.27 24.3479 11.27 24.7793C11.27 25.2108 11.6199 25.5606 12.0513 25.5606C15.5454 25.5606 18.3879 22.718 18.3879 19.224V9.05731C18.7526 9.00067 19.124 8.96286 19.5008 8.94497C19.7163 8.93473 19.9072 8.83809 20.0417 8.6902C20.1716 8.84169 20.3593 8.94372 20.574 8.96044C20.5861 8.96137 20.6698 8.96434 20.7547 8.96637C20.7998 8.96747 20.8454 8.9684 20.8699 8.96926C21.1388 8.99169 21.4048 9.0245 21.6675 9.06739V19.2242C21.6675 22.2501 23.7995 24.7875 26.6403 25.413C26.6302 25.4205 26.6202 25.4283 26.6104 25.4364C25.138 26.6458 24.2936 28.4312 24.2936 30.3349V39.7189C24.2936 40.1504 24.6435 40.5001 25.0749 40.5001H34.5667C34.9982 40.5001 35.3479 40.1504 35.3479 39.7189V27.5098C35.3477 27.0783 34.9979 26.7286 34.5665 26.7286ZM20.8545 8.96786C20.8561 8.96801 20.8574 8.96809 20.859 8.96817C20.8572 8.96809 20.8557 8.96794 20.8545 8.96786Z" fill="#70768A"/>
<path d="M5.43372 25.3788C5.86512 25.3788 6.21497 25.0291 6.21497 24.5976V19.3101C6.21497 13.0732 10.4182 7.59577 16.4364 5.98991C16.8532 5.87866 17.1011 5.45054 16.9898 5.03366C16.8785 4.61671 16.45 4.36897 16.0336 4.48022C9.33254 6.26827 4.65247 12.3666 4.65247 19.3101V24.5976C4.65247 25.0291 5.00223 25.3788 5.43372 25.3788Z" fill="#70768A"/>
<path d="M22.6877 0.5C21.1818 0.5 20.0002 2.17914 20.0002 2.17914C20.0002 2.17914 18.8857 0.5 17.312 0.5C15.7814 0.5 14.5314 1.7625 14.4496 3.29102C14.4035 4.15453 14.6819 4.81172 15.0741 5.40695C15.8578 6.59617 20.0052 9.33445 20.0052 9.33445C20.0052 9.33445 24.1369 6.60664 24.9259 5.40695C25.3189 4.80898 25.5965 4.15453 25.5503 3.29102C25.4685 1.7625 24.2185 0.5 22.6877 0.5V0.5Z" fill="#E8CDC8"/>
<path d="M23.4343 24.0049H35.6623V28.3871H23.4343V24.0049Z" fill="#E8CDC8"/>
<path d="M4.33752 24.0049H16.5655V28.3871H4.33752V24.0049Z" fill="#E8CDC8"/>
</g>
<defs>
<clipPath id="clip0">
<rect width="40" height="40" fill="white" transform="translate(0 0.5)"/>
</clipPath>
</defs>
</svg>
