<svg width="51" height="55" viewBox="0 0 51 55" fill="none" xmlns="http://www.w3.org/2000/svg">
<path d="M37.9974 20.6924C44.1281 22.4449 46.6209 23.0515 51 25.815C47.4967 24.2647 42.5113 22.2426 35.9089 22.1078C35.2352 22.2426 32.5403 22.5123 31.5297 26.2868C31.7319 31.1397 29.5086 35.3186 24.5905 39.0931C24.6786 40.5323 23.6376 39.8177 24.4558 41.5365C25.2844 44.4146 27.8104 50.7984 29.6545 52.7083C21.7047 46.5074 17.7185 31.6115 28.2285 17.6593C29.2391 16.7831 30.0476 16.1091 32.0013 16.1091C35.7067 16.4461 35.7067 19.4118 37.9974 20.6924Z" fill="#70768A"/>
<path d="M26.14 19.6814C26.2074 19.8836 26.4769 19.8836 27.2854 19.0074C25.399 22.0404 24.5905 23.9277 23.782 26.6912C24.5905 21.4338 21.8957 20.0184 22.3673 15.5699C19.4029 17.1875 17.8534 20.4228 19.7398 24.7365C19.3355 24.1299 17.8534 21.636 12.6658 23.6581C14.6869 24.5343 14.8217 28.1066 19.4029 27.4326C17.8534 28.7132 18.5945 29.7917 17.4492 30.2635C20.2114 30.9375 22.502 27.2304 23.3105 28.7132C23.0784 30.1062 22.9962 31.699 22.9348 33.4056C22.9395 33.7174 22.9287 34.006 22.9062 34.2402C22.9156 33.9593 22.9249 33.681 22.9348 33.4056C22.9163 32.1563 22.6505 30.5331 21.8957 30.5331C19.4029 34.712 14.6196 37.6103 7.81506 37.4081C11.3184 34.4424 10.9141 30.6679 15.8996 28.511C0.673711 28.7806 7.34347 21.2316 0 17.1875C0.741084 16.5809 9.56672 13.4804 13.8111 18.8051C12.5311 14.424 14.6196 5.12255 22.2999 0C21.0872 5.32476 26.8811 11.2561 26.14 19.6814Z" fill="#70768A"/>
<path d="M24.4558 39.1605C27.757 34.375 32.0689 35.5208 32.9447 33.8358C32.8213 35.8111 32.3544 37.1894 31.673 38.1364C36.5125 37.3754 39.1486 40.7224 41.5009 39.3627C40.4925 43.3982 35.9601 45.1249 32.2321 44.8825C34.0594 47.651 32.0722 53.1572 32.9447 55C23.7149 49.6753 23.5799 42.8003 23.782 40.1716C25.9379 39.2953 23.9382 43.5893 27.218 44.0809C26.8138 42.9351 27.5547 42.3958 26.5443 41.1826C28.1612 43.0698 29.3067 41.587 30.452 41.9914C28.9023 38.9682 26.8813 40.5086 26.6116 40.0368C27.6896 39.6324 27.3529 38.2169 27.9592 38.0147C26.0053 38.0147 24.4802 39.3964 24.2107 40.6771C23.9412 40.2727 24.5839 39.2389 24.4558 39.1605Z" fill="#70768A"/>
</svg>
