<svg width="73" height="78" viewBox="0 0 73 78" fill="none" xmlns="http://www.w3.org/2000/svg">
<path d="M54.1433 29.3456C62.7986 31.8309 66.3177 32.6912 72.5 36.6103C67.5542 34.4118 60.5159 31.5441 51.1948 31.3529C50.2438 31.5441 46.4393 31.9265 45.0125 37.2794C45.2979 44.1618 42.1592 50.0882 35.216 55.4412C35.3403 57.4822 33.8708 56.4688 35.0258 58.9062C36.1956 62.988 39.7617 72.0414 42.3652 74.75C31.1419 65.9559 25.5144 44.8309 40.352 25.0441C41.7787 23.8015 42.9201 22.8456 45.6783 22.8456C50.9095 23.3235 50.9095 27.5294 54.1433 29.3456Z" fill="#F6EEEC"/>
<path d="M37.4036 27.9118C37.4987 28.1985 37.8792 28.1985 39.0205 26.9559C36.3574 31.2574 35.216 33.9338 34.0747 37.8529C35.216 30.3971 31.4115 28.3897 32.0773 22.0809C27.8924 24.375 25.7048 28.9632 28.3679 35.0809C27.7972 34.2206 25.7048 30.6838 18.3811 33.5515C21.2345 34.7941 21.4247 39.8603 27.8924 38.9044C25.7048 40.7206 26.751 42.25 25.1341 42.9191C29.0337 43.875 32.2675 38.6176 33.4089 40.7206C33.0813 42.696 32.9652 44.9549 32.8786 47.3752C32.8851 47.8175 32.8699 48.2267 32.8382 48.5588C32.8514 48.1604 32.8646 47.7657 32.8786 47.3752C32.8525 45.6034 32.4771 43.3015 31.4115 43.3015C27.8924 49.2279 21.1394 53.3382 11.533 53.0515C16.4789 48.8456 15.9082 43.4926 22.9465 40.4338C1.45112 40.8162 10.8672 30.1103 0.5 24.375C1.54624 23.5147 14.006 19.1176 19.998 26.6691C18.1909 20.4559 21.1394 7.26471 31.9822 0C30.2702 7.55147 38.4498 15.9632 37.4036 27.9118Z" fill="#F6EEEC"/>
<path d="M35.0258 55.5368C39.6863 48.75 45.7737 50.375 47.0102 47.9853C46.836 50.7866 46.1767 52.7414 45.2148 54.0844C52.0471 53.0051 55.7687 57.7518 59.0895 55.8235C57.6658 61.5466 51.2672 63.9953 46.0041 63.6515C48.5839 67.5778 45.7784 75.3866 47.0102 78C33.9798 70.4485 33.7893 60.6986 34.0746 56.9706C37.1183 55.7279 34.2951 61.8175 38.9254 62.5147C38.3547 60.8897 39.4007 60.125 37.9743 58.4044C40.257 61.0808 41.8741 58.978 43.491 59.5515C41.3032 55.264 38.4501 57.4485 38.0694 56.7794C39.5912 56.2059 39.1159 54.1985 39.9719 53.9118C37.2134 53.9118 35.0602 55.8713 34.6798 57.6875C34.2993 57.114 35.2066 55.6479 35.0258 55.5368Z" fill="#F6EEEC"/>
</svg>
